<?xml version="1.0" standalone="no"?>
<!DOCTYPE svg PUBLIC "-//W3C//DTD SVG 20010904//EN"
 "http://www.w3.org/TR/2001/REC-SVG-20010904/DTD/svg10.dtd">
<svg version="1.0" xmlns="http://www.w3.org/2000/svg"
 width="300.000000pt" height="290.000000pt" viewBox="0 0 300.000000 290.000000"
 preserveAspectRatio="xMidYMid meet">
<metadata>
Created by potrace 1.10, written by Peter Selinger 2001-2011
</metadata>
<g transform="translate(0.000000,290.000000) scale(0.100000,-0.100000)"
fill="#ffffff" stroke="none">
<path d="M1397 2813 c-9 -11 -26 -77 -41 -158 -46 -258 -101 -427 -209 -644
-116 -233 -111 -225 -121 -162 -10 66 -84 129 -209 180 -15 6 -70 11 -121 11
-139 0 -238 -38 -314 -120 -51 -56 -68 -114 -57 -198 6 -48 13 -62 55 -106 37
-39 65 -58 122 -80 66 -26 82 -28 171 -24 53 2 97 1 97 -2 0 -3 -35 -31 -78
-62 -42 -31 -89 -67 -103 -80 -37 -32 -94 -148 -121 -243 -38 -139 -28 -397
20 -472 11 -17 51 -30 78 -25 13 2 75 57 138 122 64 65 116 114 116 110 0 -5
-17 -46 -39 -92 -48 -103 -81 -194 -117 -323 -47 -166 -37 -221 39 -208 20 3
37 10 37 14 0 5 8 9 18 9 10 0 24 10 32 22 34 51 161 186 213 229 32 26 82 54
114 65 32 10 72 28 88 39 17 11 31 20 32 21 2 0 5 18 8 40 11 86 62 235 117
343 83 161 191 305 340 454 70 70 128 134 128 142 0 8 6 15 14 15 18 0 86 70
86 88 0 7 12 18 28 24 15 7 42 27 60 45 19 19 43 33 57 33 15 0 31 10 40 24
19 29 83 73 119 82 14 3 26 10 26 14 0 4 15 11 34 14 19 4 37 13 40 21 3 8 21
17 40 20 19 4 40 13 47 21 6 8 21 14 33 14 20 0 41 13 105 67 14 13 32 23 39
23 6 0 12 7 12 16 0 9 9 23 21 33 13 10 21 30 22 51 2 33 0 35 -34 38 -54 5
-279 -58 -449 -124 -286 -112 -611 -313 -763 -473 -61 -64 -70 -82 -35 -76 17
4 8 -10 -38 -57 -32 -34 -61 -65 -64 -68 -3 -3 -32 -38 -64 -78 -61 -76 -84
-97 -73 -69 11 29 -11 28 -36 -3 -17 -20 -28 -26 -33 -18 -4 6 3 19 15 29 13
10 24 30 26 44 1 14 11 34 21 44 11 9 55 59 98 109 45 51 88 92 98 92 29 0
178 244 178 293 0 9 9 36 19 61 25 58 61 291 61 393 0 90 -33 352 -51 403 -18
53 -37 70 -79 70 -22 0 -43 -7 -53 -17z m67 -90 c3 -27 13 -84 21 -128 17 -95
20 -369 4 -447 -20 -99 -52 -213 -76 -267 -80 -184 -241 -389 -459 -581 -28
-25 -84 -75 -125 -111 -41 -37 -85 -76 -99 -87 -14 -11 -22 -23 -19 -26 4 -5
174 95 214 126 6 4 25 20 43 34 18 15 36 24 39 20 11 -11 -31 -86 -98 -176
-69 -93 -354 -389 -364 -379 -3 4 -13 51 -21 105 -12 80 -13 116 -5 186 24
189 74 289 188 376 171 130 349 322 437 472 101 171 199 417 245 615 7 28 16
66 21 85 26 109 30 135 30 180 0 63 15 65 24 3z m1131 -547 c-11 -7 -42 -24
-70 -38 -348 -170 -634 -370 -879 -613 -229 -227 -392 -497 -452 -746 l-28
-116 -45 -12 c-58 -15 -107 -38 -151 -70 -49 -35 -172 -163 -206 -214 -43 -64
-55 -76 -70 -70 -8 3 -14 9 -14 15 0 5 4 7 9 4 8 -5 31 36 31 57 0 20 41 148
77 242 58 153 125 296 175 378 26 43 48 81 48 83 0 12 127 192 200 282 96 120
279 297 405 392 221 167 509 309 800 395 50 15 101 30 115 35 14 5 36 9 50 9
24 1 24 0 5 -13z m-1752 -236 c27 -13 64 -41 83 -62 29 -33 34 -45 34 -89 0
-118 -107 -199 -272 -207 -98 -5 -156 8 -214 47 -59 41 -79 75 -79 134 0 82
61 151 168 188 77 27 215 22 280 -11z m194 -166 c8 -22 -169 -232 -221 -261
-16 -9 -23 -7 -39 14 -17 21 -18 26 -6 34 8 5 19 9 25 9 6 0 32 11 58 25 84
44 136 116 136 185 0 28 2 30 21 20 11 -6 23 -18 26 -26z m59 -499 c23 15 48
22 29 7 -6 -4 -16 -19 -24 -34 -8 -15 -21 -36 -30 -46 -30 -33 -59 -78 -86
-132 -15 -30 -31 -57 -34 -60 -4 -3 -26 -43 -50 -90 -50 -98 -61 -113 -61 -83
0 11 -7 26 -15 33 -23 19 -19 27 38 93 93 109 147 185 162 228 14 37 13 44 -2
70 -15 25 -16 31 -4 39 10 6 20 1 34 -16 18 -23 21 -24 43 -9z"/>
</g>
</svg>
