<?xml version="1.0" standalone="no"?>
<!DOCTYPE svg PUBLIC "-//W3C//DTD SVG 20010904//EN"
 "http://www.w3.org/TR/2001/REC-SVG-20010904/DTD/svg10.dtd">
<svg version="1.0" xmlns="http://www.w3.org/2000/svg"
 width="300.000000pt" height="69.000000pt" viewBox="0 0 300.000000 69.000000"
 preserveAspectRatio="xMidYMid meet">
<metadata>
Created by potrace 1.10, written by Peter Selinger 2001-2011
</metadata>
<g transform="translate(0.000000,69.000000) scale(0.100000,-0.100000)"
fill="#ffffff" stroke="none">
<path d="M310 613 c-13 -59 -58 -173 -69 -173 -3 0 -12 9 -18 19 -26 42 -133
29 -148 -18 -13 -43 41 -90 88 -75 16 5 11 -3 -15 -28 -40 -37 -55 -85 -44
-143 8 -42 21 -44 59 -7 l29 27 -15 -30 c-8 -16 -19 -47 -25 -68 -15 -53 10
-63 46 -17 14 18 40 39 59 46 19 9 33 21 33 32 1 74 130 228 241 287 63 33 90
57 77 70 -7 8 -108 -25 -159 -50 -25 -13 -66 -39 -90 -58 l-44 -33 22 44 c34
66 32 232 -2 232 -8 0 -18 -23 -25 -57z m30 -108 c-15 -70 -50 -124 -122 -190
-51 -46 -56 -53 -25 -35 20 12 37 18 37 14 0 -11 -91 -114 -101 -114 -12 0
-12 72 0 103 5 14 35 48 65 77 64 60 110 144 128 233 l13 61 7 -49 c5 -28 3
-72 -2 -100z m171 -33 c-84 -51 -181 -149 -214 -216 -15 -30 -27 -61 -27 -70
0 -8 -9 -17 -19 -21 -11 -3 -36 -23 -56 -43 l-36 -37 26 70 c57 154 167 271
314 331 80 33 84 29 12 -14z m-313 -18 c26 -18 28 -31 5 -56 -21 -23 -64 -23
-94 0 -51 42 33 95 89 56z"/>
<path d="M1958 413 c-20 -34 -23 -51 -24 -154 -1 -64 1 -133 5 -155 6 -35 9
-39 36 -39 26 0 31 5 39 35 l8 35 85 -42 c97 -49 123 -47 123 10 0 35 33 67
46 46 4 -7 21 -9 42 -5 26 4 39 1 48 -12 12 -16 15 -16 44 1 18 9 44 17 60 17
54 0 98 95 50 107 -11 3 -20 13 -20 22 0 32 -26 55 -66 58 -21 1 -43 -2 -49
-6 -12 -10 -91 -8 -101 2 -13 13 -44 7 -64 -13 -12 -12 -22 -15 -26 -9 -3 6
-17 9 -29 7 -21 -4 -22 -2 -18 33 4 30 2 39 -16 48 -18 10 -27 8 -55 -14 -41
-31 -48 -31 -40 -1 7 31 -11 66 -36 66 -10 0 -28 -16 -42 -37z m53 5 c1 -7 1
-32 0 -55 -1 -24 1 -43 4 -43 4 0 26 14 50 30 55 38 65 38 65 -1 0 -22 -10
-41 -36 -67 l-35 -35 30 -31 31 -31 0 39 c0 40 22 76 47 76 8 0 13 -12 13 -30
0 -30 0 -30 20 -10 11 11 20 24 20 30 0 13 38 32 50 25 6 -3 10 -13 10 -21 0
-16 16 -19 25 -3 4 6 21 9 39 8 17 -2 41 3 54 10 19 10 23 9 28 -4 5 -12 10
-13 20 -4 20 16 34 2 34 -36 0 -28 3 -32 20 -28 14 4 20 0 20 -11 0 -35 -59
-71 -75 -46 -4 7 -16 1 -31 -15 -29 -31 -48 -24 -42 16 l4 28 -29 -25 c-33
-28 -44 -30 -67 -9 -15 14 -18 14 -30 0 -7 -8 -25 -15 -41 -15 -31 0 -39 -14
-14 -24 18 -7 20 -56 3 -56 -21 0 -149 68 -175 92 l-23 21 0 -44 c0 -54 -13
-80 -31 -62 -9 9 -13 55 -13 145 -1 109 2 139 17 166 18 33 36 42 38 20z m99
-174 c0 -8 -5 -12 -10 -9 -6 4 -8 11 -5 16 9 14 15 11 15 -7z"/>
<path d="M1982 377 c-7 -17 -11 -79 -11 -155 1 -70 3 -116 6 -102 16 105 14
103 56 65 15 -14 27 -23 27 -19 0 3 6 1 14 -5 16 -14 105 -61 114 -61 3 0 -7
10 -23 23 -32 25 -67 58 -108 103 l-28 32 34 21 c30 18 64 67 54 78 -2 2 -28
-12 -58 -32 -29 -19 -56 -35 -59 -35 -3 0 -4 18 -2 39 2 21 2 47 0 57 -4 16
-7 14 -16 -9z m28 -117 c-8 -15 -8 -20 1 -18 6 2 13 -2 16 -9 3 -7 -3 -9 -16
-6 -25 6 -30 53 -6 53 13 0 14 -4 5 -20z"/>
<path d="M2249 293 c0 -5 -1 -26 -2 -47 -1 -24 -8 -41 -16 -44 -11 -4 -13 2
-8 27 9 42 -8 39 -29 -4 -26 -56 -38 -55 -30 3 6 44 4 51 -9 46 -11 -5 -15
-21 -15 -60 0 -58 9 -65 39 -35 16 16 20 17 25 5 8 -21 42 -2 60 34 14 28 11
82 -5 82 -5 0 -9 -3 -10 -7z"/>
<path d="M2398 288 c-12 -10 -14 -25 -9 -67 5 -44 8 -52 18 -40 7 8 16 26 22
40 l9 24 7 -27 c8 -31 26 -36 45 -12 11 12 11 15 0 12 -7 -2 -17 13 -24 36 -9
32 -13 37 -23 24 -7 -8 -17 -25 -23 -39 -9 -21 -10 -18 -6 19 5 47 5 46 -16
30z"/>
<path d="M2295 256 c-20 -30 -13 -76 11 -76 25 0 66 48 62 73 -5 34 -52 36
-73 3z m51 -11 c8 -20 -16 -49 -29 -36 -11 11 0 51 14 51 5 0 12 -7 15 -15z"/>
<path d="M2590 430 c-53 -18 -100 -58 -100 -84 0 -8 8 -24 19 -37 18 -23 19
-23 46 -5 l28 18 -5 -90 c-6 -99 4 -122 51 -122 24 0 76 24 104 48 16 14 19
14 33 -6 33 -48 115 -14 142 58 12 30 -8 87 -33 96 -10 4 -15 19 -15 46 0 46
-32 82 -81 92 -57 11 -133 6 -189 -14z m219 -28 c22 -16 26 -27 25 -66 0 -36
3 -46 16 -46 47 0 54 -63 11 -109 -37 -40 -69 -41 -84 -2 l-11 29 -50 -34
c-28 -18 -63 -36 -77 -39 -32 -8 -54 15 -42 42 5 10 7 53 5 96 -4 79 -15 95
-42 62 -29 -35 -60 -9 -34 30 38 58 223 82 283 37z"/>
<path d="M2616 395 c-27 -7 -59 -23 -70 -35 l-21 -22 42 21 c45 23 68 27 58
11 -3 -5 -7 -57 -8 -115 -2 -125 -1 -126 93 -64 65 44 106 95 116 146 5 26 2
34 -20 48 -34 23 -129 28 -190 10z m164 -33 c32 -26 21 -81 -22 -117 -28 -24
-100 -65 -113 -65 -7 0 -6 97 1 154 l7 46 52 0 c36 0 60 -6 75 -18z"/>
<path d="M2671 352 c-10 -20 -24 -152 -16 -152 3 0 30 15 59 34 61 39 86 85
60 111 -9 8 -25 15 -37 16 -12 0 -30 2 -40 4 -9 2 -21 -4 -26 -13z m84 -22
c11 -18 -4 -44 -38 -67 -18 -13 -35 -23 -38 -23 -2 0 -2 22 -1 50 4 49 4 50
37 50 19 0 37 -5 40 -10z"/>
<path d="M2807 252 c-19 -21 -23 -67 -7 -77 28 -18 87 45 74 79 -8 22 -47 20
-67 -2z m43 -26 c0 -27 -17 -43 -31 -29 -12 12 1 53 17 53 8 0 14 -10 14 -24z"/>
<path d="M1720 433 c-250 -42 -290 -57 -290 -111 0 -41 25 -51 82 -35 27 8 51
13 53 11 5 -4 13 -84 14 -134 1 -59 18 -77 63 -69 20 4 46 16 58 27 16 15 29
18 48 13 65 -16 81 -16 115 -1 21 8 41 25 45 37 8 21 -2 87 -18 119 -9 20 -55
25 -91 10 -23 -10 -32 -10 -44 0 -9 7 -27 10 -45 6 -21 -4 -30 -2 -30 8 0 8
23 18 63 25 71 14 107 34 107 59 0 38 -43 50 -130 35z m105 -33 c0 -11 -25
-21 -82 -35 -83 -19 -83 -19 -83 -51 0 -18 -3 -41 -7 -51 -6 -17 -6 -17 14 0
31 27 85 20 93 -13 6 -24 7 -24 14 -4 7 24 54 48 83 42 28 -5 27 -37 -3 -69
-30 -31 -23 -40 8 -12 16 15 21 15 28 3 11 -18 -10 -44 -51 -60 -23 -10 -33
-10 -51 2 -30 19 -73 16 -97 -6 -11 -10 -25 -18 -33 -20 -7 -1 -19 -5 -27 -10
-8 -5 -16 -4 -21 4 -7 11 -22 137 -22 188 0 26 -1 26 -64 7 -64 -19 -74 -19
-74 3 0 34 34 49 155 71 191 33 220 34 220 11z"/>
<path d="M1680 385 c-160 -30 -204 -40 -207 -52 -3 -8 11 -8 54 2 32 8 63 14
68 15 6 0 11 -26 12 -58 1 -31 5 -82 9 -112 l8 -55 7 45 c4 25 8 71 8 103 1
84 9 93 91 107 38 6 70 14 70 16 0 7 -41 3 -120 -11z"/>
<path d="M1795 246 c-19 -19 -22 -29 -16 -52 7 -25 13 -29 41 -27 18 0 40 9
49 18 15 16 15 16 -5 5 -12 -7 -28 -11 -36 -7 -18 6 -21 54 -5 64 6 4 8 0 4
-10 -3 -10 -3 -17 1 -17 13 0 32 23 32 37 0 21 -39 15 -65 -11z"/>
<path d="M1678 243 c-19 -23 -31 -106 -15 -100 7 2 21 17 33 34 18 27 22 29
31 14 10 -15 12 -15 29 2 10 9 13 17 7 17 -6 0 -14 11 -17 25 -8 30 -45 34
-68 8z m32 -7 c0 -14 -21 -58 -26 -54 -8 8 7 58 17 58 5 0 9 -2 9 -4z"/>
<path d="M645 414 c-65 -34 -114 -105 -115 -167 0 -43 29 -97 64 -118 41 -25
112 -25 153 0 27 17 33 18 43 5 14 -16 56 -19 65 -4 5 8 11 7 21 -1 8 -6 27
-9 43 -6 16 3 44 4 62 1 30 -5 34 -10 35 -36 1 -17 7 -34 14 -38 16 -10 169
-10 195 0 11 4 45 28 76 54 34 28 66 46 81 46 36 0 78 36 78 67 0 36 -57 93
-93 93 -16 0 -37 -5 -48 -11 -16 -8 -25 -7 -38 5 -22 20 -50 20 -78 1 -18 -13
-22 -13 -33 0 -15 18 -37 19 -70 2 -17 -9 -30 -10 -42 -3 -11 7 -28 5 -57 -6
l-41 -16 6 36 c3 21 7 42 9 48 2 7 -3 22 -12 34 -12 17 -21 20 -42 15 -44 -11
-61 -34 -62 -84 -1 -45 -1 -45 -9 -13 -20 85 -129 136 -205 96z m133 -30 c30
-20 64 -75 58 -96 -3 -14 2 -18 20 -18 22 0 24 4 24 49 0 50 10 67 45 73 17 3
20 -2 19 -37 0 -22 -4 -69 -8 -105 -9 -66 0 -74 19 -18 12 37 77 67 101 47 11
-9 23 -7 51 6 36 17 37 17 52 -2 15 -19 16 -19 47 -1 17 10 38 16 47 12 22 -8
26 -36 9 -56 -8 -9 -11 -22 -7 -27 11 -19 25 -12 25 14 0 29 39 58 82 61 23 2
31 -3 38 -22 5 -13 15 -23 22 -22 7 2 14 -7 16 -19 4 -25 -36 -56 -65 -51 -19
3 -50 -17 -109 -69 -40 -36 -101 -54 -114 -33 -6 10 -15 9 -44 -1 -54 -19 -92
11 -66 51 7 12 13 13 27 4 13 -8 25 -8 41 -1 27 13 28 28 2 45 -16 10 -25 9
-52 -8 -36 -22 -78 -26 -94 -10 -8 8 -19 7 -39 -2 -24 -11 -29 -10 -41 7 -13
18 -14 18 -33 0 -24 -21 -51 -13 -51 15 0 20 -1 20 -35 -6 -45 -34 -110 -42
-154 -19 -33 16 -61 65 -61 105 0 49 63 130 120 153 21 9 81 -2 108 -19z"/>
<path d="M669 382 c-29 -13 -69 -50 -84 -78 -25 -48 -19 -91 15 -126 28 -27
36 -30 79 -26 56 6 92 29 120 79 25 45 26 62 4 100 -27 45 -91 69 -134 51z
m83 -44 c56 -27 62 -86 14 -134 -29 -29 -41 -34 -80 -34 -62 0 -96 31 -96 89
0 45 26 78 70 87 14 3 30 7 35 9 12 4 20 1 57 -17z"/>
<path d="M663 329 c-41 -12 -61 -40 -55 -78 13 -93 162 -83 170 11 3 31 -1 38
-31 57 -38 23 -38 23 -84 10z m97 -66 c0 -27 -39 -55 -75 -55 -37 0 -56 20
-53 56 2 25 9 33 38 42 44 15 90 -7 90 -43z"/>
<path d="M913 373 c-8 -3 -13 -23 -13 -52 0 -51 -13 -71 -45 -71 -12 0 -26 -5
-33 -12 -13 -13 -16 -60 -6 -71 11 -11 43 12 58 41 l15 27 1 -37 c0 -38 11
-46 38 -29 11 6 10 10 -3 15 -14 5 -16 14 -10 49 3 23 8 60 11 82 2 22 6 46 9
53 5 12 -1 14 -22 5z m-43 -140 c0 -5 -4 -15 -10 -23 -11 -18 -25 -7 -17 15 6
15 27 21 27 8z"/>
<path d="M1090 254 c-23 -20 -28 -29 -20 -39 13 -16 -15 -35 -49 -35 -26 0
-28 27 -2 35 27 8 46 34 34 46 -17 17 -74 -11 -88 -44 -11 -26 -10 -33 2 -45
18 -18 78 -10 104 14 17 15 20 15 48 -6 17 -12 31 -30 31 -39 0 -22 -51 -46
-80 -38 -13 3 -20 0 -20 -9 0 -40 105 7 116 52 7 28 0 38 -61 80 -17 13 -18
16 -5 24 11 7 16 5 18 -6 5 -22 26 -12 30 14 5 30 -19 28 -58 -4z m-78 -26
c-7 -7 -12 -8 -12 -2 0 14 12 26 19 19 2 -3 -1 -11 -7 -17z"/>
<path d="M1203 260 c-18 -11 -33 -25 -33 -32 0 -7 18 -24 40 -37 22 -14 42
-32 45 -40 9 -23 -33 -54 -67 -49 -19 3 -28 0 -28 -9 0 -34 88 1 112 45 12 23
10 27 -30 63 -24 21 -41 43 -37 49 10 16 25 12 25 -7 0 -16 1 -16 16 -1 15 15
12 38 -4 38 -4 0 -22 -9 -39 -20z"/>
<path d="M1324 258 c-21 -9 -34 -45 -34 -90 0 -16 3 -17 20 -8 12 6 26 22 32
35 10 23 12 23 24 8 11 -15 15 -16 38 -4 14 8 26 19 26 24 0 5 -6 4 -13 -2
-17 -14 -27 -4 -27 26 0 26 -27 30 -66 11z m26 -13 c0 -9 -30 -65 -35 -65 -2
0 1 15 6 32 5 18 9 34 9 35 0 2 5 3 10 3 6 0 10 -2 10 -5z"/>
<path d="M1179 182 c6 -12 9 -33 5 -47 -6 -24 -5 -24 25 -14 17 6 31 14 31 19
0 4 -16 20 -36 35 -32 24 -35 25 -25 7z"/>
</g>
</svg>
