<?xml version="1.0" standalone="no"?>
<!DOCTYPE svg PUBLIC "-//W3C//DTD SVG 20010904//EN"
 "http://www.w3.org/TR/2001/REC-SVG-20010904/DTD/svg10.dtd">
<svg version="1.0" xmlns="http://www.w3.org/2000/svg"
 width="900.000000pt" height="966.000000pt" viewBox="0 0 900.000000 966.000000"
 preserveAspectRatio="xMidYMid meet">
<metadata>
Created by potrace 1.10, written by Peter Selinger 2001-2011
</metadata>
<g transform="translate(0.000000,966.000000) scale(0.100000,-0.100000)"
fill="#ffffff" stroke="none">
<path d="M4270 9380 c-25 -3 -59 -13 -75 -22 -64 -34 -125 -118 -125 -173 0
-14 -7 -42 -15 -62 -8 -19 -15 -64 -15 -100 0 -35 -5 -73 -10 -84 -6 -11 -15
-56 -20 -102 -12 -108 -28 -200 -46 -263 -8 -28 -14 -66 -14 -84 0 -18 -7 -53
-15 -79 -8 -25 -21 -82 -30 -126 -9 -44 -21 -93 -27 -110 -6 -16 -13 -48 -17
-70 -4 -22 -12 -56 -18 -75 -14 -43 -33 -122 -43 -175 -4 -22 -12 -53 -18 -70
-12 -34 -29 -102 -42 -160 -9 -44 -29 -98 -48 -132 -7 -12 -12 -31 -12 -42 0
-10 -6 -32 -14 -48 -30 -60 -46 -105 -46 -126 0 -13 -4 -27 -9 -33 -10 -9 -35
-74 -51 -129 -16 -55 -41 -120 -51 -129 -5 -6 -9 -18 -9 -27 0 -10 -7 -32 -16
-51 -38 -77 -44 -90 -44 -108 0 -9 -7 -23 -15 -30 -8 -7 -15 -18 -15 -25 0 -8
-7 -26 -15 -42 -8 -15 -78 -156 -155 -313 -78 -157 -150 -298 -161 -315 -10
-16 -22 -37 -26 -45 -3 -8 -21 -37 -39 -65 -44 -69 -93 -155 -105 -187 -6 -16
-17 -28 -25 -28 -15 0 -20 18 -28 100 -10 93 -18 134 -30 150 -7 8 -18 28 -26
43 -8 15 -29 45 -47 67 -18 21 -33 42 -33 47 0 5 -29 35 -65 68 -36 33 -86 79
-112 103 -25 23 -56 45 -68 48 -13 3 -26 12 -29 20 -3 8 -12 14 -20 14 -9 0
-53 20 -99 45 -47 25 -95 45 -108 45 -13 0 -33 7 -43 15 -11 8 -30 15 -43 15
-13 0 -34 6 -46 14 -12 8 -59 17 -105 20 -45 3 -99 10 -120 16 -80 24 -478 -6
-542 -40 -10 -6 -34 -10 -52 -10 -18 0 -42 -7 -52 -15 -11 -8 -30 -15 -42 -15
-12 0 -52 -13 -90 -29 -38 -16 -76 -32 -84 -35 -18 -7 -43 -23 -152 -98 -126
-86 -348 -326 -348 -375 0 -11 -5 -24 -12 -31 -16 -16 -38 -79 -48 -137 -5
-27 -14 -65 -20 -82 -14 -39 -8 -206 10 -273 28 -104 53 -181 61 -186 5 -3 9
-15 9 -26 0 -25 39 -73 147 -183 86 -88 130 -128 153 -138 8 -4 35 -18 59 -32
24 -14 52 -25 61 -25 10 0 23 -7 30 -15 7 -8 18 -15 25 -15 7 0 18 -6 24 -14
6 -8 24 -16 39 -19 15 -3 61 -17 102 -30 156 -53 270 -70 460 -71 149 0 269
15 303 39 12 8 34 15 49 15 39 0 37 -29 -5 -57 -17 -13 -53 -42 -79 -65 -53
-49 -92 -80 -153 -123 -73 -52 -210 -157 -220 -170 -5 -6 -17 -14 -25 -17 -22
-7 -181 -157 -218 -205 -18 -23 -32 -49 -32 -56 0 -8 -7 -20 -15 -27 -8 -7
-15 -18 -15 -24 0 -13 -33 -80 -48 -99 -19 -23 -94 -172 -102 -202 -5 -16 -14
-46 -21 -65 -32 -91 -37 -108 -49 -145 -8 -22 -17 -58 -21 -80 -8 -39 -17 -79
-44 -180 -32 -118 -38 -157 -44 -285 -3 -74 -10 -141 -15 -149 -14 -22 -9
-330 5 -368 11 -27 10 -37 -5 -71 -15 -34 -16 -43 -5 -63 13 -24 18 -48 43
-224 8 -55 24 -131 36 -170 11 -38 23 -86 27 -105 14 -79 70 -153 146 -191 61
-32 172 -30 229 4 32 18 602 578 683 670 29 33 75 96 75 102 0 11 49 55 61 55
6 0 9 6 7 13 -8 23 -59 19 -126 -13 -62 -29 -65 -29 -46 -8 11 13 27 34 36 48
9 14 80 99 160 190 172 198 317 379 394 495 15 22 42 58 59 80 91 114 223 365
240 458 8 39 -10 123 -27 133 -14 9 -48 -26 -48 -49 0 -11 -20 -61 -44 -111
-25 -51 -50 -103 -56 -116 -16 -36 -26 -53 -115 -184 -44 -65 -85 -127 -92
-138 -6 -12 -15 -23 -20 -27 -5 -3 -51 -62 -103 -131 -108 -143 -214 -271
-282 -342 -27 -27 -48 -53 -48 -57 0 -4 -26 -32 -57 -62 -32 -29 -67 -66 -79
-81 -12 -15 -173 -181 -359 -369 -349 -353 -354 -357 -355 -282 0 17 -4 34 -8
37 -5 3 -9 21 -10 41 -1 20 -4 40 -7 45 -11 19 -17 56 -29 180 -6 69 -15 130
-19 137 -12 19 -10 604 2 616 6 6 11 29 11 52 0 56 19 168 31 180 5 5 9 21 9
36 0 14 7 46 15 69 8 23 15 54 15 67 0 14 6 37 14 51 8 15 29 74 47 132 18 58
39 112 46 121 7 8 13 23 13 31 0 9 7 21 15 28 8 7 15 20 15 30 0 10 6 23 14
29 8 7 35 54 61 106 38 76 60 106 121 164 41 39 80 71 88 71 8 0 24 12 36 27
12 16 39 39 60 53 20 14 62 44 91 68 30 23 59 46 64 50 75 54 154 121 215 182
103 102 167 160 177 160 11 0 333 323 333 334 0 5 15 24 33 42 34 35 84 92
142 164 19 25 47 59 61 75 46 55 150 200 157 218 3 9 11 17 16 17 5 0 11 11
15 23 3 13 16 35 29 48 23 24 117 163 117 172 0 3 19 34 43 69 24 35 46 70 50
78 4 8 16 29 26 45 42 64 391 774 391 794 0 5 6 22 14 38 8 15 22 48 31 73 9
25 23 59 30 75 7 17 15 39 18 50 3 11 15 45 27 75 23 60 66 182 106 299 14 41
28 79 32 85 15 25 41 113 42 142 0 16 7 39 15 50 8 10 15 36 15 56 0 20 4 39
9 43 6 3 13 27 16 53 4 26 13 65 20 87 8 22 17 58 20 80 4 22 10 45 15 50 4 6
10 28 13 50 6 43 20 103 43 175 8 25 14 56 14 70 0 14 7 43 15 65 8 22 14 57
15 77 0 20 4 39 9 42 5 3 12 36 16 73 4 38 11 73 17 80 5 7 7 17 3 23 -4 6 -2
17 4 23 5 7 11 43 13 81 1 37 5 69 9 72 9 5 25 187 21 232 -2 19 1 39 7 45 5
7 11 23 13 37 2 17 9 25 23 25 18 0 21 -9 26 -80 4 -44 11 -105 17 -135 5 -30
8 -59 5 -63 -3 -4 0 -13 5 -20 6 -7 15 -57 22 -112 6 -55 15 -111 20 -125 5
-14 11 -52 13 -85 2 -33 9 -71 14 -85 5 -14 11 -63 12 -110 1 -46 6 -89 11
-95 15 -18 31 -627 20 -790 -5 -82 -9 -170 -9 -193 0 -24 -4 -49 -10 -55 -5
-7 -11 -48 -12 -92 -1 -44 -6 -88 -11 -98 -5 -9 -11 -48 -14 -85 -4 -37 -10
-74 -14 -82 -4 -8 -13 -58 -19 -110 -7 -52 -16 -99 -22 -104 -5 -6 -9 -24 -9
-41 0 -17 -7 -40 -15 -51 -8 -10 -15 -35 -15 -55 0 -20 -7 -42 -15 -49 -8 -7
-15 -29 -15 -49 0 -20 -7 -45 -15 -55 -8 -11 -15 -34 -15 -51 0 -18 -3 -35 -6
-38 -11 -10 -54 -120 -54 -137 0 -8 -7 -24 -15 -34 -8 -11 -15 -27 -15 -37 0
-20 -30 -86 -70 -156 -6 -10 -13 -25 -16 -33 -3 -8 -10 -22 -15 -30 -5 -8 -12
-22 -15 -30 -3 -8 -10 -22 -15 -30 -5 -8 -12 -22 -15 -30 -3 -8 -10 -22 -15
-30 -5 -8 -15 -28 -23 -45 -8 -16 -28 -52 -45 -80 -16 -27 -39 -68 -51 -90
-12 -22 -34 -58 -49 -80 -15 -22 -30 -47 -34 -55 -4 -8 -15 -27 -25 -41 -9
-15 -30 -47 -45 -73 -16 -25 -33 -46 -38 -46 -5 0 -9 -5 -9 -11 0 -14 -35 -58
-240 -304 -55 -66 -115 -138 -133 -159 -17 -22 -49 -58 -69 -79 -21 -22 -38
-42 -38 -45 0 -8 -126 -142 -244 -259 -168 -166 -290 -283 -295 -283 -2 0 -36
-30 -75 -66 -39 -37 -96 -90 -125 -118 -30 -28 -60 -53 -67 -56 -6 -3 -94 -81
-194 -175 -287 -267 -354 -328 -391 -355 -81 -60 -112 -128 -41 -91 9 5 28 14
42 20 40 17 132 72 211 126 41 28 78 52 83 54 4 2 44 27 87 55 75 49 144 94
194 126 31 20 173 118 255 177 36 25 71 54 77 64 7 9 24 20 38 23 34 9 32 32
-5 51 -16 9 -30 23 -30 31 0 21 98 134 115 134 7 0 53 39 101 88 104 102 412
443 467 516 21 28 56 69 77 91 36 38 79 91 207 250 31 39 78 93 105 122 26 28
48 57 48 62 0 6 4 11 10 11 5 0 8 -28 6 -65 -2 -36 0 -68 5 -71 14 -8 82 67
137 150 26 39 49 73 52 76 11 10 110 179 110 188 0 5 6 14 13 20 7 6 55 96
106 199 51 103 99 200 107 215 8 14 14 34 14 45 0 10 7 27 15 37 8 11 15 28
15 39 0 10 6 31 14 45 13 27 27 69 61 187 9 33 21 74 27 90 5 17 13 46 17 65
4 19 13 45 19 57 7 12 12 33 12 46 0 14 7 41 15 60 8 20 15 50 15 68 0 17 6
58 14 92 16 66 33 163 46 262 5 33 13 96 19 140 19 143 33 357 33 510 0 191
-19 569 -33 660 -6 39 -14 111 -18 160 -4 50 -13 103 -19 118 -7 16 -12 48
-12 72 0 24 -5 56 -11 72 -6 15 -12 70 -14 121 -2 58 -9 100 -17 109 -13 16
-31 86 -47 183 -13 81 -35 130 -74 172 -64 66 -139 91 -237 78z m93 -149 c35
-14 77 -62 77 -88 0 -24 -14 -31 -25 -12 -9 14 -86 69 -97 69 -5 0 -34 -23
-63 -51 -40 -38 -56 -48 -60 -37 -8 20 8 58 40 96 22 26 34 32 65 32 21 0 50
-4 63 -9z m-2443 -2784 c8 -7 21 -20 29 -29 12 -17 9 -18 -43 -18 -50 0 -56 2
-56 21 0 20 -3 21 -142 15 -79 -3 -147 -5 -153 -6 -5 0 -2 -7 8 -14 15 -12 9
-14 -55 -18 -40 -3 -79 -3 -85 0 -20 7 -15 22 7 22 11 0 29 9 40 20 19 19 33
20 228 20 147 -1 211 -4 222 -13z m155 -41 c71 -16 111 -31 120 -45 3 -6 15
-11 27 -11 26 0 169 -72 235 -118 52 -37 163 -144 163 -158 0 -4 10 -16 23
-28 12 -12 32 -41 45 -66 12 -25 27 -52 31 -60 5 -8 14 -32 21 -53 16 -50 65
-124 93 -139 12 -6 26 -17 30 -24 12 -21 50 -17 91 11 73 49 51 -19 -53 -170
-23 -33 -57 -82 -75 -110 -32 -47 -56 -78 -216 -270 -114 -138 -403 -434 -463
-474 -13 -9 -44 -31 -67 -48 -24 -18 -47 -33 -52 -33 -6 0 -7 20 -3 50 6 45 4
53 -20 82 -48 59 -95 88 -141 88 -51 0 -75 22 -41 37 12 6 47 16 77 23 30 6
63 16 72 21 10 5 28 9 40 9 21 0 113 35 208 79 73 34 168 101 223 159 17 17
35 32 41 33 6 0 34 29 61 65 28 36 56 71 63 79 6 7 12 20 12 29 0 8 4 17 9 20
15 9 51 90 51 114 0 11 5 33 11 49 16 40 24 293 10 293 -6 0 -11 11 -11 24 0
13 -7 29 -15 36 -8 7 -15 18 -15 26 0 7 -13 29 -30 47 -16 19 -30 39 -30 45 0
8 -40 56 -79 95 -56 56 -93 87 -102 87 -6 0 -24 11 -41 25 -16 14 -36 25 -44
25 -7 0 -26 14 -41 30 -14 17 -32 30 -38 30 -7 0 -24 9 -39 21 -14 11 -30 17
-36 14 -6 -3 -24 1 -42 9 -17 9 -42 16 -55 16 -31 0 -93 26 -93 39 0 14 11 13
85 -3z m-775 -26 c0 -5 -11 -10 -25 -10 -14 0 -25 -4 -25 -10 0 -5 -17 -12
-37 -15 -21 -3 -46 -10 -55 -16 -10 -5 -22 -9 -28 -9 -6 0 -23 -14 -38 -31
-16 -18 -39 -32 -56 -33 -18 -2 -39 -16 -55 -35 -14 -17 -33 -31 -41 -31 -15
0 -175 -152 -217 -207 -48 -62 -93 -133 -93 -148 0 -8 -9 -32 -20 -52 -11 -21
-20 -43 -20 -50 0 -7 -4 -13 -10 -13 -13 0 -13 -57 -1 -62 15 -5 17 -111 3
-116 -14 -4 -16 -62 -2 -62 6 0 10 -11 10 -24 0 -14 6 -31 14 -38 7 -8 17 -25
20 -38 16 -53 40 -94 80 -135 22 -24 59 -64 81 -90 37 -44 173 -145 195 -145
13 0 89 -40 96 -51 3 -5 15 -9 28 -9 12 0 40 -13 62 -28 33 -25 49 -29 104
-29 64 -1 150 -26 150 -44 0 -15 -105 -10 -167 7 -32 9 -76 19 -99 23 -22 4
-55 17 -71 29 -17 12 -38 22 -47 22 -15 0 -31 7 -76 31 -8 5 -29 16 -47 24
-17 9 -39 25 -49 36 -9 10 -21 19 -26 19 -28 0 -228 231 -228 263 0 8 -6 20
-14 26 -8 7 -17 35 -21 64 -4 29 -11 57 -15 62 -25 34 -30 243 -6 280 9 13 16
37 16 53 0 15 9 45 20 67 11 22 20 43 20 48 0 4 19 33 43 64 23 30 48 64 56
75 27 37 66 74 139 132 40 32 86 70 101 85 18 17 45 31 70 35 23 3 44 13 47
21 4 8 17 15 31 15 13 0 31 7 39 15 9 8 29 15 45 15 17 0 37 7 45 15 17 17 74
21 74 5z m653 -69 c8 -6 36 -14 63 -18 26 -3 59 -12 74 -20 14 -7 33 -13 42
-13 21 0 188 -87 230 -120 52 -41 112 -94 131 -115 52 -58 117 -160 117 -184
0 -15 5 -32 11 -38 16 -16 16 -218 0 -268 -37 -114 -121 -235 -227 -325 -228
-197 -491 -279 -849 -266 -227 8 -295 25 -488 122 -135 67 -135 67 -230 161
-96 95 -139 177 -157 300 -32 215 72 412 315 595 86 64 230 138 271 138 10 0
32 7 48 15 15 8 39 15 53 15 13 0 33 5 44 11 38 20 145 28 341 25 127 -2 203
-8 211 -15z m-805 -4533 c47 -38 51 -48 18 -48 -31 0 -76 36 -76 61 0 27 12
24 58 -13z"/>
<path d="M8225 7349 c-22 -6 -58 -15 -80 -20 -22 -6 -58 -14 -80 -19 -22 -5
-59 -13 -82 -19 -24 -6 -62 -16 -85 -22 -24 -6 -61 -14 -83 -18 -22 -4 -50
-13 -62 -19 -12 -7 -33 -12 -47 -12 -13 0 -37 -6 -53 -14 -15 -8 -55 -22 -88
-31 -33 -9 -73 -23 -88 -31 -16 -8 -36 -14 -45 -14 -21 0 -108 -27 -145 -46
-16 -8 -40 -14 -53 -14 -14 0 -52 -13 -86 -30 -33 -16 -68 -30 -77 -30 -9 0
-26 -7 -37 -15 -10 -8 -26 -15 -35 -15 -16 0 -136 -48 -192 -76 -16 -8 -37
-14 -47 -14 -9 0 -23 -7 -30 -15 -7 -8 -22 -15 -34 -15 -11 -1 -32 -7 -46 -15
-14 -8 -35 -14 -46 -15 -12 0 -27 -7 -34 -15 -7 -8 -25 -15 -40 -15 -15 0 -46
-13 -68 -30 -23 -16 -46 -30 -51 -30 -8 0 -130 -57 -171 -80 -8 -4 -46 -22
-85 -39 -38 -17 -77 -36 -85 -41 -8 -5 -51 -27 -95 -50 -44 -22 -98 -52 -120
-65 -22 -13 -52 -27 -67 -30 -14 -3 -38 -17 -53 -31 -14 -13 -29 -24 -32 -24
-4 0 -39 -20 -79 -45 -39 -25 -75 -45 -79 -45 -10 0 -119 -73 -123 -82 -2 -5
-9 -8 -15 -8 -7 0 -52 -27 -100 -60 -49 -33 -93 -60 -98 -60 -6 0 -54 -33
-107 -73 -53 -40 -125 -90 -159 -111 -34 -20 -79 -54 -100 -74 -21 -20 -61
-52 -89 -72 -49 -33 -101 -74 -183 -146 -20 -17 -65 -52 -101 -79 -61 -47
-128 -110 -153 -145 -7 -9 -27 -27 -46 -41 -34 -25 -116 -107 -213 -214 -30
-33 -66 -73 -81 -89 -28 -30 -28 -46 1 -46 20 0 77 20 109 38 31 17 186 149
196 167 4 8 14 15 22 15 8 0 19 9 24 19 6 10 53 56 106 100 52 45 105 91 118
102 46 43 168 139 189 150 13 7 27 18 31 25 4 8 13 14 20 14 6 0 28 17 48 38
38 39 143 117 246 183 34 21 64 43 68 49 3 6 23 19 43 30 20 11 64 40 97 65
33 25 91 62 129 82 38 21 79 44 92 51 13 7 24 17 24 21 0 5 20 16 44 25 24 9
47 24 50 31 3 8 13 15 23 15 9 0 28 11 42 24 15 14 60 39 101 56 41 18 91 44
110 59 19 15 55 35 80 46 25 10 65 32 89 47 24 16 58 32 75 35 17 3 45 16 61
29 17 12 71 41 120 64 50 23 122 57 160 76 39 19 80 34 92 34 12 0 25 5 28 10
9 15 95 54 102 47 3 -4 23 3 44 13 21 11 48 20 59 20 12 0 42 9 67 21 25 11
47 18 50 15 3 -3 -10 -21 -30 -41 -28 -28 -43 -35 -75 -35 -25 0 -62 -12 -106
-35 -36 -19 -73 -32 -81 -29 -8 4 -31 -6 -49 -20 -19 -14 -41 -26 -49 -26 -8
0 -25 -8 -38 -18 -33 -24 -68 -39 -108 -46 -19 -4 -49 -17 -67 -31 -18 -14
-42 -25 -53 -25 -11 0 -25 -9 -31 -20 -6 -11 -16 -18 -21 -14 -6 3 -18 -1 -27
-9 -9 -9 -28 -20 -42 -26 -14 -6 -32 -15 -40 -19 -40 -23 -61 -32 -74 -32 -8
0 -21 -6 -29 -14 -7 -8 -40 -28 -73 -44 -33 -17 -66 -37 -73 -46 -7 -8 -26
-18 -44 -22 -17 -3 -39 -17 -49 -29 -10 -13 -30 -26 -45 -30 -16 -3 -42 -17
-60 -31 -17 -13 -38 -24 -46 -24 -7 0 -27 -13 -43 -30 -16 -16 -36 -30 -45
-30 -8 0 -38 -16 -65 -35 -27 -19 -54 -35 -60 -35 -6 0 -23 -13 -37 -30 -15
-16 -33 -30 -41 -30 -8 0 -16 -7 -20 -15 -3 -8 -12 -15 -20 -15 -28 0 -71 -28
-123 -82 -9 -9 -22 -14 -29 -11 -8 3 -18 -5 -23 -20 -7 -16 -20 -27 -41 -32
-17 -4 -38 -18 -46 -31 -9 -13 -23 -24 -31 -24 -9 0 -30 -15 -48 -32 -18 -18
-52 -46 -74 -63 -44 -31 -171 -132 -232 -184 -20 -17 -41 -31 -46 -31 -5 0
-32 -24 -60 -52 -29 -29 -89 -87 -134 -128 -45 -41 -103 -96 -129 -122 -27
-27 -53 -48 -59 -48 -6 0 -15 -9 -21 -21 -13 -23 -69 -79 -81 -79 -4 0 -11 -9
-14 -21 -4 -11 -18 -24 -31 -29 -14 -6 -27 -16 -30 -23 -2 -7 -66 -76 -140
-152 -75 -77 -148 -155 -163 -174 -14 -19 -42 -51 -61 -71 -19 -20 -66 -78
-105 -129 -38 -51 -81 -103 -93 -115 -13 -11 -33 -37 -43 -56 -29 -51 -118
-165 -186 -238 -7 -7 -13 -19 -13 -27 0 -7 -6 -15 -14 -18 -7 -3 -48 -57 -89
-119 -42 -63 -85 -124 -96 -137 -12 -13 -21 -29 -21 -36 0 -6 -11 -22 -25 -35
-14 -13 -25 -31 -25 -40 0 -9 -9 -25 -20 -35 -11 -10 -20 -22 -20 -28 0 -5
-14 -30 -32 -56 -88 -128 -110 -165 -120 -194 -6 -18 -18 -41 -27 -52 -27 -33
-56 -78 -74 -115 -10 -19 -27 -48 -37 -65 -11 -16 -24 -40 -30 -53 -5 -13 -21
-38 -34 -55 -12 -18 -58 -102 -100 -187 -43 -85 -83 -162 -90 -170 -14 -17
-81 -171 -92 -210 -3 -14 -22 -48 -40 -77 -19 -28 -34 -63 -34 -77 0 -16 -6
-26 -14 -26 -9 0 -17 -15 -21 -40 -4 -22 -11 -42 -16 -46 -5 -3 -9 -14 -9 -24
0 -10 -6 -25 -14 -32 -7 -8 -17 -28 -21 -46 -3 -17 -11 -34 -16 -38 -14 -8
-39 -73 -39 -99 0 -12 -9 -34 -20 -48 -11 -14 -20 -30 -20 -36 0 -6 -4 -11
-10 -11 -5 0 -10 -22 -10 -48 0 -38 -6 -57 -30 -88 -21 -28 -30 -51 -30 -79 0
-26 -11 -58 -30 -90 -16 -27 -30 -59 -30 -70 0 -11 -6 -32 -14 -46 -7 -14 -17
-48 -21 -75 -4 -27 -11 -54 -15 -59 -12 -15 -41 -145 -34 -156 3 -5 -4 -21
-15 -35 -11 -14 -23 -42 -27 -62 -4 -19 -13 -46 -20 -60 -8 -15 -11 -43 -7
-71 4 -38 2 -49 -16 -65 -17 -15 -21 -31 -21 -81 0 -34 -5 -66 -12 -73 -9 -9
-9 -15 0 -24 7 -7 12 -26 12 -43 0 -18 3 -34 6 -38 13 -13 34 7 34 32 0 14 9
40 19 57 11 18 23 54 26 80 4 27 11 54 15 59 4 6 10 32 14 59 3 26 12 69 20
95 8 25 23 73 32 106 9 33 20 68 25 77 9 18 21 62 39 143 18 78 43 158 57 180
7 11 13 27 13 36 0 10 8 32 17 51 30 61 33 68 33 85 0 10 6 29 13 43 7 14 23
57 36 95 12 39 29 85 37 102 8 18 21 47 29 65 8 18 25 58 39 89 14 30 34 80
46 110 11 30 32 78 45 107 14 29 25 56 25 60 1 4 9 25 20 47 11 22 19 45 20
51 0 6 7 17 15 24 8 7 15 21 15 31 0 17 50 127 88 194 10 17 29 55 42 85 14
30 51 98 82 151 32 53 58 100 58 104 0 4 10 21 22 38 25 34 39 58 78 134 13
26 34 62 46 78 12 17 25 40 28 52 4 11 13 24 21 27 8 3 15 12 15 21 0 9 25 52
56 97 31 45 60 91 65 103 13 28 27 49 82 130 99 145 183 264 200 283 9 10 17
22 17 26 0 4 17 28 38 54 21 26 46 59 57 74 40 53 149 192 164 209 9 9 48 58
86 109 74 98 85 111 242 284 103 114 237 251 270 276 11 8 114 106 229 217
115 111 232 219 260 240 28 21 58 45 66 53 9 8 31 26 49 40 19 14 49 39 69 56
50 43 308 236 353 263 20 12 37 26 37 30 0 3 20 17 45 31 25 14 45 28 45 32 0
4 17 15 38 25 20 9 69 38 107 64 39 25 108 70 155 100 47 30 94 60 105 67 11
6 27 15 35 19 8 3 59 33 113 65 54 32 102 58 107 58 5 0 25 11 45 24 34 23
237 125 495 249 117 56 265 117 282 117 5 0 39 14 75 30 35 17 69 30 75 30 5
0 22 6 36 13 49 25 97 45 162 67 36 12 89 33 118 46 29 13 59 24 67 24 8 0 29
6 47 14 45 20 133 46 153 46 9 0 29 6 43 14 32 17 124 46 147 46 9 0 29 6 43
14 33 18 113 43 167 52 22 4 45 10 50 14 6 4 30 11 55 15 25 4 57 14 72 21 15
8 36 14 48 14 22 0 100 40 100 52 0 16 -24 19 -75 7 -43 -9 -58 -10 -67 -1
-13 13 -64 16 -70 5 -13 -30 -174 -64 -233 -49 -40 10 -19 26 34 26 33 0 56 6
74 20 16 13 40 20 68 20 24 0 63 10 88 22 26 12 72 24 106 26 33 2 66 9 72 14
19 15 114 0 151 -22 40 -25 55 -62 49 -118 -6 -54 -49 -102 -125 -139 -29 -14
-55 -29 -57 -33 -7 -11 -102 -60 -117 -60 -7 0 -30 -13 -51 -29 -21 -16 -66
-39 -100 -51 -34 -13 -69 -29 -77 -35 -8 -7 -46 -30 -85 -50 -38 -21 -88 -48
-110 -61 -22 -13 -56 -31 -74 -40 -19 -9 -71 -40 -116 -70 -45 -30 -89 -54
-98 -54 -9 0 -20 -6 -24 -14 -4 -7 -26 -23 -48 -35 -22 -12 -65 -37 -95 -56
-30 -19 -74 -43 -97 -54 -23 -11 -66 -36 -95 -55 -29 -20 -58 -36 -65 -36 -7
0 -20 -11 -29 -25 -9 -14 -24 -25 -34 -25 -10 0 -23 -7 -31 -16 -7 -8 -30 -25
-52 -37 -56 -31 -68 -39 -108 -69 -20 -16 -40 -28 -46 -28 -5 0 -22 -13 -39
-29 -16 -15 -48 -38 -71 -50 -24 -12 -43 -25 -43 -30 0 -5 -13 -14 -29 -19
-17 -6 -40 -22 -52 -36 -13 -14 -26 -26 -30 -26 -13 0 -144 -87 -158 -104 -8
-9 -18 -16 -23 -16 -10 0 -166 -123 -203 -160 -12 -11 -26 -20 -32 -20 -7 0
-24 -16 -39 -36 -15 -19 -40 -42 -55 -49 -15 -8 -47 -35 -72 -60 -25 -25 -49
-45 -54 -45 -4 0 -24 -16 -43 -35 -19 -20 -55 -52 -80 -71 -50 -38 -166 -144
-268 -244 -37 -36 -112 -105 -167 -152 -90 -78 -193 -183 -345 -353 -30 -33
-62 -67 -71 -75 -9 -8 -47 -53 -85 -100 -37 -47 -72 -86 -76 -88 -4 -2 -8 -9
-8 -16 0 -6 -32 -48 -71 -91 -39 -44 -83 -97 -98 -119 -25 -38 -49 -72 -103
-154 -15 -22 -33 -44 -40 -49 -18 -11 -48 -59 -48 -75 0 -8 -12 -25 -27 -39
-25 -22 -40 -46 -101 -156 -7 -12 -17 -23 -23 -23 -5 0 -9 -6 -9 -13 0 -8 -19
-43 -42 -78 -23 -35 -56 -90 -73 -121 -52 -99 -191 -380 -216 -438 -13 -30
-33 -66 -45 -80 -12 -14 -24 -43 -27 -64 -4 -22 -17 -62 -31 -90 -13 -28 -34
-85 -46 -126 -13 -41 -29 -84 -36 -95 -7 -11 -18 -49 -24 -85 -6 -36 -20 -85
-30 -110 -26 -67 -38 -115 -51 -213 -7 -56 -16 -90 -26 -95 -10 -6 -15 -35
-19 -103 -5 -89 -8 -96 -40 -136 -39 -48 -62 -58 -110 -48 -39 7 -48 35 -10
35 35 0 113 87 122 136 3 22 11 45 17 52 5 7 9 47 8 89 -2 62 0 75 12 70 16
-6 27 30 27 85 0 16 5 38 10 48 6 11 12 42 13 70 2 28 8 55 14 58 6 4 14 26
18 49 4 24 11 45 16 49 5 3 9 23 9 45 0 28 4 39 15 39 11 0 15 12 15 46 0 34
8 60 30 96 17 26 30 61 30 76 0 15 6 36 14 47 7 11 17 35 21 53 3 17 11 32 16
32 5 0 9 9 9 21 0 11 13 37 29 57 16 20 31 54 34 74 3 21 17 53 31 71 14 19
26 39 26 45 0 5 18 42 40 81 22 39 40 79 40 89 0 11 6 25 14 31 7 6 32 48 56
93 23 45 55 99 71 121 16 22 29 44 29 50 0 5 14 25 30 44 17 18 30 39 30 46 0
8 14 26 30 42 17 16 30 36 30 44 0 9 14 31 30 50 17 18 30 40 30 47 0 7 6 17
14 21 19 10 69 79 95 132 12 23 30 47 41 53 11 7 20 18 20 25 0 7 28 47 63 90
34 43 69 90 79 104 9 14 35 43 58 65 23 21 48 50 55 64 7 14 32 43 54 65 22
22 40 45 41 52 0 6 8 14 18 17 10 4 32 24 48 47 32 45 348 369 359 369 4 0 33
26 65 58 32 31 88 84 125 117 36 33 76 71 88 84 55 59 149 141 163 141 5 0 22
19 39 41 20 27 35 39 47 36 12 -4 24 6 39 29 11 19 27 34 35 34 8 0 43 27 77
61 34 33 74 67 90 75 15 8 27 18 27 22 0 4 14 16 30 26 17 10 49 35 71 57 22
21 44 39 49 39 21 0 169 105 179 127 6 13 19 23 31 23 11 0 23 6 26 14 3 8 22
22 41 31 49 23 246 156 256 172 4 7 14 13 22 13 8 0 29 14 47 30 18 17 38 30
44 30 6 0 23 9 37 20 14 11 30 20 37 20 6 0 30 15 53 33 23 19 58 43 77 55 19
11 41 30 48 41 8 15 23 21 45 21 24 0 41 9 62 30 16 17 37 30 46 30 10 0 30
11 46 24 15 13 38 26 51 30 12 4 22 12 22 17 0 5 6 9 14 9 7 0 19 7 26 15 7 8
20 15 30 15 9 0 35 13 57 29 22 16 49 32 61 35 12 4 22 11 22 16 0 4 8 10 18
14 9 3 24 10 32 16 8 5 26 15 40 20 14 6 48 24 75 40 28 16 77 43 111 60 33
16 69 39 79 50 10 11 27 20 37 20 11 0 33 13 48 29 16 16 42 32 57 35 42 10
93 39 93 53 0 7 11 15 24 19 14 3 27 12 30 20 3 8 11 14 18 14 19 0 93 73 79
78 -11 4 -61 -15 -103 -38 -10 -6 -25 -10 -34 -10 -9 0 -28 -9 -43 -19 -15
-11 -54 -31 -86 -46 -33 -15 -76 -34 -95 -42 -19 -9 -49 -27 -66 -40 -17 -12
-34 -23 -39 -23 -4 0 -30 -13 -57 -30 -26 -16 -54 -30 -62 -30 -7 0 -19 -7
-26 -15 -7 -9 -33 -25 -57 -36 -37 -17 -193 -106 -243 -139 -8 -6 -27 -15 -42
-21 -16 -6 -28 -15 -28 -20 0 -5 -6 -9 -13 -9 -8 0 -33 -13 -55 -30 -23 -16
-44 -30 -48 -30 -3 0 -65 -36 -137 -80 -73 -45 -141 -86 -152 -93 -11 -7 -36
-24 -56 -39 -20 -16 -39 -28 -43 -28 -3 0 -40 -24 -81 -52 -42 -29 -86 -58
-98 -65 -27 -15 -43 -26 -118 -80 -33 -24 -63 -43 -67 -43 -4 0 -17 -7 -27
-15 -11 -8 -51 -37 -90 -65 -91 -64 -172 -124 -240 -177 -30 -24 -58 -43 -61
-43 -3 0 -36 -26 -73 -58 -36 -32 -79 -68 -94 -79 -15 -12 -55 -45 -89 -75
-81 -70 -154 -132 -202 -171 -22 -18 -75 -67 -117 -109 -43 -43 -81 -78 -85
-78 -8 0 -144 -129 -334 -317 -108 -106 -254 -260 -318 -337 -24 -28 -61 -71
-83 -96 -21 -25 -57 -67 -80 -95 -22 -27 -51 -61 -63 -75 -24 -27 -114 -149
-186 -255 -25 -36 -66 -94 -92 -130 -27 -35 -48 -66 -48 -69 0 -2 -39 -61 -86
-131 -47 -70 -90 -137 -95 -149 -10 -23 -21 -42 -62 -99 -15 -22 -27 -48 -27
-58 0 -10 -5 -21 -10 -24 -6 -3 -19 -27 -30 -53 -12 -26 -25 -54 -30 -62 -22
-37 -190 -388 -190 -397 0 -5 -32 -78 -51 -115 -5 -10 -9 -26 -9 -35 0 -10 -7
-31 -16 -48 -23 -43 -54 -143 -54 -174 0 -15 -5 -32 -10 -37 -11 -11 -53 -161
-72 -259 -6 -27 -14 -59 -19 -70 -4 -11 -11 -42 -14 -70 -4 -27 -13 -74 -21
-104 -7 -29 -13 -76 -12 -103 0 -27 -2 -51 -5 -55 -3 -3 -32 -7 -64 -9 -63 -5
-121 -18 -168 -39 -16 -8 -46 -17 -65 -21 -19 -3 -41 -10 -50 -15 -8 -4 -40
-20 -70 -33 -96 -45 -155 -81 -276 -173 -38 -29 -91 -69 -119 -90 -66 -50
-235 -214 -235 -227 0 -6 -30 -40 -66 -76 -36 -36 -77 -76 -90 -90 -14 -14
-66 -79 -115 -145 -50 -66 -99 -131 -110 -144 -11 -13 -31 -45 -45 -70 -13
-25 -33 -59 -44 -76 -21 -33 -50 -86 -50 -92 0 -35 173 129 218 207 15 25 30
46 34 48 4 2 37 45 74 95 63 86 177 207 196 207 4 0 8 9 8 20 0 13 10 24 25
30 14 5 25 15 25 22 1 17 46 68 60 68 6 0 16 11 22 25 6 14 15 25 19 25 5 0
30 20 56 45 84 80 90 85 100 85 5 0 18 9 29 21 18 20 100 79 110 79 3 0 32 18
65 40 33 22 66 40 72 40 6 0 26 14 43 31 27 26 42 32 84 34 29 1 55 6 59 11
15 22 81 43 141 46 74 3 97 -13 33 -24 -23 -3 -55 -14 -72 -22 -16 -9 -43 -16
-59 -16 -15 0 -32 -4 -37 -9 -6 -5 -28 -14 -49 -21 -60 -19 -173 -85 -251
-146 -38 -29 -83 -64 -100 -76 -16 -13 -39 -33 -51 -45 -12 -13 -28 -23 -35
-23 -8 0 -21 -10 -29 -21 -14 -21 -44 -51 -72 -75 -7 -6 -58 -60 -113 -120
-55 -59 -115 -123 -132 -141 -18 -17 -33 -36 -33 -42 0 -6 -15 -28 -34 -48
-18 -21 -36 -48 -40 -60 -4 -12 -15 -25 -24 -28 -9 -3 -26 -19 -37 -35 -11
-16 -58 -80 -105 -142 -47 -62 -93 -125 -102 -139 -23 -36 -103 -73 -141 -65
-47 10 -92 50 -105 94 -14 46 -16 152 -3 152 5 0 11 10 14 22 3 13 12 50 21
83 8 33 15 76 16 95 0 20 4 40 10 46 11 11 27 78 39 159 4 28 12 59 18 70 17
32 69 193 88 275 9 41 23 89 31 107 8 17 14 36 14 42 0 11 24 69 46 113 8 14
14 35 14 45 0 26 30 114 45 133 6 8 17 35 24 60 7 25 21 63 31 85 71 161 89
205 100 240 7 21 23 63 36 92 24 54 29 122 15 187 -7 34 -31 48 -31 18 0 -11
-7 -25 -15 -32 -8 -7 -15 -19 -15 -27 0 -7 -7 -16 -15 -19 -8 -4 -15 -13 -15
-21 0 -8 -7 -27 -15 -41 -8 -15 -19 -38 -25 -52 -5 -14 -14 -32 -19 -40 -5 -8
-17 -33 -26 -55 -10 -22 -24 -53 -31 -68 -8 -16 -14 -34 -14 -42 0 -7 -7 -18
-15 -25 -8 -7 -15 -19 -15 -28 0 -8 -14 -44 -30 -79 -17 -34 -30 -70 -30 -78
0 -15 -21 -68 -46 -117 -8 -14 -14 -36 -14 -48 0 -21 -5 -32 -44 -107 -9 -17
-16 -44 -16 -60 0 -16 -5 -34 -11 -40 -16 -16 -49 -112 -49 -141 0 -25 -9 -55
-56 -192 -14 -41 -30 -95 -34 -120 -5 -25 -13 -58 -19 -73 -6 -16 -11 -42 -11
-58 0 -17 -5 -39 -10 -49 -6 -10 -14 -45 -19 -77 -5 -32 -13 -71 -19 -88 -50
-149 -53 -191 -20 -292 17 -53 33 -78 71 -115 26 -27 57 -48 68 -48 11 0 34
-7 51 -16 31 -16 49 -15 128 8 56 16 91 43 137 105 20 26 48 62 64 78 15 17
36 46 46 66 24 46 123 179 132 179 26 0 91 83 91 116 0 12 16 36 36 55 103 99
142 138 171 174 52 65 222 225 239 225 5 0 32 19 59 43 55 48 141 107 155 107
5 0 15 6 22 13 25 23 76 47 101 47 13 0 30 7 37 15 7 8 21 15 32 15 11 0 29 5
41 11 27 15 162 49 194 49 49 0 136 59 176 118 26 39 28 49 51 229 8 61 19
120 25 131 6 12 11 38 11 59 1 21 7 49 15 63 8 14 14 39 15 56 0 17 13 68 30
114 16 46 30 94 30 108 0 27 35 108 51 118 5 3 9 15 9 27 0 29 33 124 49 140
6 6 11 19 11 30 0 15 101 237 131 287 5 8 12 22 15 30 3 8 9 22 14 30 5 8 34
65 65 125 31 61 65 124 75 140 11 17 27 44 36 60 18 33 91 147 133 208 14 21
31 46 36 55 6 9 49 70 98 135 48 65 87 122 87 128 0 12 98 138 201 260 26 30
84 99 130 154 45 55 95 111 110 125 15 14 46 48 69 75 59 71 188 202 235 238
22 17 78 68 125 113 184 178 287 273 330 305 25 19 65 52 89 74 107 97 149
133 189 164 23 18 61 51 83 72 22 21 44 39 49 39 5 0 24 14 42 30 18 17 51 43
73 58 22 15 42 30 43 35 2 4 8 7 12 7 5 0 24 14 42 30 18 17 39 30 48 30 8 0
38 19 65 43 28 24 68 54 90 67 22 14 50 33 62 44 23 19 40 30 109 65 22 11 53
34 70 50 16 16 47 39 69 51 58 31 76 42 115 71 19 15 53 36 75 48 22 12 65 40
95 61 30 22 60 40 67 40 7 0 31 12 55 28 24 15 52 32 63 39 124 75 161 98 163
105 2 4 12 8 22 8 9 0 23 7 30 15 7 8 16 15 21 15 5 0 28 12 52 27 23 15 65
38 92 52 28 13 52 27 55 31 3 3 25 17 50 29 93 47 148 77 161 88 26 20 132 73
147 73 9 0 23 6 31 14 17 15 77 49 186 106 120 63 139 78 174 130 33 49 35 54
35 144 0 91 -1 93 -36 140 -61 79 -105 101 -228 111 -25 2 -63 -1 -85 -6z
m-465 -258 c0 -5 9 -11 21 -14 13 -3 18 -10 14 -17 -4 -7 -18 -9 -32 -5 -15 3
-34 0 -47 -9 -12 -8 -40 -14 -61 -13 -22 1 -40 -4 -43 -11 -2 -7 -13 -12 -23
-12 -11 0 -34 -7 -52 -16 -17 -9 -54 -18 -81 -19 -28 -2 -52 -8 -54 -14 -2 -6
-9 -11 -15 -11 -7 0 -24 -6 -38 -14 -14 -7 -47 -16 -73 -20 -36 -6 -46 -11
-44 -24 3 -19 -29 -29 -44 -14 -14 14 -1 49 20 57 9 3 48 13 86 21 37 8 80 21
95 29 31 17 130 45 159 45 11 0 25 6 31 14 7 8 33 20 59 26 26 6 61 15 77 20
41 11 45 11 45 1z m-601 -217 c-17 -16 -139 -64 -164 -64 -8 0 -15 7 -15 14 0
9 22 22 58 32 31 10 61 21 67 26 5 4 23 8 39 8 28 0 29 -1 15 -16z"/>
<path d="M3054 4147 c-40 -13 -66 -29 -77 -46 -10 -14 -28 -41 -42 -60 -37
-50 -33 -83 18 -142 44 -51 74 -62 97 -34 7 8 18 15 24 15 7 0 31 19 54 43 33
33 47 59 62 112 24 84 24 85 5 85 -8 0 -15 -4 -15 -9 0 -5 -19 -29 -42 -54
-24 -25 -54 -63 -68 -85 -43 -70 -90 -80 -90 -21 0 30 4 35 82 104 34 31 88
97 88 108 0 11 -32 6 -96 -16z"/>
</g>
</svg>
