<?xml version="1.0" standalone="no"?>
<!DOCTYPE svg PUBLIC "-//W3C//DTD SVG 20010904//EN"
 "http://www.w3.org/TR/2001/REC-SVG-20010904/DTD/svg10.dtd">
<svg version="1.0" xmlns="http://www.w3.org/2000/svg"
 width="300.000000pt" height="322.000000pt" viewBox="0 0 300.000000 322.000000"
 preserveAspectRatio="xMidYMid meet">
<metadata>
Created by potrace 1.10, written by Peter Selinger 2001-2011
</metadata>
<g transform="translate(0.000000,322.000000) scale(0.100000,-0.100000)"
fill="#000000" stroke="none">
<path d="M1398 3119 c-28 -16 -36 -38 -58 -170 -32 -189 -83 -389 -138 -539
-46 -127 -159 -365 -216 -455 -23 -37 -25 -38 -26 -15 -1 41 -35 102 -81 147
-118 113 -326 142 -513 72 -67 -24 -167 -112 -199 -173 -26 -51 -29 -172 -4
-226 56 -124 279 -222 433 -191 32 6 59 9 62 7 2 -3 -36 -35 -84 -73 -138
-107 -146 -116 -192 -205 -101 -199 -126 -458 -65 -685 16 -61 42 -83 93 -83
32 0 47 12 173 140 75 76 137 138 137 137 0 -2 -8 -21 -19 -43 -103 -217 -210
-565 -196 -640 9 -53 60 -83 110 -64 27 10 49 33 94 100 13 19 30 39 38 43 8
5 17 17 21 27 14 38 148 165 224 213 15 9 60 26 100 37 81 22 104 42 113 98
43 283 189 571 428 847 259 299 587 547 1062 803 77 41 145 82 152 91 16 21
16 82 -1 104 -30 39 -64 40 -209 3 -321 -83 -665 -237 -932 -420 -167 -114
-403 -327 -370 -334 16 -4 54 22 113 77 104 97 277 225 428 316 151 91 448
226 428 194 -3 -5 -13 -9 -22 -9 -10 0 -29 -8 -42 -17 -14 -10 -27 -17 -30
-16 -7 2 -60 -22 -155 -70 -44 -23 -90 -46 -102 -51 -13 -6 -23 -14 -23 -18 0
-5 -5 -8 -10 -8 -6 0 -29 -12 -53 -27 -117 -74 -153 -98 -163 -108 -7 -5 -44
-35 -85 -65 -135 -103 -348 -313 -450 -446 -128 -167 -151 -200 -235 -336 -86
-142 -180 -322 -223 -433 -13 -33 -28 -64 -33 -69 -4 -6 -8 -19 -8 -31 0 -12
-4 -25 -8 -31 -10 -10 -50 -137 -55 -169 -1 -11 -6 -25 -10 -31 -11 -19 -33
-137 -29 -157 3 -16 6 -15 17 7 7 14 19 51 25 83 36 171 181 532 290 719 183
315 326 499 550 710 193 182 389 319 627 438 175 88 435 186 601 227 29 7 57
18 63 25 9 12 -4 11 -106 -1 -31 -4 -25 0 25 15 88 26 136 26 150 -1 19 -34
-9 -60 -141 -128 -68 -35 -136 -72 -151 -82 -14 -11 -29 -19 -33 -19 -3 0 -26
-13 -50 -30 -24 -16 -47 -30 -50 -30 -15 0 -329 -216 -371 -255 -6 -5 -35 -30
-64 -55 -169 -141 -293 -266 -401 -400 -92 -116 -109 -139 -109 -149 0 -6 -4
-11 -8 -11 -5 0 -14 -10 -21 -22 -6 -13 -20 -36 -31 -53 -67 -101 -200 -418
-200 -478 0 -12 -5 -29 -10 -37 -12 -19 -12 -7 1 50 39 176 129 377 243 545
33 50 63 92 66 95 3 3 19 25 35 49 45 67 309 331 436 436 88 72 409 295 425
295 3 0 18 8 32 19 28 19 67 42 162 94 30 17 67 38 82 49 14 10 30 18 36 18
11 0 80 60 69 60 -23 0 -236 -115 -422 -230 -303 -186 -592 -428 -788 -660
-220 -260 -391 -600 -423 -839 -6 -47 -6 -47 -57 -59 -108 -26 -218 -101 -329
-228 -62 -70 -138 -174 -138 -188 0 -18 35 15 79 73 128 172 309 311 406 311
11 0 -9 -11 -46 -23 -36 -12 -85 -38 -110 -56 -71 -55 -190 -180 -249 -263
-30 -42 -63 -80 -73 -83 -45 -16 -78 30 -59 84 5 14 15 51 22 81 20 88 68 235
122 373 44 112 49 131 39 154 -9 20 -17 24 -36 20 -33 -6 -31 0 16 53 116 131
235 304 245 357 5 27 2 39 -16 58 l-22 23 87 87 c47 48 133 143 190 211 95
114 104 122 107 96 3 -25 7 -22 49 43 163 247 234 502 232 836 -2 196 -33 438
-66 504 -21 42 -78 58 -119 34z m80 -57 c3 -11 0 -12 -18 -2 -18 9 -25 8 -41
-6 -21 -19 -27 -6 -7 14 16 16 60 11 66 -6z m2 -212 c51 -330 7 -666 -121
-921 -117 -235 -246 -385 -617 -723 -83 -76 -152 -140 -152 -142 0 -18 309
178 332 210 4 6 9 8 12 5 11 -11 -59 -138 -123 -224 -71 -94 -232 -274 -344
-383 l-65 -64 -13 54 c-9 34 -14 111 -14 213 0 148 3 167 29 250 45 144 83
203 179 276 402 308 641 693 782 1259 44 178 50 206 60 295 4 28 9 61 12 75 5
23 7 22 14 -14 5 -21 18 -96 29 -166z m1114 -488 c2 -4 -5 -9 -16 -9 -12 -1
-33 -6 -47 -11 -14 -5 -46 -16 -71 -23 -25 -7 -49 -18 -53 -24 -5 -6 -7 -5 -5
4 2 7 42 26 88 42 97 32 97 32 104 21z m-204 -66 c0 -2 -13 -9 -30 -15 -35
-12 -41 -5 -7 9 25 10 37 12 37 6z m-1745 -145 c3 -6 -17 -7 -49 -4 -30 3 -68
1 -86 -6 -28 -9 -31 -9 -20 4 14 17 145 22 155 6z m75 -21 c11 -8 7 -9 -15 -4
-37 8 -45 14 -19 14 10 0 26 -5 34 -10z m70 -31 c56 -34 90 -70 120 -130 29
-57 48 -73 75 -63 8 4 15 2 15 -3 0 -25 -114 -167 -209 -263 -86 -86 -106
-101 -109 -85 -6 28 -32 55 -54 55 -33 0 -19 19 20 26 60 11 134 50 181 96 55
55 69 82 76 154 6 55 5 62 -27 109 -18 27 -57 66 -87 87 -58 41 -59 52 -1 17z
m-440 -7 c-93 -63 -163 -161 -153 -214 3 -14 0 -29 -6 -32 -20 -13 -12 57 13
110 13 29 41 67 61 85 21 19 43 39 50 45 10 10 34 20 55 22 3 1 -6 -7 -20 -16z
m348 3 c62 -19 143 -81 165 -128 47 -99 -10 -212 -139 -278 -97 -49 -248 -52
-349 -5 -118 54 -169 135 -144 231 16 60 108 146 185 173 73 25 207 29 282 7z
m-430 -377 c23 -20 63 -47 89 -59 26 -12 42 -24 35 -27 -8 -2 -19 1 -25 7 -6
6 -18 11 -28 11 -40 0 -151 128 -148 172 0 7 8 -5 18 -27 10 -22 37 -57 59
-77z m202 -94 c0 -2 -14 -4 -31 -4 -16 0 -28 4 -25 9 5 8 56 3 56 -5z m672
-1077 c-11 -10 -25 -16 -31 -12 -8 4 -3 13 14 27 14 10 26 27 26 36 1 9 4 6 6
-7 3 -15 -3 -31 -15 -44z"/>
<path d="M1008 1379 c-29 -17 -40 -46 -26 -69 7 -11 19 -20 26 -20 21 0 62 47
62 71 0 19 -3 18 -27 -14 -16 -20 -31 -36 -35 -37 -16 0 -7 30 11 39 22 12 35
41 18 41 -7 0 -20 -5 -29 -11z"/>
</g>
</svg>
