<?xml version="1.0" standalone="no"?>
<!DOCTYPE svg PUBLIC "-//W3C//DTD SVG 20010904//EN"
 "http://www.w3.org/TR/2001/REC-SVG-20010904/DTD/svg10.dtd">
<svg version="1.0" xmlns="http://www.w3.org/2000/svg"
 width="300.000000pt" height="75.000000pt" viewBox="0 0 300.000000 75.000000"
 preserveAspectRatio="xMidYMid meet">
<metadata>
Created by potrace 1.10, written by Peter Selinger 2001-2011
</metadata>
<g transform="translate(0.000000,75.000000) scale(0.100000,-0.100000)"
fill="#000000" stroke="none">
<path d="M24 510 c0 -52 1 -74 3 -47 2 26 2 68 0 95 -2 26 -3 4 -3 -48z"/>
<path d="M175 576 c-48 -21 -96 -67 -116 -111 -35 -76 -19 -141 47 -191 46
-36 133 -38 188 -6 20 12 36 17 36 11 0 -16 48 -33 62 -23 12 9 59 10 166 5
28 -1 32 -4 32 -30 0 -54 49 -76 114 -51 17 6 27 6 32 -2 4 -6 25 -8 50 -5 42
4 58 13 162 87 23 16 53 30 67 30 13 0 37 12 54 26 40 33 43 79 6 96 -14 6
-25 17 -25 24 0 24 -83 34 -121 14 -15 -8 -23 -7 -35 5 -18 18 -57 20 -86 4
-15 -8 -26 -8 -44 1 -13 8 -34 10 -51 6 -15 -4 -53 -9 -83 -10 -31 -2 -66 -9
-79 -15 -23 -13 -24 -13 -17 25 4 22 9 47 12 56 8 27 -31 59 -64 52 -46 -11
-66 -38 -64 -85 2 -26 -1 -38 -8 -34 -5 3 -10 13 -10 22 0 27 -39 71 -83 92
-49 24 -98 26 -142 7z m144 -32 c34 -20 71 -73 71 -103 0 -18 5 -22 23 -19 19
3 23 10 27 58 4 49 8 56 33 64 45 16 50 1 34 -108 -14 -99 -10 -121 11 -62 7
19 20 37 30 41 37 16 80 22 95 14 9 -6 29 -3 52 7 44 18 65 13 65 -16 0 -21 0
-21 28 -2 39 28 71 36 87 22 19 -16 19 -39 0 -60 -13 -15 -13 -19 -2 -29 12
-9 16 -6 20 18 7 36 40 60 88 64 39 4 59 -7 59 -33 0 -13 6 -17 20 -13 15 4
20 0 20 -15 0 -28 -48 -65 -78 -59 -16 3 -32 -4 -49 -19 -14 -13 -31 -24 -37
-24 -6 0 -24 -14 -40 -30 -42 -43 -118 -63 -133 -35 -7 12 -15 12 -56 -3 -47
-16 -49 -16 -63 2 -16 23 -17 35 -4 56 8 13 13 13 31 2 17 -11 27 -11 50 -2
35 15 36 23 5 43 -22 15 -27 15 -65 -3 -44 -22 -91 -26 -107 -10 -7 7 -21 7
-43 -1 -27 -9 -35 -9 -48 4 -14 13 -18 13 -43 -1 -23 -14 -31 -14 -44 -3 -9 7
-16 20 -16 29 0 14 -2 14 -17 0 -117 -103 -295 -24 -254 112 12 42 68 105 105
120 35 14 116 11 145 -6z m371 -264 c0 -5 -4 -10 -10 -10 -5 0 -10 5 -10 10 0
6 5 10 10 10 6 0 10 -4 10 -10z"/>
<path d="M151 509 c-77 -55 -91 -142 -30 -193 65 -55 186 -20 228 67 26 53 26
64 2 101 -43 65 -130 76 -200 25z m144 -19 c44 -27 61 -69 43 -106 -20 -43
-73 -74 -125 -74 -56 0 -90 23 -104 69 -16 53 1 87 53 111 55 25 93 25 133 0z"/>
<path d="M173 475 c-39 -17 -56 -47 -48 -86 17 -76 144 -80 197 -4 15 21 7 47
-24 76 -36 32 -73 37 -125 14z m98 -22 c54 -32 27 -90 -48 -100 -47 -6 -76 20
-71 64 2 22 11 31 38 40 46 16 47 16 81 -4z"/>
<path d="M473 523 c-8 -2 -13 -22 -13 -44 0 -51 -15 -79 -41 -79 -41 0 -59
-18 -59 -60 0 -27 4 -40 13 -40 15 0 48 33 65 65 10 17 11 14 12 -22 0 -47 2
-48 50 -32 25 9 34 9 40 -1 5 -9 21 -11 49 -7 40 5 77 24 66 35 -2 3 -11 -1
-19 -7 -18 -15 -58 -11 -64 6 -2 7 9 18 24 24 47 17 59 49 20 49 -46 0 -76
-18 -82 -49 -6 -30 -28 -46 -46 -35 -10 7 -6 103 8 172 6 31 2 36 -23 25z
m127 -138 c0 -8 -7 -15 -16 -15 -14 0 -14 3 -4 15 7 8 14 15 16 15 2 0 4 -7 4
-15z m-180 -4 c0 -16 -12 -41 -20 -41 -4 0 -5 11 -2 25 4 23 22 36 22 16z"/>
<path d="M705 421 c-28 -12 -58 -48 -51 -60 4 -5 24 -20 46 -32 62 -35 62 -63
-1 -90 -24 -9 -36 -10 -50 -1 -16 10 -19 9 -19 -3 0 -26 26 -28 73 -7 79 35
85 81 17 126 -48 32 -53 50 -12 45 4 -1 6 -5 5 -10 -4 -11 8 -11 26 0 8 5 11
16 8 25 -7 18 -13 19 -42 7z"/>
<path d="M830 423 c-19 -7 -60 -44 -60 -54 0 -4 23 -21 50 -39 59 -38 63 -60
15 -83 -42 -20 -65 -22 -65 -5 0 9 -3 9 -12 0 -9 -9 -9 -15 0 -24 15 -15 97
16 117 45 24 34 18 52 -30 86 -37 27 -44 36 -34 47 16 19 29 18 29 -3 0 -16 1
-16 16 -1 25 25 9 44 -26 31z"/>
<path d="M937 398 c-24 -22 -46 -108 -27 -108 15 0 60 42 60 56 0 8 5 14 10
14 6 0 10 -7 10 -15 0 -21 23 -19 51 4 22 18 22 19 4 18 -14 -1 -21 5 -23 19
-3 19 -26 33 -54 34 -4 0 -18 -10 -31 -22z m23 -38 c-15 -37 -33 -40 -19 -4
13 36 20 46 26 40 3 -3 0 -19 -7 -36z"/>
<path d="M780 321 c6 -11 8 -32 4 -46 -4 -15 -2 -25 4 -25 17 0 62 22 62 30 0
4 -18 19 -41 34 -35 24 -39 25 -29 7z"/>
<path d="M1278 583 c7 -3 16 -2 19 1 4 3 -2 6 -13 5 -11 0 -14 -3 -6 -6z"/>
<path d="M1333 583 c9 -2 25 -2 35 0 9 3 1 5 -18 5 -19 0 -27 -2 -17 -5z"/>
<path d="M1888 583 c6 -2 18 -2 25 0 6 3 1 5 -13 5 -14 0 -19 -2 -12 -5z"/>
<path d="M2158 583 c29 -2 74 -2 100 0 26 2 2 3 -53 3 -55 0 -76 -1 -47 -3z"/>
<path d="M2508 583 c7 -3 16 -2 19 1 4 3 -2 6 -13 5 -11 0 -14 -3 -6 -6z"/>
<path d="M1814 562 c-6 -4 -23 -25 -38 -46 -25 -37 -26 -45 -26 -170 0 -143
10 -176 54 -176 31 0 46 19 46 59 0 32 1 33 18 18 10 -10 26 -17 35 -17 9 0
18 -4 22 -10 11 -17 141 -53 168 -46 22 5 27 12 27 39 0 37 34 67 53 48 14
-14 74 -14 82 0 5 7 14 3 26 -10 24 -25 37 -26 69 -4 14 10 38 16 58 14 67 -6
124 85 69 110 -13 6 -28 25 -33 42 -7 27 -14 32 -39 33 -17 0 -36 3 -42 7 -6
4 -24 2 -40 -4 -34 -14 -108 -15 -143 -1 -29 11 -79 -3 -87 -25 -5 -12 -8 -11
-24 2 -11 10 -25 14 -38 10 -18 -5 -19 -3 -14 28 4 28 1 37 -18 50 -21 16 -26
15 -76 -14 l-53 -30 6 31 c10 45 -29 84 -62 62z m36 -76 l0 -54 33 15 c17 9
44 24 59 35 32 22 44 23 52 3 10 -28 -15 -75 -55 -98 l-39 -24 39 -31 c22 -18
42 -32 45 -32 3 0 6 20 6 45 0 34 5 47 19 55 31 16 51 12 51 -10 0 -18 3 -19
23 -9 12 7 28 20 35 31 18 24 52 23 59 -2 6 -24 16 -25 33 -5 14 17 47 19 69
6 8 -5 24 -3 42 8 24 13 31 14 38 2 6 -10 13 -10 28 -3 26 14 43 -2 43 -40 0
-23 4 -28 25 -28 33 0 32 -23 -1 -49 -30 -24 -54 -27 -72 -9 -10 10 -16 7 -28
-10 -10 -15 -24 -22 -37 -20 -19 3 -21 8 -19 38 l4 35 -28 -28 c-36 -37 -69
-44 -94 -22 -19 17 -21 17 -40 0 -14 -12 -28 -16 -49 -12 -34 7 -54 -11 -22
-20 26 -7 31 -63 6 -63 -23 0 -165 60 -205 87 l-35 23 -5 -49 c-6 -55 -12 -66
-33 -58 -18 7 -32 152 -22 234 8 60 36 113 61 113 10 0 14 -14 14 -54z m120
-126 c0 -5 -4 -10 -10 -10 -5 0 -10 5 -10 10 0 6 5 10 10 10 6 0 10 -4 10 -10z"/>
<path d="M1812 493 c-19 -50 -24 -114 -16 -202 4 -47 9 -79 10 -71 2 8 6 37 9
63 6 48 7 48 30 33 41 -27 88 -51 154 -79 64 -28 93 -32 46 -7 -14 7 -25 17
-25 22 0 4 -6 8 -13 8 -7 0 -24 10 -37 23 -14 12 -27 22 -29 22 -2 0 -19 14
-37 32 l-33 32 40 23 c39 21 77 73 65 86 -3 3 -14 -2 -23 -10 -10 -9 -42 -28
-71 -42 l-54 -27 4 60 c3 66 -3 77 -20 34z m50 -134 c4 -25 3 -27 -16 -17 -12
6 -23 9 -26 7 -3 -2 -6 6 -8 17 -2 17 2 22 22 22 19 0 25 -7 28 -29z"/>
<path d="M2130 405 c0 -3 5 -14 12 -24 9 -15 9 -25 0 -45 -16 -36 -35 -33 -30
4 6 41 -15 39 -41 -5 -29 -49 -42 -45 -34 11 5 38 3 46 -8 42 -16 -5 -31 -98
-18 -112 6 -6 21 -1 39 12 16 13 30 18 30 12 0 -31 83 11 92 48 7 26 -9 62
-27 62 -8 0 -15 -2 -15 -5z"/>
<path d="M2313 394 c-13 -9 -27 -12 -35 -8 -27 17 -50 13 -74 -11 -28 -28 -29
-62 -2 -79 20 -12 67 17 83 52 15 34 30 20 29 -27 -1 -48 11 -49 42 -3 l21 31
11 -25 c14 -30 33 -31 58 -2 14 17 14 19 2 10 -14 -11 -18 -10 -27 7 -6 11
-11 31 -11 45 0 23 -2 25 -19 14 -11 -6 -26 -25 -35 -42 l-17 -31 6 43 c6 46
2 49 -32 26z m-55 -42 c4 -26 -24 -41 -41 -22 -9 10 -9 14 1 17 6 3 12 11 12
20 0 23 25 9 28 -15z"/>
<path d="M2567 548 c-65 -17 -82 -26 -103 -54 -21 -27 -23 -36 -14 -53 19 -36
45 -43 73 -21 18 14 26 16 29 7 7 -18 1 -134 -7 -147 -4 -6 1 -22 9 -35 13
-19 25 -25 54 -25 38 0 134 39 147 59 4 8 13 3 27 -14 32 -40 87 -35 138 13
32 32 40 46 40 75 0 29 -6 41 -30 59 -23 17 -30 30 -30 55 0 91 -152 128 -333
81z m258 -22 c44 -19 63 -56 47 -91 -16 -35 -16 -35 16 -35 20 0 33 -7 42 -25
17 -32 0 -67 -47 -96 -45 -28 -81 -19 -90 22 -5 27 -7 28 -22 15 -32 -29 -151
-78 -174 -72 -23 5 -23 7 -19 117 l5 111 -24 -7 c-13 -4 -32 -14 -41 -22 -19
-17 -48 -11 -48 10 0 26 46 57 105 71 80 19 206 20 250 2z"/>
<path d="M2599 510 c-50 -9 -109 -35 -109 -49 0 -5 17 -1 38 9 53 26 99 35 85
18 -6 -7 -13 -62 -15 -121 l-4 -109 30 6 c32 7 137 64 173 94 27 24 63 82 63
103 0 37 -37 53 -128 55 -48 2 -108 -1 -133 -6z m186 -24 c30 -13 35 -20 35
-49 0 -22 -8 -43 -24 -60 -27 -29 -109 -73 -146 -78 -24 -4 -25 -1 -24 41 0
25 4 71 8 103 l7 57 55 0 c30 0 70 -7 89 -14z"/>
<path d="M2656 443 c-3 -21 -8 -59 -12 -86 l-6 -47 27 10 c47 18 115 62 125
80 28 53 -1 80 -85 80 -42 0 -43 -1 -49 -37z m117 -3 c15 -13 -4 -35 -53 -63
-56 -31 -56 -31 -44 45 l7 38 41 -6 c22 -4 45 -10 49 -14z"/>
<path d="M2835 368 c-34 -27 -32 -81 3 -86 27 -4 85 50 80 75 -5 28 -54 34
-83 11z m55 -27 c0 -10 -7 -24 -15 -31 -21 -17 -39 1 -30 29 8 27 45 28 45 2z"/>
<path d="M1520 554 c-14 -3 -94 -14 -179 -26 -130 -18 -158 -25 -183 -46 -23
-19 -28 -32 -26 -56 4 -38 28 -43 106 -23 65 17 67 15 75 -96 3 -43 11 -85 18
-93 17 -21 93 -10 132 18 21 15 36 18 60 13 84 -17 106 -17 151 3 48 22 70 62
47 85 -6 6 -11 23 -11 38 0 31 -32 59 -65 59 -11 -1 -38 -7 -60 -15 -28 -10
-41 -11 -46 -3 -4 7 -27 9 -58 6 -28 -3 -51 -2 -51 1 0 8 20 37 20 30 0 -6
102 10 167 26 30 7 39 42 17 66 -17 18 -50 22 -114 13z m100 -39 c0 -16 -11
-20 -123 -39 -43 -7 -79 -15 -81 -17 -2 -2 -6 -25 -8 -51 -5 -46 -5 -46 16
-33 12 8 38 16 59 19 36 4 39 2 49 -26 11 -30 12 -31 19 -10 15 39 104 57 129
27 11 -13 9 -20 -10 -40 -13 -14 -30 -25 -37 -25 -8 0 -11 -5 -8 -10 4 -7 17
-4 36 7 26 16 31 16 39 3 13 -21 -16 -47 -65 -58 -43 -9 -85 0 -85 18 0 7 -6
7 -21 0 -11 -7 -28 -9 -36 -5 -9 3 -26 -4 -39 -16 -13 -12 -32 -23 -42 -24 -9
0 -23 -4 -30 -9 -23 -14 -39 13 -46 77 -4 34 -9 80 -12 103 l-6 41 -76 -18
c-78 -18 -92 -17 -92 5 0 30 39 46 160 65 218 35 310 40 310 16z"/>
<path d="M1395 494 c-44 -7 -107 -18 -139 -23 -33 -6 -67 -18 -75 -27 -15 -15
-14 -16 4 -10 11 4 42 12 70 17 27 6 59 12 70 14 18 4 20 -1 21 -43 1 -85 16
-184 25 -175 4 4 12 58 16 118 l8 109 33 8 c18 5 59 13 90 17 l57 9 -50 0
c-27 0 -86 -6 -130 -14z"/>
<path d="M1462 373 c-32 -6 -54 -45 -50 -90 l3 -38 36 36 c30 31 37 34 45 21
8 -12 14 -13 34 -2 20 11 21 13 7 22 -10 5 -17 17 -17 27 0 15 -25 37 -33 30
-1 -1 -12 -4 -25 -6z m8 -31 c0 -10 -7 -27 -16 -38 -15 -18 -15 -18 -10 6 3
14 6 31 6 38 0 6 5 12 10 12 6 0 10 -8 10 -18z"/>
<path d="M1575 356 c-42 -42 -11 -90 50 -78 30 6 30 6 5 12 -36 9 -35 33 2 50
46 22 48 40 3 40 -25 0 -43 -7 -60 -24z m53 2 c-2 -6 -10 -14 -16 -16 -7 -2
-10 2 -6 12 7 18 28 22 22 4z"/>
<path d="M1665 300 c-3 -5 -1 -10 4 -10 6 0 11 5 11 10 0 6 -2 10 -4 10 -3 0
-8 -4 -11 -10z"/>
<path d="M22 263 l-2 -113 303 2 302 3 -297 2 -297 3 -4 108 -3 107 -2 -112z"/>
<path d="M1293 163 c86 -2 228 -2 315 0 86 1 15 3 -158 3 -173 0 -244 -2 -157
-3z"/>
<path d="M1883 163 c26 -2 67 -2 90 0 23 2 2 3 -48 3 -49 0 -68 -1 -42 -3z"/>
<path d="M2338 163 c123 -2 321 -2 440 0 119 1 19 2 -223 2 -242 0 -340 -1
-217 -2z"/>
<path d="M693 153 c9 -2 25 -2 35 0 9 3 1 5 -18 5 -19 0 -27 -2 -17 -5z"/>
<path d="M883 153 c48 -2 125 -2 170 0 45 1 6 3 -88 3 -93 0 -130 -2 -82 -3z"/>
</g>
</svg>
