<?xml version="1.0" standalone="no"?>
<!DOCTYPE svg PUBLIC "-//W3C//DTD SVG 20010904//EN"
 "http://www.w3.org/TR/2001/REC-SVG-20010904/DTD/svg10.dtd">
<svg version="1.0" xmlns="http://www.w3.org/2000/svg"
 width="300.000000pt" height="162.000000pt" viewBox="0 0 300.000000 162.000000"
 preserveAspectRatio="xMidYMid meet">
<metadata>
Created by potrace 1.10, written by Peter Selinger 2001-2011
</metadata>
<g transform="translate(0.000000,162.000000) scale(0.100000,-0.100000)"
fill="#000000" stroke="none">
<path d="M5 810 c0 -448 1 -632 2 -408 2 225 2 591 0 815 -1 225 -2 41 -2
-407z"/>
<path d="M768 1613 c7 -3 16 -2 19 1 4 3 -2 6 -13 5 -11 0 -14 -3 -6 -6z"/>
<path d="M838 1613 c7 -3 16 -2 19 1 4 3 -2 6 -13 5 -11 0 -14 -3 -6 -6z"/>
<path d="M1028 1613 c7 -3 16 -2 19 1 4 3 -2 6 -13 5 -11 0 -14 -3 -6 -6z"/>
<path d="M1228 1613 c18 -2 45 -2 60 0 15 2 0 4 -33 4 -33 0 -45 -2 -27 -4z"/>
<path d="M1343 1613 c15 -2 37 -2 50 0 12 2 0 4 -28 4 -27 0 -38 -2 -22 -4z"/>
<path d="M1493 1613 c42 -2 112 -2 155 0 42 1 7 3 -78 3 -85 0 -120 -2 -77 -3z"/>
<path d="M1738 1613 c6 -2 18 -2 25 0 6 3 1 5 -13 5 -14 0 -19 -2 -12 -5z"/>
<path d="M1818 1613 c23 -2 59 -2 80 0 20 2 1 4 -43 4 -44 0 -61 -2 -37 -4z"/>
<path d="M2053 1613 c65 -2 168 -2 230 0 62 1 9 3 -118 3 -126 0 -177 -2 -112
-3z"/>
<path d="M400 1587 c-71 -25 -168 -94 -225 -159 -78 -92 -119 -228 -96 -321
29 -115 88 -188 191 -236 48 -23 68 -26 160 -26 113 0 177 18 247 71 37 28 43
29 43 10 0 -23 59 -66 89 -66 16 0 48 11 73 24 43 23 44 23 67 5 29 -23 94
-25 145 -4 33 14 41 14 93 -4 33 -11 72 -17 91 -14 l32 5 0 -55 c0 -73 12
-102 52 -128 27 -17 44 -19 93 -15 33 3 79 12 103 20 40 14 45 14 75 -4 80
-49 264 7 360 109 24 26 63 55 86 66 24 10 55 30 71 45 22 20 37 25 82 25 65
1 125 32 182 96 36 39 38 45 33 92 -5 57 -39 97 -83 97 -18 0 -24 5 -24 23 0
13 -12 34 -26 48 -22 21 -36 24 -105 26 -88 2 -131 -7 -171 -37 -20 -15 -28
-17 -28 -7 0 7 -12 24 -26 38 -36 33 -138 34 -204 2 l-44 -23 -23 22 c-37 35
-118 36 -189 4 -56 -26 -58 -26 -100 -10 -35 13 -51 14 -100 4 -33 -7 -79 -20
-103 -31 -24 -10 -44 -19 -45 -19 -6 0 21 187 27 198 13 19 -11 79 -40 102
-14 11 -40 20 -57 20 -49 0 -123 -31 -158 -67 -31 -32 -32 -35 -33 -128 -1
-53 -5 -99 -9 -102 -3 -3 -6 5 -6 19 0 53 -32 117 -88 176 -64 68 -120 99
-207 118 -85 19 -131 17 -205 -9z m223 -48 c126 -35 234 -166 226 -273 l-4
-44 50 5 c27 3 53 8 57 12 4 3 10 57 14 120 7 113 7 113 38 132 17 11 48 25
69 31 34 10 40 9 58 -8 18 -19 19 -25 8 -95 -6 -40 -12 -97 -13 -124 -2 -28
-8 -60 -14 -71 -6 -11 -13 -55 -17 -98 -5 -70 -3 -77 12 -74 12 2 20 17 24 44
13 71 43 109 107 133 93 34 135 40 171 25 17 -7 34 -20 37 -28 5 -13 11 -11
38 9 69 53 165 67 197 29 7 -8 12 -28 12 -45 0 -31 11 -38 24 -16 14 24 86 65
134 78 56 15 104 0 113 -34 13 -49 6 -77 -28 -110 l-34 -34 33 -26 33 -26 6
22 c3 12 6 32 6 45 0 39 27 78 77 110 41 26 60 31 126 34 46 3 84 0 93 -6 8
-6 17 -35 21 -63 3 -29 8 -53 10 -53 2 0 11 7 19 15 44 43 99 -28 62 -78 -25
-32 -92 -77 -130 -88 -32 -8 -44 -7 -64 6 -23 15 -25 14 -56 -20 -29 -34 -94
-75 -118 -75 -6 0 -33 -24 -60 -53 -60 -66 -127 -103 -208 -116 -72 -12 -107
-1 -116 34 l-6 22 -57 -28 c-70 -33 -159 -45 -187 -24 -24 18 -35 117 -16 140
19 22 67 19 80 -6 14 -25 49 -20 122 17 42 21 47 27 37 43 -14 21 -99 81 -117
81 -6 0 -12 -5 -12 -10 0 -21 -133 -71 -200 -77 -57 -4 -69 -2 -100 19 l-35
24 -50 -23 c-28 -12 -62 -23 -77 -23 -30 0 -68 31 -68 55 0 8 -4 15 -10 15 -5
0 -10 -4 -10 -9 0 -5 -25 -24 -56 -41 -49 -29 -58 -31 -79 -20 -26 14 -45 57
-45 100 0 27 0 26 -44 -15 -24 -24 -75 -58 -112 -76 -63 -30 -77 -34 -159 -34
-72 0 -100 5 -141 23 -129 58 -194 198 -155 337 27 98 156 235 260 276 52 21
165 25 224 8z m272 -269 c3 -5 1 -10 -4 -10 -6 0 -11 5 -11 10 0 6 2 10 4 10
3 0 8 -4 11 -10z m261 -55 c-22 -34 -29 -28 -14 13 8 20 16 28 22 22 5 -5 2
-19 -8 -35z m864 19 c0 -2 -7 -4 -15 -4 -8 0 -15 4 -15 10 0 5 7 7 15 4 8 -4
15 -8 15 -10z m-496 -315 c-6 -10 -38 -12 -47 -2 -4 3 1 12 11 19 18 13 47 0
36 -17z m-77 -6 c-3 -3 -11 -2 -17 2 -9 6 -9 10 1 16 14 8 27 -7 16 -18z m123
6 c0 -5 -4 -9 -8 -9 -5 0 -9 7 -9 15 0 8 4 12 9 9 4 -3 8 -9 8 -15z m-225 -38
c-3 -6 -11 -8 -17 -5 -6 4 -5 9 3 15 16 10 23 4 14 -10z"/>
<path d="M475 1509 c-64 -12 -91 -25 -158 -78 -103 -81 -149 -163 -148 -263 1
-182 196 -289 388 -210 162 66 288 261 242 375 -49 121 -197 201 -324 176z
m131 -30 c24 -6 44 -15 44 -20 0 -5 6 -9 13 -9 16 -1 62 -36 62 -48 0 -5 10
-18 23 -28 23 -20 47 -110 31 -120 -5 -3 -9 3 -9 13 0 25 -55 110 -80 123 -11
6 -20 8 -20 5 0 -4 -12 2 -27 12 -46 31 -81 43 -126 43 -42 -1 -146 -22 -166
-35 -6 -3 -11 -2 -11 3 0 5 14 15 30 22 17 7 30 16 30 20 0 27 129 38 206 19z
m-25 -60 c19 -7 44 -21 56 -31 12 -11 26 -18 31 -14 15 9 51 -37 71 -90 16
-42 19 -74 12 -132 -2 -18 -78 -98 -115 -121 -142 -88 -327 -56 -388 67 -26
54 -31 157 -10 207 16 40 87 83 170 106 79 21 126 23 173 8z m-377 -256 c4
-27 2 -43 -4 -43 -5 0 -10 21 -10 47 0 55 5 54 14 -4z m39 -103 c10 -16 31
-37 47 -47 17 -9 30 -21 30 -25 0 -4 15 -12 33 -17 22 -6 26 -9 11 -10 -12 -1
-38 13 -59 29 -21 17 -40 28 -43 26 -8 -9 -34 23 -27 34 3 5 -1 10 -9 10 -9 0
-16 7 -16 15 0 24 14 18 33 -15z"/>
<path d="M420 1374 c-119 -32 -160 -76 -160 -168 1 -179 221 -248 382 -119 25
21 52 49 59 61 27 49 2 166 -39 178 -18 6 -26 10 -77 44 -35 24 -87 25 -165 4z
m159 -62 c13 -9 33 -22 44 -29 28 -16 37 -33 37 -75 0 -30 -7 -42 -41 -72 -85
-72 -198 -84 -261 -27 -24 22 -33 39 -38 78 -8 69 2 90 55 114 91 40 157 44
204 11z"/>
<path d="M1063 1477 c-18 -7 -36 -16 -41 -22 -5 -5 -12 -56 -15 -112 -8 -141
-11 -145 -114 -156 -23 -3 -56 -15 -73 -27 -29 -21 -30 -24 -30 -96 0 -42 5
-84 11 -95 10 -20 11 -20 47 2 57 34 78 57 106 112 25 51 27 76 3 44 -10 -15
-12 -14 -12 13 0 21 4 29 13 25 7 -3 10 0 7 5 -3 6 -2 10 3 10 6 0 20 11 33
25 13 13 26 25 29 25 3 0 4 -40 2 -89 -3 -70 0 -95 13 -114 15 -24 15 -26 -4
-32 -29 -9 -43 2 -41 33 4 55 0 92 -10 92 -15 0 -12 -123 4 -145 13 -17 17
-18 57 -5 24 7 63 24 87 37 41 23 42 23 42 4 0 -35 43 -55 105 -47 61 7 153
44 174 69 21 27 -14 22 -41 -5 -26 -26 -105 -36 -130 -16 -9 7 -20 25 -23 39
-6 23 -3 27 22 33 41 11 111 54 123 77 6 11 8 29 5 39 -8 26 -48 26 -135 0
-77 -23 -99 -47 -107 -114 -8 -66 -69 -99 -106 -58 -13 14 -15 35 -13 105 2
48 9 93 15 101 7 8 13 40 15 72 2 33 6 70 9 84 11 48 16 100 9 99 -4 0 -21 -6
-39 -12z m13 -59 c-3 -18 -8 -58 -11 -88 -9 -86 -14 -100 -29 -94 -10 4 -12
26 -9 97 6 112 7 117 34 117 19 0 21 -4 15 -32z m311 -239 c2 -27 -26 -37 -43
-14 -17 22 -10 35 19 35 16 0 23 -6 24 -21z m-60 -16 c5 -15 -43 -70 -53 -60
-11 10 24 79 38 75 6 -2 13 -9 15 -15z m-67 -3 c0 -5 -5 -32 -11 -59 -9 -41
-8 -56 4 -80 18 -35 15 -40 -19 -33 -32 6 -47 43 -40 95 7 47 12 57 34 58 12
0 13 2 3 6 -11 5 -11 7 0 14 18 11 29 11 29 -1z m-330 -11 c0 -19 -43 -99 -53
-99 -9 0 -4 61 8 93 8 19 45 24 45 6z m-75 -43 c-5 -24 -2 -42 10 -60 10 -15
16 -28 14 -29 -41 -23 -52 -28 -55 -25 -2 2 -5 26 -7 53 -5 59 6 95 28 95 13
0 15 -7 10 -34z"/>
<path d="M1551 1228 c-58 -28 -124 -91 -119 -114 2 -10 39 -40 83 -67 122 -74
157 -115 136 -156 -13 -23 -124 -73 -177 -79 -36 -4 -43 -1 -49 17 -11 35 -25
24 -25 -19 0 -50 13 -56 82 -40 77 18 154 65 193 119 57 77 49 97 -79 191 -47
34 -87 68 -90 75 -7 18 16 36 51 38 26 2 28 0 25 -30 -4 -40 5 -41 45 -5 21
19 29 35 27 52 -1 14 -3 28 -3 33 -2 14 -56 6 -100 -15z m76 -28 c4 -25 -9
-26 -24 -1 -10 15 -10 21 0 24 15 6 20 1 24 -23z m-7 -172 c0 -5 5 -6 10 -3 6
3 10 -1 10 -9 0 -9 -4 -16 -9 -16 -13 0 -32 26 -24 34 4 4 0 4 -9 1 -15 -6
-98 39 -106 58 -2 4 -9 7 -16 7 -11 0 -15 31 -7 48 3 6 151 -111 151 -120z
m60 -52 c0 -6 -5 -4 -10 4 -8 13 -10 13 -10 1 0 -11 -3 -12 -11 -4 -17 17 -1
37 17 22 8 -6 14 -17 14 -23z"/>
<path d="M1550 1070 c0 -5 5 -10 11 -10 5 0 7 5 4 10 -3 6 -8 10 -11 10 -2 0
-4 -4 -4 -10z"/>
<path d="M1821 1228 c-58 -28 -124 -91 -119 -114 2 -10 39 -40 83 -67 121 -73
157 -115 136 -155 -13 -25 -110 -71 -164 -78 -39 -6 -47 -4 -59 15 -7 11 -16
21 -20 21 -12 0 -9 -78 3 -86 18 -10 122 16 175 45 51 27 124 112 124 144 0
34 -20 57 -108 123 -48 36 -90 72 -95 79 -5 10 2 19 24 30 42 22 60 14 53 -25
-4 -16 -3 -30 1 -30 19 0 75 53 75 70 0 55 -34 64 -109 28z m76 -18 c-5 -29
-14 -34 -26 -12 -11 21 -6 32 16 32 7 0 12 -8 10 -20z m-115 -88 c10 -8 15
-19 12 -23 -3 -5 2 -6 10 -3 9 3 20 -3 28 -15 7 -12 18 -21 24 -21 15 0 104
-86 104 -100 0 -5 -5 -10 -11 -10 -5 0 -7 5 -4 10 3 6 1 10 -4 10 -14 0 -56
42 -56 55 0 6 -9 9 -18 7 -23 -4 -49 16 -40 31 3 6 1 7 -5 3 -6 -4 -29 2 -50
13 -33 17 -39 24 -35 45 5 26 13 26 45 -2z"/>
<path d="M2181 1222 c-52 -2 -72 -9 -107 -33 -24 -16 -46 -40 -49 -52 -11 -49
-26 -189 -21 -194 20 -21 135 77 156 132 11 29 30 33 30 6 0 -10 8 -29 18 -41
17 -21 20 -21 52 -8 46 19 100 66 100 85 0 11 -7 8 -26 -11 -15 -14 -30 -26
-34 -26 -10 0 -28 43 -36 87 -3 21 -9 43 -13 48 -3 6 -35 9 -70 7z m63 -71 c8
-27 19 -58 25 -69 8 -16 7 -21 -6 -26 -9 -4 -20 -1 -25 6 -6 10 -8 10 -8 -2
-1 -8 -7 0 -15 18 -8 18 -21 35 -30 38 -11 5 -15 16 -13 37 2 25 -1 32 -22 38
-18 5 -11 7 27 8 l52 1 15 -49z m-100 -18 c-23 -57 -58 -123 -65 -123 -6 0 14
108 26 148 3 6 16 12 29 12 25 0 25 0 10 -37z m-74 -18 c-4 -12 -7 -45 -6 -74
1 -54 -16 -87 -28 -54 -9 23 4 143 15 143 5 0 8 3 8 8 -3 19 2 26 10 13 5 -8
6 -24 1 -36z"/>
<path d="M1723 1021 c31 -37 33 -57 12 -108 -21 -50 -14 -66 27 -58 50 11 130
54 125 68 -3 12 -74 64 -139 102 -52 31 -54 30 -25 -4z m117 -100 c0 -9 -7
-11 -21 -8 -12 3 -22 0 -26 -9 -3 -8 -12 -14 -20 -14 -8 0 -13 6 -10 13 2 6
10 11 16 10 6 -2 11 2 11 8 0 6 9 8 23 4 21 -6 21 -5 4 9 -11 8 -25 12 -33 9
-14 -5 -19 8 -8 19 9 10 64 -26 64 -41z"/>
<path d="M1134 630 c-11 -4 -37 -32 -57 -61 -33 -49 -37 -62 -46 -153 -5 -55
-7 -118 -5 -140 1 -23 5 -86 9 -141 7 -118 17 -135 81 -135 51 0 68 19 79 88
4 23 9 42 11 42 2 0 12 -7 23 -16 11 -10 34 -23 53 -29 18 -7 58 -23 88 -35
128 -51 212 -64 238 -38 7 7 12 33 12 58 0 43 2 47 36 63 32 16 37 16 57 2 30
-21 86 -19 125 5 23 14 32 16 32 6 0 -22 38 -49 69 -49 15 0 43 11 62 24 27
19 44 23 81 21 105 -8 199 107 138 168 -11 11 -29 20 -39 20 -15 0 -21 10 -26
39 -10 60 -25 75 -81 76 -27 1 -59 5 -71 9 -14 4 -36 0 -62 -14 -34 -17 -48
-19 -83 -11 -31 7 -50 6 -75 -4 -19 -8 -33 -10 -33 -4 0 20 -65 39 -102 29
-37 -11 -78 -43 -78 -63 0 -6 -7 -1 -16 12 -15 20 -23 23 -65 19 -35 -4 -47
-2 -40 6 32 41 11 120 -36 133 -35 9 -51 6 -83 -16 -14 -10 -42 -28 -63 -40
l-37 -23 2 57 c2 52 0 60 -25 81 -30 26 -40 28 -73 14z m56 -49 c5 -11 8 -26
6 -33 -2 -7 -7 -41 -10 -76 l-6 -62 67 36 c36 19 82 46 101 59 26 17 40 21 52
15 30 -16 31 -40 7 -95 -19 -40 -35 -57 -73 -80 -27 -15 -51 -29 -53 -31 -7
-6 31 -44 81 -79 l48 -35 0 64 c0 73 16 101 67 115 44 13 56 -4 49 -66 -5 -41
-4 -44 4 -17 7 21 20 36 40 44 16 7 30 18 30 25 0 15 35 39 68 48 26 6 62 -22
62 -48 0 -20 3 -19 46 10 21 14 44 23 52 20 7 -3 22 -5 32 -5 10 0 25 -7 33
-15 13 -13 17 -13 28 1 24 29 69 47 85 33 8 -6 14 -18 14 -26 0 -10 8 -7 30 9
36 26 61 17 66 -23 12 -85 13 -87 47 -85 47 2 49 -32 2 -73 -40 -35 -87 -41
-116 -15 -17 15 -20 14 -45 -16 -29 -34 -61 -51 -81 -43 -8 3 -13 26 -13 61 0
54 -1 55 -15 34 -22 -30 -96 -72 -128 -72 -17 0 -34 10 -48 29 l-21 28 -25
-23 c-36 -33 -97 -51 -118 -34 -12 10 -18 10 -31 -1 -14 -11 -11 -15 20 -31
32 -17 36 -23 36 -60 l0 -41 -39 6 c-37 5 -119 36 -206 78 -22 10 -48 19 -57
19 -9 0 -20 5 -23 10 -7 11 -80 60 -90 60 -3 0 -5 -21 -5 -47 0 -97 -26 -141
-67 -115 -15 10 -23 106 -23 277 0 155 7 191 50 245 35 44 54 50 70 21z m183
-280 c-3 -12 -11 -17 -19 -14 -17 6 -18 20 -1 26 22 9 25 7 20 -12z"/>
<path d="M1134 531 c-34 -52 -44 -148 -34 -323 4 -68 7 -126 6 -129 0 -4 4 -9
9 -10 6 -2 11 10 13 26 1 17 5 58 8 92 l6 63 30 -18 c60 -33 68 -39 86 -55 10
-10 21 -14 25 -11 3 3 19 -3 35 -15 17 -12 35 -21 42 -21 6 0 30 -9 53 -21 74
-36 137 -59 137 -49 0 5 -11 12 -24 16 -14 3 -27 12 -30 20 -3 8 -12 14 -21
14 -8 0 -15 6 -15 14 0 8 -5 18 -12 22 -7 4 -8 3 -4 -4 10 -17 -6 -15 -32 4
-12 8 -20 19 -17 24 5 9 -44 44 -52 37 -3 -3 8 -12 24 -21 15 -8 23 -15 17
-16 -14 0 -67 40 -61 47 3 2 -18 26 -47 53 -28 27 -49 50 -46 52 3 2 32 17 65
35 48 24 65 40 84 76 31 61 21 73 -32 38 -47 -32 -188 -103 -194 -98 -2 2 1
46 5 98 5 52 8 96 6 97 -1 2 -15 -15 -30 -37z m209 -125 c-4 -6 -8 -5 -11 2
-2 7 -8 12 -14 12 -6 0 -8 -7 -4 -15 4 -11 -6 -21 -32 -32 -47 -22 -72 -42
-72 -59 0 -8 23 -36 50 -63 28 -27 50 -52 50 -55 0 -12 -37 1 -90 32 -31 19
-64 31 -77 29 -19 -4 -21 -1 -16 23 3 15 0 31 -6 34 -6 4 -11 12 -11 17 0 6 5
7 10 4 6 -3 10 2 10 13 0 14 6 18 28 15 17 -3 53 10 102 35 47 24 78 35 82 28
4 -5 4 -15 1 -20z"/>
<path d="M1657 378 l-28 -10 21 -20 c26 -24 23 -69 -6 -113 -23 -35 -37 -19
-32 40 3 45 3 46 -22 40 -14 -4 -25 -7 -26 -8 -11 -35 -42 -91 -57 -104 -20
-18 -20 -18 -13 70 l6 88 -29 -15 c-27 -14 -29 -20 -33 -88 -7 -105 19 -123
91 -62 29 24 29 24 34 3 5 -18 11 -20 33 -15 74 19 128 94 112 156 -12 46 -18
49 -51 38z m-77 -128 c0 -5 -5 -10 -11 -10 -5 0 -7 5 -4 10 3 6 8 10 11 10 2
0 4 -4 4 -10z"/>
<path d="M1947 363 c-40 -31 -46 -43 -21 -43 14 0 16 -12 12 -80 -2 -44 -1
-80 3 -80 11 0 57 56 76 94 l20 39 7 -29 c10 -39 24 -54 51 -54 23 0 80 38 71
48 -3 2 -12 0 -19 -7 -22 -18 -47 18 -54 78 -3 28 -9 51 -12 51 -18 -1 -63
-51 -81 -90 l-20 -45 6 73 c4 39 4 72 2 72 -3 0 -21 -12 -41 -27z m121 -77 c1
-28 0 -29 -8 -8 -5 12 -14 22 -20 22 -6 0 -9 4 -6 8 12 20 32 7 34 -22z m-96
-31 c3 -13 1 -22 -3 -19 -9 5 -13 44 -5 44 2 0 6 -11 8 -25z m133 -15 c3 -5
-1 -10 -10 -10 -9 0 -13 5 -10 10 3 6 8 10 10 10 2 0 7 -4 10 -10z"/>
<path d="M1788 351 c-44 -24 -75 -81 -63 -117 21 -59 72 -57 135 6 41 41 49
72 27 101 -18 24 -63 29 -99 10z m64 -46 c14 -30 -12 -75 -43 -75 -27 0 -42
41 -20 57 9 7 12 13 7 13 -14 0 15 30 30 30 8 0 19 -11 26 -25z m-105 -47 c-3
-8 -6 -5 -6 6 -1 11 2 17 5 13 3 -3 4 -12 1 -19z"/>
<path d="M1506 107 c3 -10 9 -15 12 -12 3 3 0 11 -7 18 -10 9 -11 8 -5 -6z"/>
<path d="M1536 88 c3 -5 10 -6 15 -3 13 9 11 12 -6 12 -8 0 -12 -4 -9 -9z"/>
<path d="M2374 610 c-130 -33 -165 -49 -197 -92 -34 -47 -39 -66 -22 -97 24
-47 83 -56 129 -20 15 12 30 18 34 15 7 -8 5 -176 -4 -246 -5 -40 -2 -48 21
-70 22 -20 36 -25 80 -24 44 0 72 9 152 50 54 27 101 51 106 52 4 2 7 -3 7
-10 0 -25 47 -59 87 -65 53 -7 107 22 167 88 39 43 46 58 46 92 0 50 -33 103
-75 118 -28 10 -30 14 -26 56 7 91 -44 141 -172 167 -109 23 -204 19 -333 -14z
m305 -20 c72 -12 136 -41 151 -69 14 -28 12 -91 -5 -124 -10 -20 -11 -27 -2
-26 62 8 117 -31 117 -84 0 -56 -100 -147 -162 -147 -33 0 -71 42 -72 80 -1
16 -2 30 -4 30 -2 0 -23 -14 -47 -30 -58 -40 -180 -98 -223 -106 -49 -9 -82 9
-82 45 0 16 4 32 9 35 9 6 6 274 -3 283 -6 7 -92 -33 -100 -46 -10 -16 -51
-14 -65 3 -27 32 40 96 121 119 172 48 249 56 367 37z"/>
<path d="M2460 560 c-14 -5 -60 -16 -103 -25 -58 -13 -88 -25 -113 -47 -19
-17 -31 -34 -28 -40 4 -5 13 -3 22 5 28 24 64 39 136 58 76 20 95 19 46 -1
l-30 -13 4 -148 c3 -121 1 -151 -11 -169 -13 -19 -14 -24 -2 -31 59 -40 347
129 408 239 32 59 32 108 1 133 -14 10 -41 24 -60 30 -46 14 -238 21 -270 9z
m165 -41 c70 -13 110 -32 125 -59 17 -33 -7 -105 -47 -140 -47 -42 -206 -120
-244 -120 l-30 0 6 58 c3 31 10 99 17 149 6 51 10 96 9 100 -2 8 43 19 85 22
11 0 47 -4 79 -10z m135 -4 c25 -13 30 -21 29 -53 l-1 -37 -13 30 c-7 17 -12
34 -12 38 1 5 -11 15 -28 22 -16 7 -24 14 -17 14 7 1 26 -6 42 -14z m-329 -85
l-9 -45 -1 51 c-1 28 2 54 7 58 11 12 13 -15 3 -64z"/>
<path d="M2508 494 c-12 -4 -19 -25 -27 -87 -19 -148 -20 -177 -6 -177 20 0
172 79 204 106 32 26 57 85 47 110 -3 8 -20 21 -38 28 -35 15 -152 27 -180 20z
m164 -55 c38 -20 -1 -67 -101 -124 l-64 -36 7 68 c11 117 9 115 80 107 33 -4
68 -10 78 -15z"/>
<path d="M2792 329 c-43 -25 -69 -80 -56 -116 20 -58 68 -56 133 7 42 41 51
71 28 101 -20 26 -70 30 -105 8z m70 -44 c23 -51 -46 -103 -73 -54 -9 18 -8
24 5 31 9 5 13 14 10 20 -7 11 13 28 34 28 7 0 17 -11 24 -25z m-92 -62 c0
-21 -3 -24 -9 -14 -5 8 -7 20 -4 28 8 21 13 15 13 -14z"/>
<path d="M699 616 c-2 -2 -38 -6 -79 -10 -41 -3 -133 -14 -205 -25 -72 -11
-166 -25 -210 -32 -91 -13 -135 -35 -164 -83 -25 -40 -26 -64 -5 -95 14 -20
23 -22 63 -18 25 2 77 12 116 21 38 9 73 16 76 16 7 0 28 -112 27 -140 0 -8 3
-48 7 -88 7 -64 12 -76 37 -97 33 -28 46 -30 97 -14 72 23 92 32 117 52 34 26
97 28 143 5 61 -32 172 -10 240 48 25 20 31 34 31 64 0 22 -6 43 -16 51 -10 8
-13 21 -9 36 7 28 -17 78 -44 93 -31 16 -96 12 -158 -10 -49 -17 -58 -18 -76
-5 -25 18 -119 20 -148 4 -18 -9 -20 -8 -17 17 3 28 4 28 148 52 157 26 190
42 190 92 0 44 -37 70 -101 70 -31 0 -58 -2 -60 -4z m116 -66 c0 -26 -17 -31
-252 -70 -81 -13 -74 -3 -88 -128 l-6 -54 37 29 c31 23 47 28 97 28 64 0 70
-5 82 -59 l6 -29 18 34 c20 38 87 68 153 69 46 0 77 -35 59 -68 -15 -28 -69
-72 -89 -72 -12 0 -13 -3 -5 -11 9 -9 20 -6 46 10 56 34 85 25 73 -25 -13 -49
-157 -89 -214 -60 -17 9 -32 20 -34 26 -2 7 -14 6 -36 -2 -25 -10 -37 -10 -51
-1 -16 10 -23 8 -42 -14 -30 -32 -75 -55 -98 -51 -10 2 -26 -3 -35 -11 -13
-11 -22 -11 -40 -3 -21 9 -24 20 -30 89 -11 132 -18 177 -27 195 -5 10 -7 29
-3 44 6 22 4 25 -12 21 -11 -3 -48 -10 -84 -17 -36 -6 -81 -16 -101 -22 -75
-22 -100 8 -52 62 26 29 39 34 138 51 60 10 128 21 152 24 24 2 87 11 141 20
117 18 169 22 242 21 52 -1 55 -3 55 -26z"/>
<path d="M690 549 c-41 -5 -120 -16 -175 -25 -55 -8 -120 -17 -145 -20 -181
-21 -266 -46 -278 -82 -3 -9 3 -10 25 -1 15 6 81 21 146 33 124 25 132 23 106
-25 -7 -13 -7 -30 0 -52 6 -18 15 -85 22 -150 13 -134 30 -151 41 -41 4 38 12
122 19 186 l11 117 52 11 c28 6 98 18 156 27 58 9 109 20 115 24 10 10 11 10
-95 -2z m-255 -119 c-4 -25 -11 -81 -15 -125 -5 -55 -8 -66 -9 -35 0 25 -6 63
-12 84 -6 22 -8 58 -4 82 5 35 10 42 26 41 19 -1 20 -6 14 -47z"/>
<path d="M787 325 c-38 -13 -66 -39 -67 -62 0 -7 -10 -17 -21 -24 -26 -13 -34
-4 -43 51 -6 36 -7 36 -53 39 -40 1 -53 -3 -80 -26 -28 -24 -34 -37 -42 -98
-5 -38 -7 -72 -4 -75 9 -10 59 28 88 67 35 48 42 52 47 21 2 -19 9 -23 32 -21
16 1 39 12 51 23 l23 21 6 -35 c8 -41 29 -51 89 -41 48 8 128 46 110 52 -7 3
-23 -3 -35 -11 -32 -23 -85 -21 -98 3 -14 28 -14 28 33 49 48 22 82 55 72 71
-9 15 -62 13 -108 -4z m34 -44 c-10 -18 -31 -29 -31 -16 0 18 25 54 33 46 5
-5 4 -17 -2 -30z m-191 10 c0 -11 5 -23 10 -26 6 -3 10 -15 10 -26 0 -18 -2
-18 -26 6 -14 14 -23 29 -19 34 3 5 1 12 -5 16 -6 3 -22 -21 -36 -55 -15 -33
-29 -59 -31 -56 -3 2 -1 25 2 50 6 36 13 50 34 61 37 20 61 19 61 -4z m138
-51 c-1 -27 -6 -50 -11 -50 -5 0 -7 6 -4 13 3 8 1 20 -3 28 -5 8 -5 19 1 26 6
7 8 17 4 23 -3 5 -2 10 4 10 5 0 9 -22 9 -50z"/>
</g>
</svg>
