<?xml version="1.0" standalone="no"?>
<!DOCTYPE svg PUBLIC "-//W3C//DTD SVG 20010904//EN"
 "http://www.w3.org/TR/2001/REC-SVG-20010904/DTD/svg10.dtd">
<svg version="1.0" xmlns="http://www.w3.org/2000/svg"
 width="900.000000pt" height="225.000000pt" viewBox="0 0 900.000000 225.000000"
 preserveAspectRatio="xMidYMid meet">
<metadata>
Created by potrace 1.10, written by Peter Selinger 2001-2011
</metadata>
<g transform="translate(0.000000,225.000000) scale(0.100000,-0.100000)"
fill="#ffffff" stroke="none">
<path d="M530 1723 c-78 -27 -165 -86 -251 -172 -119 -119 -191 -305 -169
-433 29 -168 104 -272 245 -341 157 -78 321 -73 503 15 l102 50 32 -33 c34
-33 84 -59 116 -59 11 0 40 11 66 25 53 28 92 31 120 10 35 -27 96 -28 164 -5
66 23 90 22 157 -4 22 -8 64 -15 93 -16 l52 0 0 -62 c1 -73 29 -140 72 -172
43 -31 131 -33 241 -6 l93 23 41 -22 c51 -26 121 -27 211 -5 99 25 171 66 255
144 42 39 102 84 134 100 32 16 73 43 92 59 28 24 44 29 105 33 89 6 170 45
242 119 49 50 49 50 49 117 0 82 -25 123 -87 141 -33 10 -43 20 -60 58 -16 36
-29 49 -66 65 -66 29 -221 20 -297 -17 -65 -31 -69 -31 -94 4 -47 66 -169 78
-271 27 -64 -32 -84 -32 -121 -2 -32 27 -101 42 -155 33 -19 -3 -59 -17 -89
-31 -62 -30 -86 -32 -146 -10 -40 14 -51 14 -119 -1 -41 -9 -97 -23 -124 -32
-89 -26 -91 -16 -44 214 10 45 8 59 -7 93 -21 46 -37 62 -83 80 -28 11 -44 10
-108 -5 -64 -15 -83 -25 -126 -64 l-51 -47 -7 -82 c-4 -45 -10 -85 -13 -89 -9
-8 -37 16 -37 32 0 23 -127 185 -144 185 -4 0 -22 11 -39 24 -74 56 -181 86
-307 86 -76 0 -110 -6 -170 -27z m289 -54 c76 -17 154 -62 216 -124 80 -80
115 -151 115 -233 l0 -62 58 0 c87 0 92 9 99 170 7 150 15 169 90 201 59 25
115 25 138 -1 17 -19 17 -26 5 -103 -7 -45 -16 -120 -20 -167 -4 -47 -15 -105
-24 -129 -22 -57 -19 -206 4 -206 9 0 20 21 30 60 21 79 61 138 108 158 136
57 246 68 298 29 l31 -23 80 41 c134 70 211 63 233 -20 8 -29 16 -40 30 -40
10 0 20 4 22 8 6 14 102 68 154 87 100 35 164 -3 164 -98 0 -45 -4 -55 -36
-88 -40 -41 -40 -58 0 -84 33 -22 43 -14 51 38 4 23 14 58 23 77 20 41 103
106 152 120 46 13 196 13 220 0 11 -6 24 -29 30 -53 18 -70 29 -92 42 -79 17
17 64 15 82 -4 9 -8 16 -32 16 -51 0 -30 -8 -44 -45 -80 -52 -49 -132 -93
-171 -93 -15 0 -42 5 -60 12 -32 11 -35 10 -87 -39 -57 -54 -123 -93 -157 -93
-11 0 -20 -5 -20 -11 0 -6 -29 -40 -65 -74 -70 -69 -154 -115 -243 -134 -93
-20 -121 -15 -159 25 l-34 37 -62 -26 c-118 -50 -214 -60 -257 -28 -21 17 -25
29 -28 93 -3 64 -1 76 18 96 28 30 53 28 94 -9 33 -29 37 -30 78 -19 23 7 64
23 90 36 49 25 58 45 35 75 -17 22 -119 89 -136 89 -7 0 -29 -13 -48 -30 -18
-16 -42 -30 -51 -30 -10 0 -26 -6 -37 -14 -23 -16 -150 -46 -193 -46 -16 0
-57 14 -91 32 -52 27 -65 30 -81 20 -11 -6 -47 -21 -81 -33 -58 -20 -64 -20
-95 -6 -18 9 -42 29 -54 45 l-22 29 -66 -44 c-52 -34 -75 -43 -101 -41 -42 4
-70 38 -78 97 -3 23 -10 44 -14 47 -5 3 -32 -15 -60 -39 -28 -25 -90 -64 -138
-88 -85 -44 -87 -44 -205 -47 -134 -4 -172 5 -264 66 -76 50 -125 120 -152
216 -21 77 -22 81 -5 150 29 124 103 239 201 314 27 20 54 42 59 47 23 24 46
36 111 60 76 27 184 33 263 14z m1231 -824 c0 -8 -9 -15 -20 -15 -11 0 -20 7
-20 15 0 8 9 15 20 15 11 0 20 -7 20 -15z"/>
<path d="M628 1609 c-83 -12 -218 -106 -295 -204 -88 -114 -110 -208 -76 -329
14 -50 27 -71 73 -116 45 -45 69 -60 121 -75 72 -22 236 -28 260 -9 8 6 26 14
42 18 33 8 130 66 123 74 -3 3 -27 -6 -53 -20 -121 -64 -286 -61 -390 8 -123
83 -163 208 -121 374 14 51 24 64 91 108 118 78 328 110 412 63 53 -29 89 -48
122 -64 38 -17 92 -127 100 -201 6 -58 19 -73 28 -33 23 102 24 115 11 165
-18 66 -72 130 -157 187 -55 37 -78 45 -143 54 -43 6 -80 10 -84 10 -4 -1 -33
-5 -64 -10z"/>
<path d="M1416 1555 c-10 -8 -23 -16 -28 -17 -5 -2 -11 -48 -14 -103 -7 -131
-21 -201 -45 -224 -13 -12 -42 -20 -82 -24 -61 -6 -116 -26 -149 -55 -15 -12
-18 -32 -18 -108 0 -51 3 -99 6 -108 18 -46 134 29 179 116 22 43 60 66 69 42
3 -9 6 -41 6 -72 0 -107 18 -122 95 -85 l35 17 -26 27 c-24 25 -25 31 -25 144
1 84 5 126 16 148 8 17 15 57 15 92 0 34 7 84 15 111 8 27 15 64 15 82 0 27
-4 32 -22 32 -13 0 -32 -7 -42 -15z m-158 -428 c2 -17 -7 -46 -23 -73 -22 -37
-29 -43 -41 -33 -17 14 -19 91 -3 120 7 14 19 19 37 17 21 -2 28 -9 30 -31z"/>
<path d="M570 1442 c-155 -44 -210 -100 -210 -216 0 -100 50 -190 127 -229 51
-27 148 -36 219 -21 78 17 103 29 173 87 73 61 91 91 90 152 -1 84 -30 140
-89 170 -19 10 -50 30 -69 44 -45 34 -146 39 -241 13z m199 -75 c19 -12 53
-34 75 -48 41 -25 41 -26 43 -90 l3 -64 -55 -44 c-129 -105 -286 -109 -369
-11 -23 28 -26 40 -26 109 0 87 5 96 75 126 109 48 204 56 254 22z"/>
<path d="M2128 1248 c-46 -12 -48 -20 -8 -35 22 -8 30 -18 30 -35 0 -14 3 -27
6 -31 10 -10 50 21 63 49 10 22 9 30 -5 45 -19 21 -31 22 -86 7z"/>
<path d="M2493 1249 c-37 -11 -53 -29 -26 -29 25 0 43 -19 43 -46 0 -36 19
-39 51 -8 18 17 29 38 29 55 0 39 -30 47 -97 28z"/>
<path d="M2862 1220 c-43 -18 -112 -73 -118 -94 -12 -38 -30 -226 -23 -238 19
-30 144 73 173 144 16 37 43 55 59 39 5 -5 12 -24 16 -43 5 -24 13 -34 30 -36
29 -5 61 4 85 22 17 14 17 16 -7 48 -16 20 -28 53 -33 85 -3 29 -12 57 -19 63
-18 15 -135 22 -163 10z m36 -52 c7 -7 12 -18 12 -26 0 -14 -32 -90 -51 -122
-5 -8 -12 -23 -15 -32 -7 -21 -40 -24 -46 -5 -7 18 21 149 38 175 16 24 43 29
62 10z"/>
<path d="M1743 1200 c-117 -34 -135 -55 -148 -164 -6 -50 13 -111 39 -128 17
-11 144 -9 151 2 3 5 -10 17 -29 26 -52 25 -61 49 -48 135 8 56 17 78 37 98
26 25 26 26 41 7 15 -22 10 -55 -12 -72 -40 -32 4 -32 54 0 52 33 74 61 70 88
-3 20 -9 23 -48 25 -25 1 -73 -6 -107 -17z"/>
<path d="M1978 1146 c-21 -22 -38 -42 -38 -45 1 -16 23 -34 116 -90 126 -76
184 -130 184 -170 0 -42 16 -47 35 -12 33 65 12 108 -93 183 -105 75 -160 126
-164 151 -3 20 -6 18 -40 -17z"/>
<path d="M2341 1149 c-53 -53 -45 -68 79 -139 110 -64 180 -125 180 -158 0
-15 4 -33 9 -41 13 -21 41 26 41 70 0 49 -16 66 -145 163 -87 64 -111 87 -113
109 -4 35 -13 34 -51 -4z"/>
<path d="M2340 962 c0 -5 5 -24 12 -42 9 -27 8 -43 -7 -85 -24 -73 -19 -91 28
-88 38 2 139 47 158 69 17 21 -6 51 -79 98 -70 46 -112 64 -112 48z"/>
<path d="M2130 719 c-19 -10 -42 -19 -52 -19 -9 0 -20 -5 -24 -11 -4 -7 -33
-10 -77 -7 -75 3 -87 -4 -63 -37 13 -18 18 -18 67 -6 66 16 159 52 159 62 0 4
11 10 25 13 14 4 25 11 25 16 0 15 -21 11 -60 -11z"/>
<path d="M2510 726 c-37 -34 -199 -61 -215 -36 -11 18 -25 11 -25 -12 0 -47
12 -52 82 -38 61 12 198 76 198 92 0 13 -24 9 -40 -6z"/>
<path d="M5445 1681 c-46 -21 -120 -107 -160 -187 -38 -75 -49 -215 -41 -555
7 -327 13 -367 64 -409 32 -26 45 -30 97 -30 55 0 65 3 93 31 36 35 38 41 47
132 4 42 12 70 20 73 7 3 32 -8 56 -25 23 -17 51 -31 61 -31 10 0 61 -20 111
-45 51 -25 99 -45 106 -45 8 0 43 -13 78 -30 34 -16 71 -30 81 -30 9 -1 28 -7
42 -15 16 -9 55 -14 106 -15 77 0 82 1 110 31 27 28 29 37 33 115 l3 84 54 25
c67 31 78 31 117 3 45 -32 153 -31 215 1 49 25 67 22 83 -11 11 -26 78 -68
108 -68 30 0 90 30 139 68 41 33 44 34 97 24 71 -12 143 0 193 31 54 35 129
123 136 162 14 73 -22 131 -97 155 -20 6 -42 20 -47 30 -12 23 -13 100 -1 100
5 0 30 -9 56 -21 60 -26 113 -20 164 20 59 45 60 45 75 9 19 -50 14 -316 -8
-390 -27 -89 2 -165 76 -204 37 -19 156 -18 226 2 55 16 207 86 304 141 l47
27 58 -61 c55 -58 61 -62 115 -68 77 -10 121 0 193 40 71 40 128 94 181 171
36 53 38 60 38 129 -1 52 -6 81 -18 100 -34 52 -87 103 -114 110 -48 12 -52
21 -52 119 0 84 -2 96 -29 138 -32 50 -73 84 -141 116 -133 62 -461 93 -599
58 -31 -8 -126 -31 -211 -51 -85 -21 -159 -40 -165 -45 -5 -4 -22 -10 -36 -14
-35 -8 -120 -85 -158 -143 -21 -32 -31 -59 -31 -85 0 -42 -8 -46 -46 -22 -20
13 -39 15 -93 10 -49 -4 -81 -2 -111 9 -48 17 -94 8 -162 -30 -36 -20 -41 -21
-119 -8 -72 13 -87 12 -134 -2 -41 -13 -57 -14 -74 -6 -11 7 -21 16 -21 21 0
17 -83 32 -139 26 -56 -7 -135 -46 -154 -77 -14 -23 -40 -24 -61 -3 -24 23
-76 35 -123 28 -48 -7 -50 -3 -33 71 20 85 -38 176 -120 190 -47 8 -87 -9
-200 -84 -36 -24 -72 -41 -84 -39 -19 3 -21 9 -21 84 0 73 -3 84 -28 117 -46
60 -92 75 -152 48z m2952 -90 c118 -32 181 -76 213 -149 18 -40 19 -53 10 -94
-5 -27 -17 -65 -25 -84 -8 -20 -15 -40 -15 -45 0 -11 66 -29 106 -29 39 0 97
-60 115 -118 11 -36 9 -44 -17 -91 -57 -105 -197 -211 -279 -211 -68 0 -145
79 -145 149 0 43 -14 46 -66 14 -25 -15 -53 -33 -62 -38 -9 -6 -35 -22 -57
-36 -115 -73 -287 -139 -364 -139 -92 0 -141 75 -95 145 14 21 16 60 15 260
-1 130 -4 242 -7 250 -4 8 -17 15 -30 15 -32 0 -129 -44 -166 -75 -52 -44
-128 -24 -128 35 0 34 80 127 132 152 48 24 205 68 276 78 34 4 67 12 74 17
46 29 401 24 515 -6z m-2861 8 c7 -12 7 -184 -1 -244 -9 -68 1 -71 101 -23 49
23 107 55 128 70 21 15 43 28 49 28 5 0 22 11 39 25 43 36 83 33 108 -7 24
-39 20 -78 -16 -155 -30 -64 -78 -114 -142 -148 -26 -13 -58 -34 -72 -45 l-25
-20 58 -55 c62 -58 154 -125 173 -125 16 0 24 49 24 149 0 82 2 89 28 113 58
55 134 74 166 42 9 -8 16 -32 16 -53 0 -21 2 -40 5 -43 3 -3 34 10 68 28 42
22 64 41 67 56 8 30 81 79 131 85 47 7 81 -19 99 -73 13 -39 31 -43 62 -14 12
11 42 30 66 41 36 18 48 19 68 10 14 -6 36 -11 50 -11 14 0 41 -7 60 -16 32
-15 36 -15 60 2 15 11 35 24 46 30 11 7 25 17 31 23 22 22 65 13 89 -19 24
-33 42 -37 64 -15 22 21 62 29 92 19 23 -8 28 -18 40 -89 24 -141 17 -128 68
-121 39 5 48 3 70 -19 23 -23 24 -27 10 -52 -38 -72 -125 -132 -192 -133 -17
0 -48 11 -68 25 -20 14 -42 25 -49 25 -7 0 -33 -25 -59 -54 -58 -66 -106 -86
-143 -62 -22 14 -24 24 -27 97 l-3 80 -64 -51 c-86 -69 -130 -90 -191 -90 -47
0 -53 3 -93 45 l-43 45 -54 -40 c-71 -53 -108 -64 -190 -56 -53 6 -69 4 -79
-8 -11 -13 -4 -21 42 -50 54 -35 55 -37 59 -88 6 -74 -11 -102 -61 -95 -42 5
-155 47 -221 81 -25 13 -61 26 -81 30 -21 4 -42 13 -49 21 -7 8 -20 15 -29 15
-9 0 -29 9 -46 20 -16 11 -39 20 -51 20 -12 0 -61 27 -110 60 -49 33 -96 59
-104 58 -19 -4 -27 -44 -29 -143 -1 -68 -5 -86 -26 -118 -29 -42 -59 -48 -96
-18 -22 18 -23 27 -36 277 -11 207 -12 288 -2 404 13 164 24 196 93 283 40 49
51 57 81 57 18 0 37 -5 41 -11z m334 -529 c0 -11 -7 -20 -15 -20 -15 0 -21 21
-8 33 12 13 23 7 23 -13z"/>
<path d="M7985 1551 c-33 -4 -70 -12 -82 -19 -12 -6 -44 -12 -71 -12 -27 0
-85 -11 -128 -25 -43 -14 -95 -30 -114 -35 -32 -9 -106 -67 -97 -76 2 -2 27 7
56 21 66 32 223 78 252 73 30 -4 34 -22 10 -45 -20 -18 -20 -28 -16 -288 3
-258 3 -271 -17 -303 -25 -40 -12 -62 37 -62 84 0 350 131 489 241 54 43 47
52 -12 15 -86 -54 -262 -138 -331 -156 -69 -20 -75 -20 -92 -4 -15 13 -19 31
-19 78 0 74 26 324 40 386 5 25 13 67 17 95 l8 50 60 8 c71 10 245 1 295 -14
71 -23 136 -53 160 -76 20 -19 25 -34 28 -93 4 -60 1 -78 -22 -124 -14 -29
-38 -65 -52 -80 -15 -15 -21 -26 -14 -26 17 0 109 96 135 141 27 47 54 128 55
162 0 57 -68 121 -147 137 -187 39 -281 46 -428 31z"/>
<path d="M7976 1421 c-20 -31 -71 -437 -59 -468 9 -22 54 -12 153 36 256 123
330 194 330 319 0 42 -33 74 -103 98 -62 21 -310 33 -321 15z m219 -76 c115
-10 145 -36 114 -98 -14 -28 -70 -87 -82 -87 -5 0 -21 -8 -35 -19 -36 -25
-166 -91 -181 -91 -16 0 -14 63 5 186 14 90 20 107 38 114 11 5 30 7 41 5 11
-2 56 -7 100 -10z"/>
<path d="M8535 1114 c-102 -69 -135 -147 -95 -229 20 -42 24 -45 61 -45 39 0
109 27 109 42 0 4 -10 8 -23 8 -30 0 -66 26 -78 58 -8 21 -6 31 11 53 11 16
20 37 20 47 0 18 37 42 65 42 8 0 26 -10 40 -22 28 -25 37 -73 21 -117 l-8
-24 25 19 c28 21 57 74 57 104 0 11 -12 33 -27 49 -23 24 -39 30 -85 34 -49 5
-62 2 -93 -19z"/>
<path d="M5431 1469 c-27 -42 -33 -66 -41 -148 -5 -53 -12 -115 -16 -137 -6
-38 8 -321 23 -479 6 -57 8 -64 14 -40 4 17 7 62 8 100 1 39 8 99 15 135 12
62 14 65 40 63 16 -1 55 -19 87 -40 33 -21 78 -50 102 -65 23 -15 48 -28 55
-28 13 0 46 -17 72 -36 8 -7 26 -15 40 -19 23 -6 44 -15 153 -64 118 -54 143
-59 121 -23 -6 9 -22 19 -35 20 -13 2 -33 12 -44 21 -11 10 -51 37 -90 61 -90
56 -129 89 -192 160 -12 14 -45 47 -72 74 -70 68 -69 89 7 123 31 15 59 29 62
33 3 4 25 18 50 32 25 13 57 42 72 64 28 41 62 124 53 132 -6 6 -30 -6 -105
-53 -78 -49 -297 -155 -320 -155 -18 0 -22 46 -15 181 5 93 4 139 -3 139 -6 0
-24 -23 -41 -51z"/>
<path d="M6424 1210 c-35 -14 -38 -29 -10 -57 31 -31 35 -58 21 -141 -7 -39
-60 -102 -86 -102 -28 0 -39 31 -39 109 0 62 -2 71 -18 71 -21 0 -62 -40 -62
-60 0 -16 -55 -117 -78 -143 -26 -30 -7 -28 27 3 18 17 36 30 41 30 5 0 17
-14 26 -31 14 -28 19 -30 50 -24 57 10 147 75 175 126 41 74 42 125 3 202 -16
29 -18 30 -50 17z"/>
<path d="M6965 1182 c-52 -32 -59 -47 -38 -78 15 -24 18 -48 17 -146 -1 -83 3
-118 11 -118 17 0 67 57 110 125 21 33 42 64 46 69 4 5 20 -16 34 -45 15 -30
34 -62 43 -71 20 -23 61 -22 92 2 l25 19 -36 33 c-38 34 -59 97 -59 173 0 19
-5 37 -11 41 -17 10 -92 -50 -114 -92 -64 -121 -80 -118 -72 12 7 103 4 108
-48 76z"/>
<path d="M6675 1163 c-49 -25 -111 -92 -125 -133 -10 -32 -10 -48 0 -85 25
-90 93 -98 189 -23 l25 19 -42 -7 c-38 -6 -44 -4 -72 26 -35 37 -37 49 -12 81
10 13 23 36 30 51 15 35 52 45 85 23 26 -17 49 -65 42 -88 -2 -7 -6 -25 -10
-42 l-7 -30 32 33 c33 35 50 71 50 105 0 31 -46 71 -84 73 -17 0 -40 4 -51 7
-11 3 -33 -1 -50 -10z"/>
<path d="M6062 1143 c-38 -19 -39 -23 -46 -180 -4 -94 -2 -124 9 -133 13 -11
54 -6 89 12 17 9 16 12 -9 38 -30 31 -30 36 -6 195 6 38 7 73 3 77 -4 4 -22 0
-40 -9z"/>
<path d="M4655 1660 c-33 -5 -127 -16 -210 -25 -255 -30 -278 -33 -345 -44
-172 -30 -448 -71 -472 -71 -66 0 -180 -70 -219 -134 -14 -23 -19 -50 -19
-107 0 -66 3 -78 23 -97 19 -18 35 -22 91 -22 37 0 79 6 94 14 15 7 50 17 77
21 28 4 75 13 105 21 30 8 60 14 68 14 7 0 24 -24 37 -52 20 -44 25 -75 30
-182 3 -72 10 -148 15 -170 5 -23 12 -66 15 -98 5 -46 12 -62 41 -92 52 -53
126 -66 179 -30 11 8 37 14 58 14 42 0 136 43 184 85 26 24 41 28 110 31 72 3
85 0 139 -26 48 -25 71 -30 129 -30 97 0 226 42 311 101 56 38 89 113 74 168
-5 21 -19 46 -30 56 -16 15 -20 31 -20 85 0 58 -4 72 -29 107 -54 75 -153 103
-238 68 -19 -8 -47 -15 -60 -15 -14 0 -52 -12 -84 -26 l-59 -27 -41 28 c-41
26 -44 27 -173 23 l-131 -3 -3 26 c-4 34 12 45 83 58 280 49 413 71 429 71 29
0 94 57 106 95 20 61 -3 112 -70 158 -26 18 -88 20 -195 7z m181 -91 c16 -13
18 -47 5 -68 -10 -15 -131 -44 -256 -62 -38 -5 -101 -16 -140 -24 -38 -8 -94
-17 -123 -20 -80 -10 -93 -26 -103 -126 -13 -136 -11 -169 7 -169 9 0 35 13
59 29 28 19 65 33 107 39 62 9 160 3 175 -12 5 -4 15 -30 23 -58 9 -28 21 -53
27 -55 6 -2 22 15 34 37 25 45 44 57 135 91 38 14 82 22 131 23 72 1 75 0 104
-32 33 -37 36 -56 13 -100 -18 -38 -88 -100 -126 -114 -16 -6 -28 -14 -28 -19
0 -12 57 -12 65 0 9 16 67 41 93 41 29 0 62 -26 62 -49 0 -30 -51 -88 -93
-106 -23 -9 -55 -24 -72 -33 -22 -12 -58 -17 -137 -17 l-107 0 -39 38 -39 38
-38 -15 c-44 -19 -85 -20 -119 -5 -23 11 -30 7 -86 -44 -64 -60 -120 -83 -173
-73 -22 5 -36 0 -59 -19 -33 -28 -41 -30 -71 -14 -43 24 -54 50 -60 144 -11
182 -30 341 -43 374 -8 18 -14 56 -14 83 l0 50 -47 -7 c-95 -14 -250 -45 -325
-66 -66 -18 -82 -20 -108 -9 -42 18 -40 56 6 112 48 56 79 76 134 84 25 3 61
9 80 14 19 4 89 15 155 24 66 9 161 23 210 31 188 31 295 45 435 60 248 26
319 27 346 4z"/>
<path d="M4548 1503 c18 -2 45 -2 60 0 15 2 0 4 -33 4 -33 0 -45 -2 -27 -4z"/>
<path d="M4315 1480 c-27 -5 -97 -16 -155 -25 -58 -9 -145 -21 -195 -26 -49
-4 -124 -15 -165 -23 -41 -9 -104 -20 -140 -27 -63 -10 -130 -41 -130 -60 0
-5 3 -9 8 -9 10 0 203 38 277 55 209 47 231 45 221 -13 -16 -89 -17 -123 -6
-156 6 -20 16 -91 21 -159 5 -67 14 -164 21 -216 11 -78 15 -92 26 -79 14 17
25 105 42 328 14 195 29 319 40 340 10 18 99 46 178 55 28 4 52 11 52 16 0 10
-23 10 -95 -1z"/>
<path d="M4805 1107 c-83 -30 -90 -36 -118 -92 -18 -35 -23 -54 -16 -66 5 -10
9 -31 9 -47 0 -66 64 -98 155 -77 71 17 75 21 27 28 -22 4 -48 17 -61 31 -20
21 -23 31 -16 63 4 21 8 49 8 63 1 14 9 40 17 58 12 26 20 32 40 30 37 -4 37
-38 1 -76 -27 -30 -28 -32 -8 -32 49 1 144 90 131 123 -9 24 -93 21 -169 -6z"/>
<path d="M4380 1101 c-34 -7 -81 -33 -108 -59 -19 -17 -39 -97 -47 -187 -8
-83 1 -98 47 -75 30 16 128 119 128 135 0 6 9 20 20 30 16 15 22 15 35 5 8 -7
15 -20 15 -30 0 -9 8 -24 19 -34 17 -15 21 -15 65 4 l47 20 -26 40 c-14 22
-30 62 -36 90 -6 27 -15 52 -20 55 -16 10 -103 14 -139 6z m19 -40 c10 -6 12
-20 7 -47 -7 -41 -65 -164 -77 -164 -4 0 -12 7 -19 15 -11 13 -11 25 -1 63 7
26 16 64 20 86 11 50 37 68 70 47z"/>
</g>
</svg>
