<?xml version="1.0" standalone="no"?>
<!DOCTYPE svg PUBLIC "-//W3C//DTD SVG 20010904//EN"
 "http://www.w3.org/TR/2001/REC-SVG-20010904/DTD/svg10.dtd">
<svg version="1.0" xmlns="http://www.w3.org/2000/svg"
 width="400.000000pt" height="100.000000pt" viewBox="0 0 400.000000 100.000000"
 preserveAspectRatio="xMidYMid meet">
<metadata>
Created by potrace 1.15, written by Peter Selinger 2001-2017
</metadata>
<g transform="translate(0.000000,100.000000) scale(0.100000,-0.100000)"
fill="#000000" stroke="none">
<path d="M231 769 c-41 -16 -112 -80 -142 -127 -69 -109 -35 -243 76 -293 60
-28 155 -25 216 6 l50 24 20 -20 c16 -16 28 -19 52 -14 18 3 44 6 60 6 39 -1
83 -1 115 0 15 1 46 -2 70 -6 39 -7 42 -10 42 -39 0 -17 7 -42 16 -55 15 -21
22 -22 78 -17 79 7 82 7 138 0 61 -8 103 7 166 59 73 60 119 87 151 87 40 0
119 54 127 86 10 38 -7 78 -34 82 -12 2 -22 9 -22 16 0 7 -8 20 -18 29 -25 23
-129 23 -160 1 -20 -13 -23 -14 -28 0 -11 28 -66 38 -114 21 -40 -14 -47 -14
-78 1 -30 14 -38 14 -80 0 -27 -8 -64 -13 -87 -9 -24 3 -58 -1 -85 -11 -24 -8
-46 -13 -48 -11 -2 2 1 34 7 71 12 66 12 68 -12 92 -21 21 -31 23 -61 18 -20
-4 -48 -17 -63 -30 -25 -22 -30 -35 -32 -101 -1 -14 -8 -7 -22 22 -23 48 -67
89 -116 110 -37 15 -146 16 -182 2z m167 -35 c71 -29 135 -116 118 -159 -4
-11 3 -15 29 -15 l34 0 7 70 c7 74 19 94 66 105 19 5 29 2 35 -9 9 -17 -1
-117 -18 -172 -11 -38 -12 -104 -1 -104 5 0 14 18 21 40 8 28 22 47 43 60 43
26 101 35 126 19 17 -11 27 -10 60 5 51 23 96 18 100 -10 l3 -22 44 25 c29 15
56 23 77 21 29 -3 33 -7 36 -36 2 -21 -3 -41 -12 -51 -12 -13 -13 -20 -4 -29
18 -18 28 -14 28 11 0 53 60 97 134 97 43 0 46 -2 54 -32 6 -25 14 -33 33 -33
17 0 25 -6 27 -21 6 -40 -94 -102 -120 -76 -8 8 -22 2 -50 -23 -21 -19 -43
-35 -48 -35 -6 0 -26 -16 -46 -35 -60 -60 -161 -87 -183 -48 -9 17 -11 17 -45
0 -42 -20 -97 -22 -114 -5 -7 7 -12 26 -12 44 0 38 25 52 50 29 16 -14 21 -14
59 1 22 9 41 21 41 28 0 6 -16 22 -35 35 -31 21 -36 22 -50 7 -15 -14 -104
-46 -129 -46 -6 0 -24 7 -39 15 -25 13 -33 13 -64 0 -35 -15 -67 -8 -75 15 -2
7 -20 2 -45 -12 -35 -19 -43 -20 -57 -9 -9 7 -16 24 -16 37 0 28 -12 31 -31 8
-7 -8 -34 -26 -61 -40 -93 -47 -213 -22 -260 54 -33 54 -31 127 6 183 72 110
184 155 284 113z"/>
<path d="M267 720 c-43 -13 -115 -77 -137 -120 -90 -176 135 -296 283 -152 46
44 77 100 77 140 0 33 -38 89 -78 113 -33 21 -107 31 -145 19z m118 -61 c108
-48 97 -177 -20 -230 -123 -56 -236 15 -222 140 6 50 26 71 92 95 57 20 95 19
150 -5z"/>
<path d="M217 629 c-45 -24 -58 -53 -47 -103 10 -47 33 -72 77 -87 60 -20 150
19 181 78 17 30 -3 92 -33 103 -13 5 -26 14 -30 19 -11 18 -107 12 -148 -10z
m156 -33 c60 -48 5 -126 -89 -126 -57 0 -84 25 -84 79 0 35 3 40 38 54 54 23
102 20 135 -7z"/>
<path d="M628 699 c-14 -8 -18 -23 -18 -65 0 -72 -11 -91 -59 -99 -54 -9 -73
-33 -69 -86 2 -24 9 -44 16 -47 7 -2 30 14 52 36 40 43 50 40 50 -15 0 -22 3
-24 27 -18 36 9 38 12 23 30 -15 18 -9 116 15 243 6 34 -4 40 -37 21z"/>
<path d="M1242 532 c-19 -14 -25 -31 -29 -80 -4 -41 -2 -62 5 -62 17 0 70 49
77 70 8 26 21 25 28 0 7 -26 28 -25 58 0 14 11 18 19 9 18 -8 -2 -19 11 -26
32 -11 32 -15 35 -55 38 -30 1 -51 -4 -67 -16z"/>
<path d="M2412 745 c-12 -9 -34 -37 -49 -63 -28 -47 -28 -48 -27 -229 0 -178
1 -183 24 -208 48 -51 110 -14 110 64 0 34 6 37 29 18 15 -13 45 -26 179 -81
106 -44 145 -32 145 44 0 34 4 40 30 51 22 10 34 10 48 1 24 -16 68 -15 99 1
22 11 27 10 43 -10 22 -27 53 -29 87 -6 15 11 45 18 73 19 51 1 86 20 121 67
16 22 18 31 8 52 -7 14 -23 30 -37 35 -18 7 -25 17 -25 35 0 38 -35 68 -73 62
-18 -2 -42 0 -53 5 -15 7 -30 6 -50 -4 -34 -17 -145 -16 -189 1 -24 10 -37 9
-71 -4 -23 -9 -45 -23 -48 -31 -5 -14 -8 -14 -22 0 -8 9 -29 16 -46 16 -28 0
-30 2 -25 27 7 37 -17 79 -49 87 -19 5 -36 0 -63 -17 -20 -13 -46 -29 -59 -36
-22 -12 -22 -11 -20 35 1 38 -3 51 -21 66 -28 22 -40 23 -69 3z m51 -98 c-1
-45 3 -67 11 -67 6 0 42 18 80 40 38 23 77 39 85 38 47 -9 8 -106 -56 -144
l-45 -26 26 -27 c14 -14 39 -34 56 -44 l30 -18 0 54 c0 61 19 87 66 90 25 2
29 -2 32 -25 3 -26 3 -26 33 -10 16 9 29 22 29 29 0 16 33 33 65 33 18 0 28
-7 35 -25 l9 -25 33 20 c27 15 40 17 73 10 30 -7 45 -5 62 5 29 19 63 19 63 0
0 -19 5 -19 36 1 31 21 40 13 51 -46 8 -41 11 -45 36 -42 22 3 27 -1 27 -18 0
-11 -12 -32 -26 -45 -28 -26 -63 -32 -94 -15 -15 8 -25 4 -49 -21 -42 -42 -65
-36 -71 20 l-5 43 -20 -22 c-47 -53 -113 -62 -136 -19 l-11 21 -24 -23 c-18
-17 -38 -24 -71 -24 -53 -1 -66 -16 -28 -33 22 -10 26 -18 23 -45 -3 -29 -6
-32 -31 -29 -35 4 -232 87 -269 114 -36 25 -48 16 -48 -37 0 -58 -8 -75 -35
-75 -31 0 -35 22 -36 203 -1 164 1 175 38 225 40 53 58 40 56 -41z"/>
<path d="M2421 666 c-28 -44 -35 -127 -26 -272 8 -115 21 -124 24 -17 1 52 13
60 54 35 49 -31 122 -68 153 -80 16 -5 46 -17 66 -26 33 -14 37 -14 32 -1 -4
8 -12 15 -20 15 -8 0 -14 3 -14 8 0 4 -13 13 -30 20 -37 17 -169 142 -155 148
47 20 108 70 120 97 17 42 10 52 -23 28 -30 -21 -99 -57 -138 -72 l-26 -9 4
80 c2 44 2 80 1 80 -1 0 -11 -15 -22 -34z"/>
<path d="M2850 540 c-12 -7 -12 -12 -2 -22 16 -16 15 -68 -3 -92 -20 -26 -38
-10 -33 30 6 53 -25 45 -53 -13 -13 -27 -28 -46 -34 -43 -6 3 -9 31 -7 63 2
31 0 57 -5 57 -22 -1 -32 -21 -38 -82 -7 -68 -7 -68 17 -68 14 0 37 9 51 20
23 19 27 19 35 4 11 -20 40 -12 81 22 34 28 46 69 32 107 -11 29 -18 32 -41
17z"/>
<path d="M3090 525 c-30 -22 -35 -23 -50 -10 -27 24 -68 18 -101 -14 -46 -47
-36 -111 18 -111 27 0 103 70 103 94 0 10 6 16 13 14 7 -3 14 -30 17 -67 l5
-63 21 24 c11 12 28 34 36 46 l16 24 14 -29 c17 -35 38 -39 69 -13 13 12 18
19 11 15 -21 -11 -41 14 -48 61 -3 24 -10 44 -14 44 -8 0 -44 -41 -67 -76 -11
-16 -12 -10 -7 34 4 28 5 52 2 52 -2 0 -19 -11 -38 -25z"/>
<path d="M3495 749 c-143 -37 -173 -50 -204 -84 -17 -20 -31 -45 -31 -56 0
-58 51 -82 105 -49 31 19 34 20 39 3 7 -22 1 -147 -9 -190 -6 -26 -3 -36 20
-59 24 -23 32 -26 73 -21 49 6 129 37 173 68 25 18 26 18 51 -12 21 -23 34
-29 68 -29 53 0 89 19 134 72 27 31 36 50 36 77 -1 38 -32 84 -66 95 -15 5
-19 16 -19 57 0 44 -4 54 -32 79 -18 16 -49 34 -70 40 -54 16 -220 21 -268 9z
m249 -40 c22 -6 52 -24 69 -40 30 -30 31 -38 11 -106 -5 -20 -3 -23 20 -23 31
0 76 -40 76 -67 0 -48 -83 -123 -136 -123 -35 0 -64 29 -64 62 0 10 -2 18 -6
18 -3 0 -35 -18 -72 -40 -73 -45 -159 -74 -186 -64 -23 9 -37 37 -25 55 5 7 9
65 9 128 l0 114 -32 -7 c-17 -3 -39 -13 -48 -21 -22 -20 -59 -19 -67 1 -3 9 6
28 26 48 27 28 48 37 124 55 51 11 103 23 117 25 34 6 136 -3 184 -15z"/>
<path d="M3510 691 c-14 -5 -51 -14 -82 -20 -53 -11 -108 -42 -108 -60 0 -4
21 2 48 15 26 13 65 26 87 29 35 6 38 5 23 -8 -16 -12 -17 -29 -13 -135 2 -70
0 -124 -6 -127 -5 -4 -9 -13 -9 -21 0 -67 284 88 338 185 55 97 7 142 -157
147 -53 2 -107 0 -121 -5z m210 -49 c26 -13 36 -24 38 -46 5 -42 -4 -70 -33
-98 -31 -31 -148 -93 -192 -103 l-33 -7 0 54 c0 29 5 90 11 135 11 77 13 82
38 86 44 7 134 -4 171 -21z"/>
<path d="M3546 632 c-7 -12 -27 -204 -21 -210 5 -6 69 21 134 57 47 26 83 74
79 106 -4 30 -64 55 -130 55 -31 0 -59 -3 -62 -8z"/>
<path d="M2007 734 c-107 -11 -359 -48 -414 -59 -12 -3 -35 -17 -52 -31 -26
-22 -31 -33 -31 -70 0 -39 3 -44 26 -50 14 -4 57 1 94 10 37 9 75 16 83 16 17
0 18 -4 37 -155 16 -125 33 -142 120 -119 30 8 67 23 81 33 31 23 86 29 116
13 54 -29 209 7 226 53 10 25 8 73 -3 80 -5 3 -10 21 -10 40 0 66 -70 92 -165
60 -35 -12 -50 -13 -66 -4 -13 6 -47 9 -80 7 -33 -2 -59 -2 -59 1 1 22 30 34
128 51 121 20 151 32 153 58 5 75 -19 84 -184 66z m148 -49 c0 -18 -14 -23
-125 -43 -69 -12 -130 -24 -137 -26 -9 -4 -24 -112 -17 -124 1 -2 20 6 41 18
25 13 54 19 78 18 34 -3 40 -7 50 -38 l12 -35 13 26 c9 19 27 31 62 43 65 21
81 20 103 -4 16 -17 16 -24 6 -44 -7 -13 -29 -33 -49 -44 -24 -14 -31 -22 -19
-22 10 0 28 7 41 15 29 20 58 10 54 -19 -4 -26 -63 -57 -122 -63 -31 -4 -47 0
-66 15 -19 16 -29 18 -52 10 -20 -7 -33 -7 -42 1 -10 8 -18 6 -32 -10 -25 -27
-72 -52 -85 -44 -5 4 -16 1 -24 -5 -8 -6 -23 -9 -34 -5 -16 5 -20 18 -25 78
-4 40 -12 103 -18 140 l-12 69 -43 -7 c-24 -3 -70 -13 -100 -21 -87 -23 -109
-2 -54 50 26 25 44 29 222 56 217 32 264 37 329 36 38 -1 45 -4 45 -21z"/>
<path d="M1985 673 c-296 -38 -443 -69 -422 -89 2 -2 48 5 102 16 128 26 138
26 129 -2 -4 -13 -7 -30 -6 -38 9 -110 26 -227 32 -233 11 -12 18 26 30 173 6
69 15 129 19 133 4 4 55 16 112 26 90 16 93 26 4 14z"/>
<path d="M2128 499 c-15 -6 -36 -26 -48 -45 -25 -43 -42 -40 -53 9 -8 35 -11
37 -47 37 -60 0 -90 -32 -97 -102 -3 -32 -3 -58 1 -58 19 0 48 24 71 58 24 35
26 36 31 15 8 -29 33 -29 68 -2 24 19 26 19 26 2 0 -35 17 -47 61 -46 50 2 80
23 32 23 -19 0 -33 6 -37 16 -7 19 1 34 18 34 20 0 66 39 66 56 0 16 -50 18
-92 3z"/>
</g>
</svg>
