<?xml version="1.0" standalone="no"?>
<!DOCTYPE svg PUBLIC "-//W3C//DTD SVG 20010904//EN"
 "http://www.w3.org/TR/2001/REC-SVG-20010904/DTD/svg10.dtd">
<svg version="1.0" xmlns="http://www.w3.org/2000/svg"
 width="300.000000pt" height="300.000000pt" viewBox="0 0 300.000000 300.000000"
 preserveAspectRatio="xMidYMid meet">
<metadata>
Created by potrace 1.10, written by Peter Selinger 2001-2011
</metadata>
<g transform="translate(0.000000,300.000000) scale(0.100000,-0.100000)"
fill="#ffffff" stroke="none">
<path d="M855 2972 c-96 -33 -192 -124 -231 -219 -21 -50 -21 -138 0 -188 39
-91 121 -146 234 -153 77 -5 138 11 196 51 l29 20 16 -20 c32 -40 58 -47 103
-24 37 18 44 19 69 5 34 -17 64 -17 104 0 25 10 36 10 62 -1 18 -7 48 -13 68
-13 33 0 35 -2 29 -24 -9 -39 14 -94 46 -111 36 -19 52 -19 123 0 52 14 60 13
82 -1 50 -33 213 20 271 88 14 18 43 40 63 49 20 8 42 23 50 32 8 11 28 17 53
17 47 0 102 27 143 69 39 42 40 94 1 127 -15 13 -34 24 -42 24 -8 0 -14 9 -14
19 0 51 -127 71 -204 32 l-38 -20 -23 27 c-18 21 -31 26 -71 26 -27 0 -64 -8
-82 -18 -30 -15 -36 -16 -50 -3 -31 28 -86 31 -137 8 -40 -18 -53 -19 -84 -10
-35 10 -60 7 -167 -26 l-21 -7 13 88 c16 96 8 123 -40 145 -32 15 -102 -6
-138 -41 -26 -26 -28 -35 -29 -107 l-1 -78 -15 53 c-43 144 -223 234 -368 184z
m215 -59 c75 -43 120 -107 120 -172 l0 -44 36 6 c20 3 39 8 42 11 2 3 7 42 11
87 5 72 9 84 31 100 39 29 86 35 98 13 10 -20 -2 -153 -18 -209 -4 -16 -11
-54 -15 -82 -6 -43 -4 -53 8 -53 9 0 17 14 21 38 10 68 56 100 167 118 28 5
41 2 55 -12 18 -19 20 -18 76 11 70 37 107 30 124 -24 7 -23 13 -29 17 -18 3
8 31 27 62 42 46 23 61 26 88 19 29 -9 32 -14 35 -51 3 -34 -1 -44 -23 -61
l-25 -20 27 -22 28 -22 3 28 c8 85 69 134 163 134 62 0 79 -11 79 -51 0 -30
14 -46 25 -29 19 30 62 -13 50 -50 -14 -45 -141 -101 -160 -70 -3 6 -17 -2
-30 -18 -13 -16 -43 -37 -67 -48 -23 -10 -56 -33 -71 -51 -39 -44 -83 -70
-142 -83 -59 -13 -91 -7 -100 19 -6 19 -7 19 -48 1 -24 -11 -61 -22 -84 -26
-34 -5 -45 -2 -62 15 -23 23 -27 61 -11 92 13 23 43 25 60 4 16 -20 36 -19 87
5 50 22 49 33 -8 74 -36 25 -42 27 -57 13 -26 -23 -119 -57 -157 -57 -36 0
-85 18 -85 31 0 4 -19 -1 -42 -11 -58 -26 -84 -25 -104 5 -15 23 -19 24 -33
12 -9 -8 -30 -22 -47 -30 -28 -14 -33 -14 -53 -1 -14 11 -21 26 -21 50 0 19
-2 34 -4 34 -3 0 -19 -13 -37 -30 -90 -81 -218 -103 -317 -54 -116 58 -149
188 -78 306 36 61 129 140 183 155 57 17 150 6 203 -24z m634 -432 c7 -11 -22
-23 -35 -15 -5 3 -7 10 -4 15 8 12 32 12 39 0z"/>
<path d="M888 2906 c-71 -17 -156 -89 -189 -161 -22 -48 -24 -126 -5 -163 66
-127 246 -136 373 -19 58 54 86 109 87 172 1 42 -4 56 -33 92 -57 71 -143 100
-233 79z m147 -84 c64 -36 88 -78 82 -146 -4 -42 -10 -55 -44 -86 -54 -51
-142 -83 -202 -74 -98 13 -151 76 -151 177 0 70 28 107 103 136 76 29 150 27
212 -7z"/>
<path d="M860 2811 c-45 -14 -89 -41 -100 -60 -14 -27 -12 -101 3 -130 17 -33
56 -61 103 -71 88 -21 224 58 224 129 0 42 -28 101 -47 101 -8 0 -26 9 -40 20
-27 21 -93 26 -143 11z m133 -51 c14 -11 30 -20 35 -20 12 0 22 -24 22 -55 0
-29 -57 -78 -109 -94 -45 -13 -87 -7 -121 19 -20 15 -24 27 -25 72 0 53 0 53
45 76 56 28 119 29 153 2z"/>
<path d="M1344 2882 c-31 -14 -32 -16 -36 -100 -5 -96 -16 -112 -77 -112 -49
-1 -79 -26 -82 -70 -4 -61 1 -100 11 -100 27 0 87 51 107 91 l23 44 0 -55 c0
-80 7 -86 69 -65 28 9 53 21 56 26 9 14 25 11 25 -6 0 -24 38 -38 88 -30 51 8
122 40 122 55 0 15 -9 12 -37 -10 -31 -24 -76 -26 -97 -4 -26 26 -19 39 34 61
32 14 54 30 62 48 16 36 0 45 -59 34 -77 -15 -96 -29 -114 -84 -19 -56 -54
-80 -84 -55 -20 16 -19 118 2 168 8 19 13 41 12 50 -1 10 1 38 5 64 11 62 7
68 -30 50z m206 -236 c0 -17 -28 -41 -37 -32 -10 9 16 58 27 51 6 -3 10 -12
10 -19z m-300 -6 c0 -6 -8 -25 -17 -43 l-18 -32 -3 28 c-2 16 -1 35 2 43 6 16
36 19 36 4z"/>
<path d="M1730 2704 c-51 -22 -100 -63 -100 -83 0 -12 23 -32 66 -57 66 -39
104 -75 104 -100 0 -22 -76 -66 -125 -71 -37 -5 -46 -2 -52 12 -6 18 -7 18
-13 -1 -4 -10 -5 -27 -2 -37 6 -25 54 -18 129 18 39 20 60 38 79 71 25 42 25
46 10 69 -8 13 -45 45 -81 70 -36 26 -65 51 -65 56 0 9 33 29 49 29 6 0 11
-11 11 -25 0 -32 10 -32 40 0 19 20 22 30 14 42 -15 23 -24 24 -64 7z"/>
<path d="M1925 2701 c-22 -10 -53 -32 -69 -49 -34 -36 -28 -50 36 -83 59 -30
108 -78 108 -105 0 -20 -10 -30 -52 -49 -63 -29 -106 -32 -125 -7 -12 15 -13
13 -11 -18 3 -34 4 -35 40 -33 79 5 188 86 188 141 0 22 -24 46 -108 112 -55
43 -57 54 -10 65 23 6 27 4 30 -19 3 -25 4 -26 26 -11 25 19 29 60 6 69 -19 7
-12 9 -59 -13z"/>
<path d="M2133 2684 c-51 -25 -61 -43 -68 -128 l-8 -79 34 19 c19 11 50 41 69
67 l35 47 9 -30 c10 -33 24 -37 64 -16 31 16 70 56 55 56 -6 0 -16 -7 -23 -15
-19 -23 -38 -2 -45 49 -7 42 -7 43 -48 44 -23 1 -56 -6 -74 -14z m33 -56 c-29
-69 -40 -88 -48 -88 -5 0 -7 8 -4 18 2 9 8 33 11 52 9 46 12 50 36 50 18 0 18
-2 5 -32z"/>
<path d="M1842 2563 c2 -4 10 -20 18 -36 12 -24 11 -32 -3 -63 -15 -32 -16
-35 -1 -41 22 -8 109 29 109 47 0 8 -29 34 -64 58 -34 24 -61 40 -59 35z"/>
<path d="M1457 2212 c-3 -4 -15 -55 -27 -113 -27 -135 -70 -263 -122 -361
l-41 -79 -21 38 c-60 106 -254 114 -339 14 -37 -45 -38 -116 -2 -160 34 -40
100 -64 164 -60 28 2 51 3 51 2 0 -1 -25 -21 -55 -44 -94 -71 -141 -212 -117
-354 19 -116 47 -121 136 -25 30 33 58 60 61 60 3 0 -5 -21 -18 -47 -42 -83
-88 -242 -80 -274 6 -20 33 -32 55 -24 8 3 22 19 31 35 28 47 122 136 159 149
18 7 42 16 53 21 15 5 25 26 37 79 35 148 115 279 259 421 113 112 208 182
382 281 106 61 127 76 127 96 0 51 -66 44 -257 -26 -153 -56 -313 -153 -411
-248 -30 -29 -55 -53 -57 -53 -2 0 14 29 35 64 21 35 49 97 62 137 20 65 23
93 22 234 -1 187 -12 238 -56 243 -14 2 -29 -1 -31 -6z m47 -237 c1 -183 -13
-243 -85 -367 -38 -65 -168 -206 -282 -307 -27 -24 -47 -45 -44 -47 2 -2 36
19 76 46 40 28 75 50 77 50 10 0 -32 -69 -77 -125 -63 -79 -167 -181 -176
-172 -3 4 -7 51 -7 105 0 140 23 194 113 266 73 58 146 135 193 204 77 112
157 325 180 482 10 64 12 71 21 50 6 -14 11 -97 11 -185z m595 -119 c-2 -2
-35 -19 -74 -39 -105 -52 -270 -165 -356 -243 -195 -175 -289 -324 -333 -526
-4 -16 -13 -28 -22 -28 -45 0 -160 -92 -202 -162 -17 -28 -35 -38 -27 -15 2 6
13 41 23 77 113 374 361 676 686 834 129 62 338 133 305 102z m-946 -127 c69
-35 86 -92 45 -144 -74 -95 -278 -62 -278 45 0 37 27 72 75 98 26 15 130 15
158 1z m147 -344 c-7 -8 -17 -15 -23 -15 -5 0 -2 9 8 20 21 23 35 19 15 -5z"/>
<path d="M2495 673 c-16 -2 -82 -15 -145 -30 -110 -25 -117 -29 -162 -73 -54
-53 -60 -82 -27 -124 25 -32 75 -35 112 -6 14 11 30 20 35 20 11 0 8 -170 -4
-247 -5 -37 -3 -45 21 -69 24 -24 32 -26 88 -22 62 4 194 55 218 84 15 18 39
18 39 0 0 -21 46 -54 85 -62 63 -11 194 83 211 153 15 57 -26 130 -81 147 -17
5 -20 13 -17 59 3 46 0 58 -23 86 -37 43 -74 61 -164 77 -74 13 -124 15 -186
7z m232 -58 c71 -21 103 -54 103 -105 0 -23 -7 -54 -15 -70 l-16 -30 40 0 c48
0 91 -39 91 -83 0 -50 -109 -147 -165 -147 -26 0 -75 55 -75 85 l0 26 -57 -37
c-131 -84 -246 -117 -281 -82 -14 14 -16 54 -3 63 7 4 9 236 2 277 -2 10 -82
-20 -102 -38 -24 -22 -63 -14 -67 12 -5 38 43 82 116 104 167 50 316 59 429
25z"/>
<path d="M2420 588 c-120 -22 -183 -47 -199 -77 -14 -26 -11 -26 31 -1 35 20
156 55 165 47 2 -3 -4 -10 -14 -16 -18 -9 -19 -21 -17 -153 2 -93 -1 -151 -8
-165 -56 -110 290 52 382 178 32 45 46 95 36 132 -7 29 -57 52 -140 67 -79 13
-111 12 -236 -12z m277 -51 c18 -9 37 -26 43 -37 14 -27 -3 -90 -35 -129 -31
-37 -213 -131 -253 -131 -29 0 -29 0 -25 52 2 29 9 98 15 153 7 55 11 104 10
109 -5 16 211 1 245 -17z"/>
<path d="M2471 429 c-19 -160 -19 -159 -5 -159 19 0 171 79 204 106 29 25 53
84 44 107 -10 28 -52 41 -140 45 l-91 4 -12 -103z m186 50 c46 -17 8 -65 -96
-123 l-64 -37 7 68 c12 117 10 114 75 107 31 -4 66 -10 78 -15z"/>
<path d="M2781 369 c-60 -36 -78 -96 -43 -139 15 -19 24 -22 47 -16 36 9 115
87 115 113 0 46 -71 71 -119 42z m69 -44 c11 -30 4 -52 -20 -65 -42 -22 -67
13 -44 59 19 38 51 41 64 6z"/>
<path d="M1101 635 c-65 -75 -66 -78 -65 -320 0 -146 5 -227 12 -242 16 -29
74 -48 101 -33 32 16 48 56 50 118 l1 24 31 -26 c17 -14 37 -26 44 -26 8 0 34
-9 57 -19 195 -88 233 -96 269 -60 16 16 20 31 18 65 -3 42 -1 45 34 63 30 15
38 16 48 5 20 -24 77 -28 120 -9 l39 18 21 -27 c27 -34 71 -35 115 -1 24 19
40 24 59 19 89 -22 206 77 171 147 -6 13 -25 28 -43 33 -26 8 -32 15 -36 49
-7 55 -26 69 -89 72 -30 1 -60 5 -66 9 -7 4 -31 -2 -53 -14 -23 -11 -49 -18
-60 -15 -32 10 -98 8 -113 -4 -10 -8 -17 -6 -31 9 -34 37 -122 22 -162 -28
-10 -13 -14 -12 -29 3 -12 12 -29 16 -56 13 -41 -4 -43 -2 -28 36 18 49 -20
106 -71 106 -17 0 -49 -13 -72 -29 -23 -15 -52 -33 -64 -40 -22 -11 -23 -11
-20 43 3 66 -19 96 -69 96 -24 0 -39 -9 -63 -35z m92 -18 c2 -7 1 -43 -3 -82
-4 -38 -5 -72 -3 -74 5 -6 90 36 141 71 51 33 77 36 92 8 9 -17 6 -32 -14 -75
-20 -44 -34 -59 -75 -82 -28 -15 -51 -31 -51 -35 0 -9 111 -98 123 -98 4 0 7
29 7 64 0 58 3 67 27 86 17 13 38 20 57 18 30 -3 31 -4 30 -53 -1 -27 1 -40 3
-27 3 14 18 29 39 39 19 9 34 22 34 29 0 21 42 44 78 44 28 0 35 -5 43 -30
l11 -30 30 22 c33 23 100 27 124 7 9 -7 23 -3 52 16 42 28 69 25 74 -7 3 -20
3 -20 27 1 45 39 65 24 76 -56 6 -50 8 -52 34 -47 18 4 32 0 40 -10 12 -14 8
-22 -27 -56 -46 -46 -89 -53 -120 -20 -19 20 -19 20 -32 -5 -17 -33 -56 -57
-83 -53 -20 3 -22 9 -21 55 l2 53 -45 -40 c-68 -60 -141 -64 -158 -9 -7 21 -7
21 -33 -3 -40 -37 -85 -52 -112 -38 -16 9 -25 8 -36 -1 -13 -11 -11 -15 18
-28 28 -14 33 -22 35 -54 4 -67 -19 -64 -235 34 -23 10 -48 19 -55 19 -7 0
-34 16 -61 35 -27 19 -53 35 -58 35 -4 0 -8 -29 -8 -64 0 -78 -22 -116 -57
-98 -19 11 -22 24 -28 149 -4 75 -5 174 -2 220 4 71 9 90 37 132 17 27 37 52
43 54 16 6 35 -2 40 -16z m180 -277 c-4 -16 -8 -18 -20 -9 -11 10 -11 14 -1
20 21 14 26 10 21 -11z"/>
<path d="M1130 562 c-24 -35 -25 -44 -26 -202 -1 -181 4 -262 15 -255 5 2 11
43 14 91 3 48 8 88 11 91 2 2 30 -12 61 -32 32 -21 62 -38 69 -39 6 -1 22 -8
36 -16 36 -20 220 -100 232 -100 5 0 6 5 3 10 -3 6 -14 10 -25 10 -10 0 -20 7
-24 15 -3 8 -12 15 -21 15 -8 0 -15 4 -15 9 0 5 -10 13 -22 17 -27 8 -49 29
-40 38 3 4 -1 4 -11 1 -12 -5 -36 13 -87 67 -38 40 -70 75 -69 78 0 3 27 18
60 35 61 30 85 56 99 106 10 35 -1 37 -41 8 -28 -19 -184 -99 -195 -99 -4 0 3
108 11 163 6 37 -5 34 -35 -11z m90 -176 c-17 -17 -12 -51 12 -81 21 -27 21
-28 3 -22 -83 25 -100 36 -103 62 -5 42 2 50 52 51 33 1 44 -2 36 -10z"/>
<path d="M1643 413 c-9 -3 -7 -12 7 -31 24 -32 19 -81 -11 -108 -25 -23 -34
-12 -33 42 2 43 -8 53 -31 36 -5 -4 -21 -29 -35 -57 -44 -88 -65 -61 -46 58
l7 48 -29 -15 c-28 -14 -30 -20 -34 -88 -6 -93 4 -108 57 -82 20 9 39 23 42
31 7 17 23 17 23 -1 0 -61 133 20 146 88 11 61 -18 98 -63 79z"/>
<path d="M1930 394 c-29 -25 -32 -25 -49 -10 -10 9 -35 16 -55 16 -52 0 -106
-52 -106 -102 0 -45 29 -73 65 -64 34 9 104 72 111 102 3 12 12 25 19 28 16 6
26 -52 18 -110 -3 -25 -2 -44 4 -44 14 0 59 51 79 90 l17 35 8 -28 c17 -61 50
-73 96 -33 l28 24 -26 -5 c-32 -6 -39 4 -53 75 l-11 55 -32 -27 c-18 -15 -38
-43 -45 -61 -12 -36 -29 -48 -23 -17 2 9 6 36 8 60 6 50 -7 54 -53 16z m-92
-36 c19 -19 15 -66 -7 -78 -28 -14 -39 -13 -50 9 -8 14 -6 27 5 50 16 33 32
39 52 19z"/>
<path d="M655 649 c-83 -8 -140 -16 -395 -55 -147 -23 -150 -24 -191 -66 -45
-46 -52 -93 -20 -123 23 -20 61 -18 176 9 38 9 71 16 71 16 8 0 24 -67 28
-110 15 -183 23 -212 72 -230 35 -14 163 28 192 62 15 18 93 15 149 -6 71 -26
194 9 242 70 26 33 27 55 2 85 -13 17 -17 33 -14 56 5 26 0 38 -25 63 -37 37
-84 40 -173 10 -54 -19 -62 -19 -82 -5 -25 17 -103 20 -142 5 -23 -9 -26 -8
-21 6 3 8 6 22 6 30 0 8 10 14 25 14 39 0 257 41 278 52 29 15 39 55 22 87
-23 45 -30 46 -200 30z m165 -44 c9 -11 10 -18 1 -29 -10 -12 -135 -40 -278
-61 -24 -4 -45 -10 -47 -13 -8 -14 -17 -167 -9 -156 37 51 171 75 193 35 5
-11 10 -32 10 -48 l0 -28 22 36 c16 29 32 40 70 53 28 9 64 16 81 16 34 0 67
-24 67 -50 0 -23 -43 -68 -82 -85 -31 -13 -31 -14 -8 -14 14 0 34 6 44 14 25
19 65 19 72 1 17 -44 -72 -97 -165 -99 -44 -1 -56 2 -72 22 -17 21 -21 22 -53
10 -28 -10 -38 -10 -50 0 -13 11 -20 9 -45 -18 -33 -35 -75 -54 -102 -46 -11
4 -19 2 -19 -3 0 -16 -30 -23 -49 -12 -15 8 -21 31 -30 127 -7 65 -17 133 -22
151 -6 17 -7 41 -4 52 6 18 3 20 -17 16 -205 -46 -251 -50 -256 -24 -2 9 10
31 25 48 34 38 86 49 438 94 66 8 134 17 150 19 73 10 123 7 135 -8z"/>
<path d="M675 583 c-43 -5 -245 -33 -275 -37 -14 -3 -76 -12 -139 -22 -92 -13
-118 -21 -140 -41 l-26 -24 25 4 c14 3 80 16 148 30 130 26 134 25 111 -27 -9
-18 -9 -33 -1 -53 6 -15 13 -64 17 -108 3 -44 10 -98 14 -120 7 -39 8 -39 19
-15 6 14 16 94 22 178 6 84 13 159 16 166 7 17 57 30 199 51 60 9 111 18 114
21 5 4 -56 3 -104 -3z"/>
<path d="M791 367 c-19 -8 -44 -29 -60 -52 -36 -54 -54 -52 -65 8 l-9 47 -44
0 c-53 0 -110 -34 -117 -70 -12 -64 -17 -130 -9 -130 26 0 89 60 105 100 l10
25 14 -33 c16 -37 34 -37 87 0 l27 19 0 -31 c0 -53 61 -62 153 -23 20 9 37 20
37 25 0 12 -12 9 -34 -7 -11 -8 -32 -15 -46 -15 -53 0 -71 54 -21 65 35 7 84
50 78 68 -5 17 -65 19 -106 4z m29 -52 c-29 -34 -34 -2 -6 34 9 12 12 11 14
-3 2 -9 -2 -23 -8 -31z m-230 19 c0 -16 -44 -104 -52 -104 -5 0 -7 8 -4 18 3
9 8 31 12 47 4 17 9 33 11 38 5 8 33 10 33 1z"/>
</g>
</svg>
