<svg xmlns="http://www.w3.org/2000/svg" version="1.0" width="700.000000" height="183.000000" preserveAspectRatio="xMidYMid meet" style=""><rect id="backgroundrect" width="100%" height="100%" x="0" y="0" fill="none" stroke="none"/>
<metadata>
Created by potrace 1.12, written by Peter Selinger 2001-2015
</metadata>

<g class="currentLayer" style=""><title>Layer 1</title><g transform="translate(0,183) scale(0.10000000149011612,-0.10000000149011612) " fill="#ffffff" stroke="#ffffff" id="svg_1" class="selected" stroke-opacity="1" opacity="1" filter="" fill-opacity="1">
<path d="M1728 1662 c-55 -33 -70 -99 -43 -189 14 -48 14 -55 -10 -138 -30 -103 -62 -169 -78 -162 -180 76 -275 99 -427 101 -63 0 -146 -3 -184 -7 l-68 -9 5 -36 c3 -21 9 -69 13 -109 l7 -72 -80 33 -80 34 -84 -78 c-69 -64 -92 -93 -132 -169 -27 -50 -52 -91 -55 -91 -4 0 -43 36 -86 79 -76 76 -79 81 -73 117 10 59 -10 130 -45 159 -37 31 -49 31 -79 -1 -30 -32 -30 -82 0 -168 l21 -60 -22 -23 -22 -23 60 -61 c57 -59 170 -137 228 -159 58 -22 35 -1 -46 41 -83 44 -229 171 -214 187 4 4 33 12 64 18 l57 10 84 -80 c46 -45 85 -76 87 -71 2 6 34 61 71 122 49 83 82 126 126 165 l60 52 71 -26 c39 -14 79 -29 90 -34 17 -7 18 -3 13 47 -4 30 -8 81 -9 114 l-2 60 60 13 c85 18 278 10 379 -16 104 -28 199 -67 203 -84 1 -7 -8 -26 -21 -41 l-22 -29 -55 22 c-41 17 -77 23 -140 23 -118 0 -240 -13 -240 -27 0 -35 32 -181 46 -211 9 -19 38 -53 65 -76 27 -22 47 -45 44 -50 -3 -5 -43 -20 -88 -33 -136 -41 -129 -41 -175 -2 -24 19 -67 49 -97 66 -29 17 -68 44 -86 61 l-33 31 -38 -44 c-20 -23 -38 -46 -38 -49 0 -3 -38 -40 -85 -82 -47 -43 -81 -77 -75 -77 18 0 158 130 196 181 l34 46 97 -64 c107 -70 145 -102 138 -114 -3 -4 -59 -29 -126 -55 -96 -37 -126 -54 -150 -83 -31 -38 -159 -284 -159 -307 0 -23 53 -16 208 26 190 52 226 56 342 35 136 -25 138 -25 217 -32 84 -7 125 6 142 44 10 21 9 29 -1 38 -16 15 -170 45 -221 43 l-38 -1 7 -45 7 -44 -54 8 c-30 5 -103 9 -164 9 -97 0 -126 -5 -241 -38 -72 -20 -141 -37 -154 -37 -19 0 -21 4 -15 27 10 45 106 212 145 254 27 29 63 49 150 84 139 56 260 99 265 93 3 -2 -5 -50 -17 -105 l-21 -101 -42 -6 c-23 -4 -73 -22 -111 -41 l-69 -34 60 6 c37 3 94 -1 149 -11 48 -10 90 -15 93 -13 7 8 -138 37 -186 37 -37 1 -42 3 -28 11 31 18 128 24 137 8 7 -11 13 -10 30 6 18 16 82 44 101 45 4 0 10 -12 13 -26 9 -36 31 -24 31 18 0 28 13 50 81 129 44 52 105 126 136 164 58 73 92 107 168 167 l45 36 60 -19 c84 -26 89 -25 81 14 -3 20 -21 46 -46 68 l-40 37 45 93 c33 68 42 95 34 105 -6 7 -8 18 -4 23 9 16 -83 333 -103 353 -16 16 -19 16 -44 0z m77 -158 c25 -80 49 -152 52 -160 9 -24 -43 -16 -77 12 -57 49 -97 163 -79 227 9 30 36 67 50 67 4 0 29 -66 54 -146z m48 -249 c-11 -44 -102 -222 -126 -245 -13 -14 -55 -52 -93 -85 -38 -33 -107 -106 -154 -162 -47 -57 -106 -124 -131 -149 l-47 -46 -19 83 -20 83 59 39 c68 45 93 75 215 257 99 148 131 207 158 290 10 30 20 58 22 62 2 5 35 -18 73 -50 52 -44 67 -62 63 -77z m-1543 -150 c20 -21 25 -39 28 -94 5 -79 -8 -111 -42 -111 -19 0 -28 10 -45 49 -27 65 -28 130 -1 159 26 28 31 28 60 -3z m1159 -13 c29 -9 55 -21 58 -28 7 -19 -144 -229 -190 -261 l-43 -31 -52 45 c-68 58 -88 100 -97 196 l-7 77 43 1 c24 0 60 7 79 15 42 16 130 11 209 -14z m363 -49 c29 -28 38 -73 14 -73 -16 0 -78 20 -88 29 -8 7 27 71 39 71 4 0 20 -12 35 -27z m-587 -345 c8 -41 25 -141 25 -155 0 -12 -78 -58 -86 -51 -4 4 24 192 31 216 7 20 24 14 30 -10z m168 -340 c54 -11 68 -30 42 -58 -25 -27 -68 -34 -141 -20 -72 14 -80 27 -43 75 23 29 22 29 142 3z" id="svg_2" stroke="#ffffff" stroke-opacity="1" opacity="1" filter="" fill="#ffffff" fill-opacity="1"/>
<path d="M4140 1513 c-112 -12 -504 -74 -519 -82 -10 -6 -24 -18 -32 -27 -13 -16 -12 -17 16 -9 60 16 260 52 267 48 4 -2 3 -16 -3 -31 -7 -18 -7 -46 0 -87 6 -33 13 -99 17 -147 5 -81 15 -111 28 -90 2 4 12 86 21 182 9 100 21 180 28 187 7 7 71 22 142 33 72 11 135 23 140 25 12 4 -57 3 -105 -2z" id="svg_3" stroke="#ffffff" stroke-opacity="1" opacity="1" filter="" fill="#ffffff" fill-opacity="1"/>
<path d="M6227 1485 c-128 -27 -171 -44 -187 -74 -15 -29 -12 -36 8 -18 24 22 84 46 138 56 42 8 61 0 29 -12 -12 -5 -14 -31 -10 -152 2 -94 0 -155 -7 -171 -6 -13 -8 -27 -5 -31 28 -28 207 49 312 134 76 62 116 118 122 175 5 41 3 47 -23 65 -73 52 -215 62 -377 28z m258 -36 c102 -28 115 -119 28 -201 -42 -40 -208 -120 -240 -116 -28 3 -28 4 -25 63 2 33 8 96 14 140 5 44 10 90 10 103 0 21 4 22 87 22 47 0 104 -5 126 -11z" id="svg_4" stroke="#ffffff" stroke-opacity="1" opacity="1" filter="" fill="#ffffff" fill-opacity="1"/>
<path d="M2255 1486 c-16 -7 -54 -37 -83 -66 -141 -143 -78 -326 113 -324 179 1 324 205 232 326 -40 51 -99 78 -173 78 -32 -1 -72 -7 -89 -14z m163 -62 c15 -10 32 -17 38 -16 17 3 57 -77 58 -117 1 -46 -22 -82 -75 -120 -106 -77 -252 -52 -293 49 -33 84 -13 156 54 190 83 42 167 48 218 14z" id="svg_5" stroke="#ffffff" stroke-opacity="1" opacity="1" filter="" fill="#ffffff" fill-opacity="1"/>
<path d="M4728 1483 c-28 -32 -36 -57 -43 -136 -8 -88 3 -349 15 -342 4 3 11 43 15 90 4 47 11 85 16 85 12 0 113 -62 117 -72 2 -5 8 -6 13 -2 5 3 22 -4 38 -15 16 -12 33 -21 38 -21 5 0 31 -11 59 -24 67 -32 94 -40 94 -26 0 6 -8 14 -17 17 -35 14 -133 84 -128 92 2 5 -1 8 -8 7 -7 0 -38 26 -69 59 l-56 61 55 29 c60 33 100 73 109 111 9 36 1 38 -43 11 -44 -28 -132 -73 -170 -88 l-26 -10 6 96 c4 52 5 95 3 95 -1 0 -10 -8 -18 -17z" id="svg_6" stroke="#ffffff" stroke-opacity="1" opacity="1" filter="" fill="#ffffff" fill-opacity="1"/>
<path d="M710 1472 c-117 -64 -113 -275 7 -333 64 -31 120 -10 161 61 21 36 27 58 27 105 -1 134 -100 219 -195 167z m95 -16 c91 -38 110 -189 34 -265 -25 -25 -39 -31 -74 -31 -130 0 -169 219 -52 290 38 24 47 24 92 6z" id="svg_7" stroke="#ffffff" stroke-opacity="1" opacity="1" filter="" fill="#ffffff" fill-opacity="1"/>
<path d="M2700 1457 c-22 -11 -26 -20 -31 -90 -7 -87 -19 -107 -61 -107 -45 0 -85 -26 -93 -59 -8 -37 4 -101 19 -101 25 1 59 29 86 71 l30 44 0 -53 c0 -61 11 -70 66 -52 36 12 36 12 12 24 -21 11 -23 18 -22 81 1 39 8 112 16 163 7 50 11 92 8 92 -3 0 -16 -6 -30 -13z m-90 -236 c0 -10 -9 -29 -20 -42 -18 -23 -19 -23 -20 -4 0 35 12 65 26 65 8 0 14 -9 14 -19z" id="svg_8" stroke="#ffffff" stroke-opacity="1" opacity="1" filter="" fill="#ffffff" fill-opacity="1"/>
<path d="M3061 1289 c-35 -14 -80 -48 -91 -69 -9 -17 -1 -25 62 -67 71 -47 101 -83 91 -109 -12 -31 -163 -72 -163 -44 0 6 -5 10 -11 10 -6 0 -9 -10 -7 -22 3 -20 9 -23 49 -22 53 0 107 30 145 80 36 47 27 74 -44 125 -81 59 -88 70 -57 87 26 13 50 8 40 -9 -4 -5 -3 -14 0 -20 11 -16 45 20 45 48 0 25 -17 29 -59 12z" id="svg_9" stroke="#ffffff" stroke-opacity="1" opacity="1" filter="" fill="#ffffff" fill-opacity="1"/>
<path d="M3243 1284 c-46 -23 -85 -62 -81 -80 2 -9 25 -28 52 -43 64 -34 106 -74 106 -100 0 -15 -14 -28 -50 -46 -53 -27 -99 -32 -118 -13 -9 9 -12 6 -12 -15 0 -24 4 -27 33 -27 47 1 107 31 145 74 44 50 42 77 -9 118 -23 18 -55 45 -73 61 -30 26 -31 27 -11 42 24 19 38 15 45 -15 l6 -24 22 24 c44 47 8 75 -55 44z" id="svg_10" stroke="#ffffff" stroke-opacity="1" opacity="1" filter="" fill="#ffffff" fill-opacity="1"/>
<path d="M5307 1284 c-3 -4 1 -17 10 -30 19 -29 12 -87 -13 -115 -23 -26 -34 -12 -36 44 0 26 -2 47 -3 47 -19 0 -38 -20 -54 -54 -10 -22 -27 -49 -39 -59 -20 -18 -20 -18 -27 2 -3 11 -1 46 4 77 6 32 9 60 6 62 -3 3 -16 0 -30 -6 -22 -10 -25 -18 -25 -64 0 -29 -3 -62 -5 -73 -13 -52 37 -57 93 -10 30 25 30 25 35 4 11 -43 96 -1 133 65 18 32 20 44 11 77 -7 31 -14 39 -32 39 -12 0 -24 -3 -28 -6z" id="svg_11" stroke="#ffffff" stroke-opacity="1" opacity="1" filter="" fill="#ffffff" fill-opacity="1"/>
<path d="M5581 1262 c-31 -24 -34 -25 -46 -9 -20 28 -79 22 -119 -13 -39 -35 -50 -67 -36 -105 12 -31 31 -39 67 -30 35 8 103 77 103 103 0 11 7 22 15 26 20 7 29 -32 22 -100 -4 -40 -2 -54 7 -54 17 0 49 37 71 80 l18 35 13 -31 c25 -60 65 -65 109 -13 11 13 13 18 5 12 -8 -7 -20 -13 -28 -13 -16 0 -42 60 -42 99 0 16 -4 32 -8 35 -11 6 -64 -48 -86 -89 l-17 -30 5 63 c6 71 0 76 -53 34z m-77 -44 c17 -28 -4 -72 -37 -76 -30 -4 -44 17 -31 46 4 9 8 19 8 22 7 32 41 37 60 8z" id="svg_12" stroke="#ffffff" stroke-opacity="1" opacity="1" filter="" fill="#ffffff" fill-opacity="1"/>
<path d="M2862 1265 c-49 -15 -71 -38 -72 -74 0 -14 -8 -33 -17 -44 -10 -11 -12 -17 -5 -13 9 5 19 1 28 -13 11 -16 26 -21 57 -21 43 0 119 29 132 50 4 7 -11 2 -33 -11 -33 -19 -45 -22 -69 -14 -17 7 -29 19 -31 32 -3 17 6 26 40 41 50 22 73 45 64 67 -7 18 -36 18 -94 0z m33 -24 c6 -10 -21 -41 -35 -41 -5 0 -4 11 2 25 12 26 23 31 33 16z" id="svg_13" stroke="#ffffff" stroke-opacity="1" opacity="1" filter="" fill="#ffffff" fill-opacity="1"/>
<path d="M4285 1265 c-22 -8 -44 -22 -50 -31 -5 -9 -21 -30 -34 -46 -29 -35 -46 -25 -56 33 -5 31 -11 39 -28 41 -76 5 -132 -23 -141 -70 -17 -94 -17 -122 0 -122 17 0 80 60 100 95 11 19 12 19 23 -7 13 -34 38 -36 75 -7 30 23 46 18 46 -16 0 -26 17 -35 68 -35 37 0 130 36 120 45 -3 3 -19 -2 -36 -12 -24 -14 -37 -15 -59 -8 -23 9 -29 17 -31 47 -3 38 11 78 28 78 15 0 12 -21 -7 -42 -20 -22 -3 -24 37 -3 32 16 55 50 45 65 -9 14 -53 12 -100 -5z m-215 -41 c0 -14 -43 -104 -50 -104 -4 0 -4 19 1 43 4 23 8 48 9 55 0 11 40 18 40 6z" id="svg_14" stroke="#ffffff" stroke-opacity="1" opacity="1" filter="" fill="#ffffff" fill-opacity="1"/>
<path d="M3451 1260 c-57 -14 -78 -45 -86 -128 l-7 -74 32 17 c17 9 46 37 63 62 l32 45 9 -26 c13 -35 47 -34 84 2 15 15 21 21 11 14 -21 -16 -38 2 -46 52 -3 20 -11 36 -18 36 -8 0 -19 2 -27 4 -7 2 -28 0 -47 -4z m3 -74 c-9 -25 -22 -50 -30 -57 -17 -14 -17 -13 -3 51 8 38 15 50 29 50 18 0 18 -2 4 -44z" id="svg_15" stroke="#ffffff" stroke-opacity="1" opacity="1" filter="" fill="#ffffff" fill-opacity="1"/>
<path d="M6583 1235 c-30 -30 -34 -40 -31 -76 5 -73 56 -78 128 -13 48 44 57 67 36 99 -13 20 -25 25 -57 25 -33 0 -47 -6 -76 -35z m85 -7 c7 -7 12 -24 12 -38 0 -32 -17 -50 -47 -50 -32 0 -39 23 -19 65 18 36 34 43 54 23z" id="svg_16" stroke="#ffffff" stroke-opacity="1" opacity="1" filter="" fill="#ffffff" fill-opacity="1"/>
<path d="M5100 1006 c0 -2 7 -6 15 -10 8 -3 15 -1 15 4 0 6 -7 10 -15 10 -8 0 -15 -2 -15 -4z" id="svg_17" stroke="#ffffff" stroke-opacity="1" opacity="1" filter="" fill="#ffffff" fill-opacity="1"/>
<path d="M4280 802 c-48 -23 -81 -87 -87 -166 -7 -82 12 -121 66 -137 48 -14 85 -6 118 27 22 22 25 32 20 67 -4 26 -14 49 -27 59 -25 20 -90 24 -121 8 -23 -13 -24 -4 -8 53 5 20 26 53 45 72 19 19 33 35 32 35 -2 0 -19 -8 -38 -18z m52 -169 c22 -25 31 -78 18 -102 -19 -36 -72 -25 -95 20 -18 34 -19 71 -3 87 18 18 63 15 80 -5z" id="svg_18" stroke="#ffffff" stroke-opacity="1" opacity="1" filter="" fill="#ffffff" fill-opacity="1"/>
<path d="M5532 801 c-95 -6 -105 -8 -122 -31 -20 -26 -18 -42 2 -22 13 13 158 17 158 4 0 -4 -16 -24 -36 -43 -55 -52 -94 -109 -94 -138 0 -31 35 -91 53 -91 32 0 36 23 11 53 -39 47 -27 87 51 167 34 36 68 75 74 88 7 12 10 21 9 20 -2 -1 -49 -4 -106 -7z" id="svg_19" stroke="#ffffff" stroke-opacity="1" opacity="1" filter="" fill="#ffffff" fill-opacity="1"/>
<path d="M3041 703 c-74 -148 -73 -143 -6 -143 l57 0 -4 -35 c-4 -32 -2 -35 22 -35 24 0 26 3 22 34 -3 30 -1 35 20 39 23 4 23 4 1 6 -22 1 -23 4 -23 116 0 108 -1 115 -20 115 -15 0 -31 -23 -69 -97z m39 -50 l0 -78 -40 0 c-22 0 -40 1 -40 2 0 5 75 153 77 153 2 0 3 -35 3 -77z" id="svg_20" stroke="#ffffff" stroke-opacity="1" opacity="1" filter="" fill="#ffffff" fill-opacity="1"/>
<path d="M3256 779 c-14 -11 -26 -23 -26 -27 0 -4 26 -5 57 -4 l58 4 -42 -44 c-47 -48 -52 -59 -25 -51 10 2 29 -5 43 -15 32 -27 35 -106 4 -128 -25 -18 -64 -10 -87 18 -14 16 -18 17 -18 5 0 -21 38 -47 68 -47 13 0 36 7 52 15 77 40 63 139 -23 160 l-27 7 45 53 c25 29 45 58 45 64 0 20 -95 13 -124 -10z" id="svg_21" stroke="#ffffff" stroke-opacity="1" opacity="1" filter="" fill="#ffffff" fill-opacity="1"/>
<path d="M3483 788 c-41 -20 -53 -99 -20 -127 9 -7 11 2 9 34 -5 51 10 83 42 91 36 9 64 -11 72 -51 9 -49 -10 -89 -79 -163 -32 -34 -55 -67 -52 -72 9 -14 118 -12 152 2 26 11 24 12 -42 21 -38 5 -72 11 -75 14 -2 2 28 35 68 72 65 60 72 71 72 104 0 71 -76 110 -147 75z" id="svg_22" stroke="#ffffff" stroke-opacity="1" opacity="1" filter="" fill="#ffffff" fill-opacity="1"/>
<path d="M4003 788 c-42 -20 -53 -99 -17 -128 11 -10 12 -7 5 17 -19 68 30 130 83 105 32 -14 44 -69 25 -115 -7 -17 -40 -60 -72 -94 -32 -34 -56 -67 -52 -72 8 -15 117 -14 152 1 26 11 24 12 -42 21 -38 5 -72 11 -75 14 -2 2 28 35 68 72 65 60 72 71 72 104 0 71 -76 110 -147 75z" id="svg_23" stroke="#ffffff" stroke-opacity="1" opacity="1" filter="" fill="#ffffff" fill-opacity="1"/>
<path d="M4487 789 c-63 -37 -67 -219 -7 -274 28 -26 78 -21 108 9 20 20 27 38 30 85 6 80 -4 124 -34 161 -27 31 -63 39 -97 19z m51 -35 c30 -21 50 -62 57 -120 9 -64 -6 -104 -39 -104 -65 0 -123 157 -80 218 18 26 32 28 62 6z" id="svg_24" stroke="#ffffff" stroke-opacity="1" opacity="1" filter="" fill="#ffffff" fill-opacity="1"/>
<path d="M5001 784 c-48 -34 -60 -114 -22 -148 10 -9 33 -19 52 -22 l34 -7 -27 25 c-37 36 -61 86 -54 114 5 19 13 24 40 24 49 0 69 -28 74 -104 5 -71 -8 -105 -58 -155 -40 -40 -26 -40 22 -1 58 48 82 111 79 208 -2 68 -83 106 -140 66z" id="svg_25" stroke="#ffffff" stroke-opacity="1" opacity="1" filter="" fill="#ffffff" fill-opacity="1"/>
<path d="M5226 775 c-14 -13 -26 -25 -26 -27 0 -2 25 -1 55 0 30 2 55 0 55 -4 0 -5 -19 -28 -42 -52 -40 -40 -41 -43 -16 -37 40 10 68 -23 68 -80 0 -36 -5 -48 -24 -60 -26 -17 -50 -12 -83 18 -26 23 -31 11 -9 -19 11 -14 26 -19 61 -19 40 0 51 5 77 34 24 27 29 39 24 64 -8 40 -31 64 -67 72 -16 4 -29 9 -29 12 0 3 20 28 45 54 25 26 45 53 45 59 0 6 -23 10 -54 10 -43 0 -58 -5 -80 -25z" id="svg_26" stroke="#ffffff" stroke-opacity="1" opacity="1" filter="" fill="#ffffff" fill-opacity="1"/>
<path d="M5700 780 c-30 -30 -40 -63 -40 -128 1 -139 89 -205 158 -118 42 54 35 188 -13 240 -30 32 -77 34 -105 6z m59 -26 c48 -34 78 -154 51 -205 -6 -10 -21 -19 -34 -19 -67 0 -121 168 -74 228 14 16 29 15 57 -4z" id="svg_27" stroke="#ffffff" stroke-opacity="1" opacity="1" filter="" fill="#ffffff" fill-opacity="1"/>
<path d="M3805 650 c-67 -7 -91 -16 -98 -34 -7 -16 119 -8 156 10 28 15 37 35 15 32 -7 0 -40 -4 -73 -8z" id="svg_28" stroke="#ffffff" stroke-opacity="1" opacity="1" filter="" fill="#ffffff" fill-opacity="1"/>
<path d="M4783 650 c-57 -6 -93 -22 -93 -39 0 -10 120 -2 152 11 31 12 46 39 20 37 -9 -1 -45 -5 -79 -9z" id="svg_29" stroke="#ffffff" stroke-opacity="1" opacity="1" filter="" fill="#ffffff" fill-opacity="1"/>
<path d="M2530 360 c0 -5 5 -10 10 -10 6 0 10 5 10 10 0 6 -4 10 -10 10 -5 0 -10 -4 -10 -10z" id="svg_30" stroke="#ffffff" stroke-opacity="1" opacity="1" filter="" fill="#ffffff" fill-opacity="1"/>
<path d="M2720 368 c-1 -2 -2 -38 -3 -81 -1 -56 1 -77 11 -77 8 0 12 23 12 80 0 47 -4 80 -10 80 -5 0 -10 -1 -10 -2z" id="svg_31" stroke="#ffffff" stroke-opacity="1" opacity="1" filter="" fill="#ffffff" fill-opacity="1"/>
<path d="M3620 360 c0 -5 5 -10 10 -10 6 0 10 5 10 10 0 6 -4 10 -10 10 -5 0 -10 -4 -10 -10z" id="svg_32" stroke="#ffffff" stroke-opacity="1" opacity="1" filter="" fill="#ffffff" fill-opacity="1"/>
<path d="M3910 360 c0 -5 5 -10 10 -10 6 0 10 5 10 10 0 6 -4 10 -10 10 -5 0 -10 -4 -10 -10z" id="svg_33" stroke="#ffffff" stroke-opacity="1" opacity="1" filter="" fill="#ffffff" fill-opacity="1"/>
<path d="M4110 368 c-1 -2 -2 -38 -3 -81 -1 -56 1 -77 11 -77 8 0 12 23 12 80 0 47 -4 80 -10 80 -5 0 -10 -1 -10 -2z" id="svg_34" stroke="#ffffff" stroke-opacity="1" opacity="1" filter="" fill="#ffffff" fill-opacity="1"/>
<path d="M4180 360 c0 -5 5 -10 10 -10 6 0 10 5 10 10 0 6 -4 10 -10 10 -5 0 -10 -4 -10 -10z" id="svg_35" stroke="#ffffff" stroke-opacity="1" opacity="1" filter="" fill="#ffffff" fill-opacity="1"/>
<path d="M4830 360 c0 -5 5 -10 10 -10 6 0 10 5 10 10 0 6 -4 10 -10 10 -5 0 -10 -4 -10 -10z" id="svg_36" stroke="#ffffff" stroke-opacity="1" opacity="1" filter="" fill="#ffffff" fill-opacity="1"/>
<path d="M4969 363 c-1 -5 0 -18 1 -30 1 -13 -4 -23 -11 -23 -9 0 -9 -3 0 -14 7 -8 11 -27 9 -43 -2 -22 -8 -28 -28 -28 -20 0 -26 6 -28 28 -2 16 2 35 9 43 14 17 -2 19 -19 2 -15 -15 -15 -61 0 -76 7 -7 30 -12 53 -12 l40 0 -3 80 c-2 44 -8 80 -13 80 -5 0 -9 -3 -10 -7z" id="svg_37" stroke="#ffffff" stroke-opacity="1" opacity="1" filter="" fill="#ffffff" fill-opacity="1"/>
<path d="M5320 355 c15 -18 6 -45 -16 -45 -12 0 -15 7 -11 25 3 16 0 24 -7 22 -6 -2 -11 -17 -11 -33 0 -18 -8 -36 -22 -47 -13 -10 -23 -27 -23 -38 0 -24 37 -40 66 -28 12 4 40 5 63 2 28 -4 41 -2 41 6 0 7 -4 10 -9 7 -12 -8 -41 4 -41 16 0 5 9 23 21 39 l20 29 -20 0 c-14 0 -19 -5 -15 -15 4 -8 1 -22 -6 -30 -11 -14 -15 -13 -27 5 -14 19 -13 24 6 44 20 22 21 25 6 40 -21 20 -32 21 -15 1z m-17 -99 c18 -27 13 -36 -19 -36 -26 0 -39 27 -23 46 16 20 24 18 42 -10z" id="svg_38" stroke="#ffffff" stroke-opacity="1" opacity="1" filter="" fill="#ffffff" fill-opacity="1"/>
<path d="M5745 363 c-6 -2 -9 -32 -7 -74 3 -69 3 -70 -20 -67 -18 2 -24 10 -26 37 -2 20 2 37 10 42 9 6 10 9 1 9 -7 0 -20 -11 -29 -25 -14 -21 -15 -31 -6 -50 10 -21 19 -25 55 -25 l43 0 -4 68 c-4 85 -5 90 -17 85z" id="svg_39" stroke="#ffffff" stroke-opacity="1" opacity="1" filter="" fill="#ffffff" fill-opacity="1"/>
<path d="M5940 368 c-1 -2 -2 -38 -3 -81 -1 -56 1 -77 11 -77 8 0 12 23 12 80 0 47 -4 80 -10 80 -5 0 -10 -1 -10 -2z" id="svg_40" stroke="#ffffff" stroke-opacity="1" opacity="1" filter="" fill="#ffffff" fill-opacity="1"/>
<path d="M6585 363 c-6 -2 -9 -32 -7 -73 3 -65 2 -70 -17 -70 -29 0 -46 36 -32 69 l11 26 -20 -24 c-23 -27 -25 -41 -7 -65 9 -13 23 -16 52 -14 l40 3 -5 76 c-3 44 -9 74 -15 72z" id="svg_41" stroke="#ffffff" stroke-opacity="1" opacity="1" filter="" fill="#ffffff" fill-opacity="1"/>
<path d="M6650 360 c0 -5 5 -10 10 -10 6 0 10 5 10 10 0 6 -4 10 -10 10 -5 0 -10 -4 -10 -10z" id="svg_42" stroke="#ffffff" stroke-opacity="1" opacity="1" filter="" fill="#ffffff" fill-opacity="1"/>
<path d="M2028 285 c2 -41 7 -75 10 -75 4 0 6 20 4 44 -7 82 2 85 37 16 l34 -64 33 64 34 65 -2 -63 c-2 -50 0 -62 12 -62 12 0 15 15 15 75 0 92 -14 98 -52 20 -15 -30 -30 -55 -33 -55 -3 0 -18 25 -35 55 -43 81 -61 74 -57 -20z" id="svg_43" stroke="#ffffff" stroke-opacity="1" opacity="1" filter="" fill="#ffffff" fill-opacity="1"/>
<path d="M2884 324 c-9 -21 -25 -56 -35 -76 -17 -33 -17 -38 -4 -38 9 0 14 4 11 9 -13 21 7 41 40 41 32 0 63 -28 47 -44 -3 -3 3 -6 15 -6 20 0 20 2 -10 68 -40 89 -45 93 -64 46z m34 -29 c11 -24 10 -25 -18 -25 -28 0 -29 1 -18 25 6 14 14 25 18 25 4 0 12 -11 18 -25z" id="svg_44" stroke="#ffffff" stroke-opacity="1" opacity="1" filter="" fill="#ffffff" fill-opacity="1"/>
<path d="M3435 285 l0 -75 46 0 c62 0 99 28 99 76 0 51 -28 74 -92 74 l-53 0 0 -75z m100 51 c13 -9 19 -26 19 -51 0 -43 -22 -65 -66 -65 -28 0 -28 0 -28 65 0 65 0 65 28 65 16 0 37 -6 47 -14z" id="svg_45" stroke="#ffffff" stroke-opacity="1" opacity="1" filter="" fill="#ffffff" fill-opacity="1"/>
<path d="M4645 285 c0 -61 3 -75 15 -75 12 0 15 8 12 37 l-5 36 33 -23 c17 -12 34 -29 37 -36 3 -8 16 -14 29 -14 22 0 20 3 -18 37 -24 21 -45 39 -48 41 -3 2 12 19 32 38 32 29 35 34 17 34 -11 0 -18 -4 -15 -9 3 -5 -10 -21 -30 -36 l-37 -28 5 37 c3 28 0 36 -12 36 -12 0 -15 -14 -15 -75z" id="svg_46" stroke="#ffffff" stroke-opacity="1" opacity="1" filter="" fill="#ffffff" fill-opacity="1"/>
<path d="M5020 328 c0 -25 3 -29 10 -18 13 20 13 50 0 50 -5 0 -10 -15 -10 -32z" id="svg_47" stroke="#ffffff" stroke-opacity="1" opacity="1" filter="" fill="#ffffff" fill-opacity="1"/>
<path d="M5520 285 c-27 -56 -32 -75 -21 -75 8 0 11 3 8 6 -16 16 15 44 48 44 29 0 36 -4 41 -25 3 -14 13 -25 23 -25 14 0 11 12 -19 75 -19 41 -37 75 -40 75 -3 0 -21 -34 -40 -75z m60 -7 c0 -4 -11 -8 -25 -8 -28 0 -30 3 -14 32 11 21 12 21 25 3 8 -10 14 -22 14 -27z" id="svg_48" stroke="#ffffff" stroke-opacity="1" opacity="1" filter="" fill="#ffffff" fill-opacity="1"/>
<path d="M6151 334 c-27 -35 -27 -75 2 -101 23 -21 71 -38 61 -22 -3 5 -12 9 -19 9 -36 0 -47 88 -15 120 15 15 16 20 6 20 -8 0 -24 -12 -35 -26z" id="svg_49" stroke="#ffffff" stroke-opacity="1" opacity="1" filter="" fill="#ffffff" fill-opacity="1"/>
<path d="M6257 340 c10 -11 19 -20 20 -20 2 0 3 9 3 20 0 13 -7 20 -20 20 -19 0 -19 -1 -3 -20z" id="svg_50" stroke="#ffffff" stroke-opacity="1" opacity="1" filter="" fill="#ffffff" fill-opacity="1"/>
<path d="M2463 328 c-5 -7 -7 -37 -5 -65 3 -46 7 -53 25 -53 20 0 20 1 3 13 -15 11 -17 23 -13 65 5 56 4 59 -10 40z" id="svg_51" stroke="#ffffff" stroke-opacity="1" opacity="1" filter="" fill="#ffffff" fill-opacity="1"/>
<path d="M3114 329 c-6 -8 -8 -38 -6 -66 3 -46 7 -53 25 -53 14 0 18 3 10 8 -6 4 -13 34 -15 66 -2 45 -6 56 -14 45z" id="svg_52" stroke="#ffffff" stroke-opacity="1" opacity="1" filter="" fill="#ffffff" fill-opacity="1"/>
<path d="M6005 320 c-10 -11 -13 -20 -7 -20 7 0 12 -18 12 -45 0 -40 3 -45 22 -45 20 0 21 1 4 13 -15 11 -17 23 -13 65 3 29 4 52 2 52 -1 0 -10 -9 -20 -20z" id="svg_53" stroke="#ffffff" stroke-opacity="1" opacity="1" filter="" fill="#ffffff" fill-opacity="1"/>
<path d="M4424 294 c6 -13 17 -24 24 -24 23 0 9 32 -19 42 -14 5 -15 3 -5 -18z" id="svg_54" stroke="#ffffff" stroke-opacity="1" opacity="1" filter="" fill="#ffffff" fill-opacity="1"/>
<path d="M2256 301 c-4 -7 -5 -15 -2 -18 9 -9 19 4 14 18 -4 11 -6 11 -12 0z" id="svg_55" stroke="#ffffff" stroke-opacity="1" opacity="1" filter="" fill="#ffffff" fill-opacity="1"/>
<path d="M2306 263 c1 -33 6 -49 16 -51 11 -2 13 7 8 44 -7 63 -25 68 -24 7z" id="svg_56" stroke="#ffffff" stroke-opacity="1" opacity="1" filter="" fill="#ffffff" fill-opacity="1"/>
<path d="M2365 259 c0 -37 4 -49 15 -49 11 0 15 11 15 42 0 34 4 43 17 43 9 0 20 3 23 7 4 4 -10 7 -31 6 l-39 0 0 -49z" id="svg_57" stroke="#ffffff" stroke-opacity="1" opacity="1" filter="" fill="#ffffff" fill-opacity="1"/>
<path d="M2528 260 c2 -29 9 -50 15 -50 8 0 11 17 9 50 -2 29 -9 50 -15 50 -8 0 -11 -17 -9 -50z" id="svg_58" stroke="#ffffff" stroke-opacity="1" opacity="1" filter="" fill="#ffffff" fill-opacity="1"/>
<path d="M2597 303 c-10 -9 -9 -23 2 -23 5 0 11 7 15 15 5 15 -5 20 -17 8z" id="svg_59" stroke="#ffffff" stroke-opacity="1" opacity="1" filter="" fill="#ffffff" fill-opacity="1"/>
<path d="M2645 268 c0 -33 -4 -43 -17 -46 -11 -2 -18 3 -18 12 0 8 8 20 18 25 23 14 6 14 -19 1 -10 -6 -19 -19 -19 -30 0 -16 7 -19 43 -18 l43 0 -6 46 c-7 58 -25 65 -25 10z" id="svg_60" stroke="#ffffff" stroke-opacity="1" opacity="1" filter="" fill="#ffffff" fill-opacity="1"/>
<path d="M3015 259 c0 -37 4 -49 15 -49 11 0 15 11 15 42 0 34 4 43 17 43 9 0 20 3 23 7 4 4 -10 7 -31 6 l-39 0 0 -49z" id="svg_61" stroke="#ffffff" stroke-opacity="1" opacity="1" filter="" fill="#ffffff" fill-opacity="1"/>
<path d="M3177 303 c-15 -14 -5 -33 24 -48 20 -11 29 -21 25 -32 -4 -9 -1 -13 6 -11 27 9 18 36 -17 57 -20 11 -33 26 -30 31 7 11 2 13 -8 3z" id="svg_62" stroke="#ffffff" stroke-opacity="1" opacity="1" filter="" fill="#ffffff" fill-opacity="1"/>
<path d="M3225 300 c3 -5 8 -10 11 -10 2 0 4 5 4 10 0 6 -5 10 -11 10 -5 0 -7 -4 -4 -10z" id="svg_63" stroke="#ffffff" stroke-opacity="1" opacity="1" filter="" fill="#ffffff" fill-opacity="1"/>
<path d="M3618 260 c2 -29 9 -50 15 -50 8 0 11 17 9 50 -2 29 -9 50 -15 50 -8 0 -11 -17 -9 -50z" id="svg_64" stroke="#ffffff" stroke-opacity="1" opacity="1" filter="" fill="#ffffff" fill-opacity="1"/>
<path d="M3687 303 c-15 -14 -5 -33 24 -48 19 -11 29 -22 25 -31 -3 -8 -1 -14 3 -14 12 0 21 25 13 36 -4 5 -20 17 -35 27 -15 10 -25 22 -22 27 7 11 2 13 -8 3z" id="svg_65" stroke="#ffffff" stroke-opacity="1" opacity="1" filter="" fill="#ffffff" fill-opacity="1"/>
<path d="M3735 300 c3 -5 8 -10 11 -10 2 0 4 5 4 10 0 6 -5 10 -11 10 -5 0 -7 -4 -4 -10z" id="svg_66" stroke="#ffffff" stroke-opacity="1" opacity="1" filter="" fill="#ffffff" fill-opacity="1"/>
<path d="M3792 298 c-7 -7 -12 -24 -12 -38 0 -14 5 -31 12 -38 17 -17 53 -15 69 5 13 15 12 15 -8 3 -31 -20 -56 3 -51 47 2 18 4 33 3 33 -1 0 -6 -5 -13 -12z" id="svg_67" stroke="#ffffff" stroke-opacity="1" opacity="1" filter="" fill="#ffffff" fill-opacity="1"/>
<path d="M3842 299 c2 -7 10 -15 17 -17 8 -3 12 1 9 9 -2 7 -10 15 -17 17 -8 3 -12 -1 -9 -9z" id="svg_68" stroke="#ffffff" stroke-opacity="1" opacity="1" filter="" fill="#ffffff" fill-opacity="1"/>
<path d="M3905 260 c0 -33 4 -50 13 -50 8 0 12 17 12 50 0 33 -4 50 -12 50 -9 0 -13 -17 -13 -50z" id="svg_69" stroke="#ffffff" stroke-opacity="1" opacity="1" filter="" fill="#ffffff" fill-opacity="1"/>
<path d="M3968 233 c3 -52 7 -73 17 -73 8 0 11 7 8 21 -4 12 0 25 8 30 10 6 10 9 2 9 -20 0 -16 67 3 74 35 13 60 -44 32 -72 -7 -7 -8 -12 -2 -12 28 0 45 57 26 87 -4 6 -27 11 -52 11 l-45 -1 3 -74z" id="svg_70" stroke="#ffffff" stroke-opacity="1" opacity="1" filter="" fill="#ffffff" fill-opacity="1"/>
<path d="M4178 260 c2 -29 9 -50 15 -50 8 0 11 17 9 50 -2 29 -9 50 -15 50 -8 0 -11 -17 -9 -50z" id="svg_71" stroke="#ffffff" stroke-opacity="1" opacity="1" filter="" fill="#ffffff" fill-opacity="1"/>
<path d="M4245 260 c0 -33 4 -50 13 -50 8 0 12 17 12 50 0 33 -4 50 -13 50 -8 0 -12 -16 -12 -50z" id="svg_72" stroke="#ffffff" stroke-opacity="1" opacity="1" filter="" fill="#ffffff" fill-opacity="1"/>
<path d="M4293 303 c13 -3 17 -15 17 -49 0 -28 4 -44 13 -44 8 0 11 15 9 50 -4 47 -6 50 -30 49 -17 -1 -21 -3 -9 -6z" id="svg_73" stroke="#ffffff" stroke-opacity="1" opacity="1" filter="" fill="#ffffff" fill-opacity="1"/>
<path d="M4384 302 c-18 -12 -24 -41 -14 -67 12 -30 60 -35 81 -7 13 15 12 16 -3 4 -19 -15 -57 -8 -60 11 -4 36 -3 43 5 55 11 14 7 15 -9 4z" id="svg_74" stroke="#ffffff" stroke-opacity="1" opacity="1" filter="" fill="#ffffff" fill-opacity="1"/>
<path d="M4828 260 c2 -29 9 -50 15 -50 8 0 11 17 9 50 -2 29 -9 50 -15 50 -8 0 -11 -17 -9 -50z" id="svg_75" stroke="#ffffff" stroke-opacity="1" opacity="1" filter="" fill="#ffffff" fill-opacity="1"/>
<path d="M5070 290 c0 -11 11 -27 25 -36 14 -9 25 -23 25 -31 0 -8 5 -11 10 -8 19 12 10 36 -20 53 -17 9 -28 23 -25 30 2 6 0 12 -5 12 -6 0 -10 -9 -10 -20z" id="svg_76" stroke="#ffffff" stroke-opacity="1" opacity="1" filter="" fill="#ffffff" fill-opacity="1"/>
<path d="M5115 300 c3 -5 8 -10 11 -10 2 0 4 5 4 10 0 6 -5 10 -11 10 -5 0 -7 -4 -4 -10z" id="svg_77" stroke="#ffffff" stroke-opacity="1" opacity="1" filter="" fill="#ffffff" fill-opacity="1"/>
<path d="M5800 273 c0 -52 9 -62 55 -61 l40 0 -3 49 c-5 60 -20 64 -24 7 -2 -35 -7 -43 -23 -43 -16 0 -21 8 -23 43 -4 52 -22 56 -22 5z" id="svg_78" stroke="#ffffff" stroke-opacity="1" opacity="1" filter="" fill="#ffffff" fill-opacity="1"/>
<path d="M6317 303 c-4 -3 -7 -11 -7 -17 0 -6 5 -5 12 2 6 6 9 14 7 17 -3 3 -9 2 -12 -2z" id="svg_79" stroke="#ffffff" stroke-opacity="1" opacity="1" filter="" fill="#ffffff" fill-opacity="1"/>
<path d="M6365 263 c2 -33 7 -49 18 -51 14 -3 15 10 1 76 -8 40 -21 23 -19 -25z" id="svg_80" stroke="#ffffff" stroke-opacity="1" opacity="1" filter="" fill="#ffffff" fill-opacity="1"/>
<path d="M6425 259 c0 -37 4 -49 15 -49 11 0 15 11 15 42 0 35 3 43 18 42 9 -1 17 2 17 6 0 4 -15 8 -32 8 -33 0 -33 0 -33 -49z" id="svg_81" stroke="#ffffff" stroke-opacity="1" opacity="1" filter="" fill="#ffffff" fill-opacity="1"/>
<path d="M6645 260 c0 -33 4 -50 13 -50 8 0 12 17 12 50 0 33 -4 50 -12 50 -9 0 -13 -17 -13 -50z" id="svg_82" stroke="#ffffff" stroke-opacity="1" opacity="1" filter="" fill="#ffffff" fill-opacity="1"/>
<path d="M6714 285 c-20 -31 -8 -69 26 -78 20 -5 20 -4 7 11 -22 26 -28 52 -17 73 15 28 3 23 -16 -6z" id="svg_83" stroke="#ffffff" stroke-opacity="1" opacity="1" filter="" fill="#ffffff" fill-opacity="1"/>
<path d="M6774 294 c19 -18 21 -55 4 -72 -7 -7 -8 -12 -2 -12 18 0 34 24 34 50 0 28 -16 50 -38 50 -10 0 -10 -3 2 -16z" id="svg_84" stroke="#ffffff" stroke-opacity="1" opacity="1" filter="" fill="#ffffff" fill-opacity="1"/>
<path d="M3355 290 c-3 -5 1 -10 10 -10 9 0 13 5 10 10 -3 6 -8 10 -10 10 -2 0 -7 -4 -10 -10z" id="svg_85" stroke="#ffffff" stroke-opacity="1" opacity="1" filter="" fill="#ffffff" fill-opacity="1"/>
<path d="M4565 290 c-3 -5 1 -10 10 -10 9 0 13 5 10 10 -3 6 -8 10 -10 10 -2 0 -7 -4 -10 -10z" id="svg_86" stroke="#ffffff" stroke-opacity="1" opacity="1" filter="" fill="#ffffff" fill-opacity="1"/>
<path d="M6316 251 c-21 -23 -14 -41 17 -41 20 0 20 0 1 15 -19 15 -19 15 0 30 11 8 15 15 9 15 -5 0 -18 -9 -27 -19z" id="svg_87" stroke="#ffffff" stroke-opacity="1" opacity="1" filter="" fill="#ffffff" fill-opacity="1"/>
<path d="M2250 245 c-15 -18 -5 -35 23 -35 20 0 20 1 2 13 -10 8 -15 19 -11 25 10 17 1 15 -14 -3z" id="svg_88" stroke="#ffffff" stroke-opacity="1" opacity="1" filter="" fill="#ffffff" fill-opacity="1"/>
<path d="M3170 227 c0 -10 8 -17 18 -17 9 0 13 4 7 8 -5 4 -13 11 -17 16 -5 5 -8 2 -8 -7z" id="svg_89" stroke="#ffffff" stroke-opacity="1" opacity="1" filter="" fill="#ffffff" fill-opacity="1"/>
<path d="M3680 225 c0 -8 4 -15 10 -15 5 0 7 7 4 15 -4 8 -8 15 -10 15 -2 0 -4 -7 -4 -15z" id="svg_90" stroke="#ffffff" stroke-opacity="1" opacity="1" filter="" fill="#ffffff" fill-opacity="1"/>
<path d="M5066 225 c4 -8 11 -15 16 -15 6 0 5 6 -2 15 -7 8 -14 15 -16 15 -2 0 -1 -7 2 -15z" id="svg_91" stroke="#ffffff" stroke-opacity="1" opacity="1" filter="" fill="#ffffff" fill-opacity="1"/>
</g></g><defs><filter id="f106" xmlns:inkscape="http://www.inkscape.org/namespaces/inkscape" inkscape:label="Feather" inkscape:menu="ABCs" inkscape:menu-tooltip="Blurred mask on the edge without altering the contents" color-interpolation-filters="sRGB">
            <feGaussianBlur result="result6" stdDeviation="5"/>
            <feComposite in2="result6" operator="atop" in="SourceGraphic" result="result91"/>
            <feComposite operator="in" in2="result91" result="result92"/>
            <feComposite operator="in" in2="result92"/>
        </filter></defs></svg>